<?xml version="1.0" encoding="utf-8"?>
<!-- Generator: Adobe Illustrator 23.0.1, SVG Export Plug-In . SVG Version: 6.00 Build 0)  -->
<svg version="1.1" id="Layer_1" xmlns="http://www.w3.org/2000/svg" xmlns:xlink="http://www.w3.org/1999/xlink" x="0px" y="0px"
	 viewBox="0 0 300 300" style="enable-background:new 0 0 300 300;" xml:space="preserve">
<style type="text/css">
	.st0{opacity:0.24;}
	.st1{fill:#262626;stroke:#1C1C1C;stroke-width:0.75;stroke-miterlimit:10;}
	.st2{fill:#FFFFFF;stroke:#000000;stroke-width:0.75;stroke-miterlimit:10;}
	.st3{fill:#FF849E;}
	.st4{stroke:#1C1C1C;stroke-width:0.25;stroke-miterlimit:10;}
	.st5{fill:none;stroke:#000000;stroke-miterlimit:10;}
	.st6{fill:#FFFFFF;}
	.st7{fill:#C14D69;}
	.st8{fill:#974CBF;}
	.st9{fill:#4CBF83;}
	.st10{fill:#E2DD81;stroke:#B7B365;stroke-miterlimit:10;}
	.st11{fill:#FFFFFF;stroke:#EAEAEA;stroke-miterlimit:10;}
	.st12{fill:#4C88BF;}
	.st13{fill:#BFBC4C;}
</style>
<g>
	<path class="st0" d="M73.11,230.13l-10.23,6.74c-2.62,1.73-4.71,4.16-6,7.03l0,0c-1.75,3.86-1.21,8.37,1.41,11.7l0,0
		c1.31,1.67,3.28,2.67,5.4,2.73l20.89,0.64c2.42,0.07,4.84,0.02,7.26-0.15l26.84-1.93c2.02-0.15,4.04-0.35,6.04-0.62l13.36-1.76
		c1.19-0.16,2.38-0.27,3.57-0.35l19.06-1.18c3.81-0.24,7.63-0.13,11.42,0.33l19.32,2.32c1.59,0.19,3.18,0.33,4.78,0.42l18.69,1.01
		l23.67,1.61c1.71,0.12,3.43,0.12,5.15,0.02l7.48-0.45c5.54-0.34,14.36,0.26,18.42,0.59c1.46,0.12,2.94,0.03,4.37-0.27l0,0
		c2.1,0.3,4.24,0.03,6.19-0.79l0,0c1.55-0.65,2.68-2.01,3.02-3.66c0.39-1.88,0.84-4.41,0.89-6.33c0.1-4.66-2.23-9.03-6.14-11.56
		l-4.68-3.02c-1.13-0.99-22.89-10.38-22.89-10.38l-22.64-7.26L73.11,230.13z"/>
	<path class="st1" d="M84.24,210.93l-5.74,1.87c-0.16,0.05-0.31,0.11-0.46,0.18l-6.84,3.16c-0.07,0.03-0.15,0.07-0.22,0.11
		l-7.92,4.22c-0.17,0.09-0.34,0.2-0.5,0.31l-6.03,4.4c-0.36,0.26-0.68,0.58-0.94,0.94l-3.37,4.69c-0.31,0.43-0.54,0.92-0.66,1.43
		l-1.02,4.07c-0.17,0.68-0.17,1.39,0.01,2.07l0.83,3.22c0.24,0.94,0.8,1.77,1.59,2.34l3.66,2.68c0.43,0.32,0.93,0.55,1.45,0.68
		l7.35,1.88c0.34,0.09,0.69,0.13,1.04,0.13h9.04h13.26c0.12,0,0.24-0.01,0.36-0.02l10.68-0.91l9.94-0.74l9.56-0.87
		c0.37-0.03,0.74-0.12,1.1-0.25l5.06-1.9c3.2-1.2,3.71-5.52,0.87-7.43l-38.45-25.78C86.81,210.72,85.47,210.53,84.24,210.93z"/>
	<path class="st1" d="M229.41,214.35l1.04,0.29l8.23,2.32c2.52,0.71,4.94,1.76,7.18,3.11l4.53,2.74c1.9,1.15,3.66,2.5,5.25,4.05
		c1.75,1.7,3.78,3.75,3.78,4.06c0,0.28,0.78,2.16,1.56,3.97c1.02,2.36,1.25,4.99,0.69,7.49l0,0c-0.26,1.15-0.96,2.15-1.95,2.79
		l-1.82,1.18c-1.55,1-3.27,1.69-5.08,2.03l-8.17,1.56c-1.07,0.2-2.16,0.31-3.25,0.31H230.7l-16.97-0.87
		c-0.71-0.04-1.42-0.12-2.12-0.24l-13.15-2.3c-0.35-0.06-0.7-0.15-1.03-0.25l-19.19-6.1l46.76-28.53L229.41,214.35z"/>
	<path class="st2" d="M91.05,155.75c-0.05,0.52-0.2,1.03-0.43,1.5l-1.12,2.24l-3.41,7.55c-0.06,0.12-0.11,0.25-0.15,0.38l-2.09,6.11
		c-0.03,0.09-0.06,0.19-0.09,0.29l-2.17,8.14l-2.1,9.09c-0.07,0.32-0.11,0.64-0.11,0.97v7.07c0,0.12,0,0.23,0.01,0.35l0.25,3.09
		c0.43,5.37,2.03,10.59,4.68,15.28l0.1,0.17c0.51,0.9,1.06,1.77,1.66,2.62l2.88,4.06c2.43,3.42,5.42,6.41,8.83,8.85l2.49,1.78
		c1.77,1.26,3.64,2.38,5.59,3.34l6.67,3.28c1.58,0.78,3.22,1.42,4.9,1.92l9.32,2.76c0.81,0.24,1.63,0.45,2.46,0.62l9.67,2.05
		c3.15,0.67,6.36,1,9.57,1h6.94h14.08c2.02,0,4.04-0.18,6.03-0.54l10.15-1.83c1.43-0.26,2.84-0.6,4.23-1.02l8.23-2.5l5.59-1.99
		c1.79-0.64,3.53-1.43,5.19-2.36l4.28-2.41c1.37-0.77,2.66-1.67,3.87-2.68l1.76-1.48c2.27-1.91,4.17-4.21,5.63-6.78l0.73-1.29
		c1.69-2.99,2.58-6.37,2.58-9.81v-4.07c0-0.17-0.01-0.34-0.03-0.5l-0.85-7.22c-0.03-0.24-0.08-0.47-0.14-0.7l-2.95-10.16
		c-0.05-0.17-0.11-0.34-0.18-0.51l-4.68-10.8l-1.49-3.32c-0.57-1.27-1.72-2.18-3.08-2.46L96.19,151.96
		C93.69,151.46,91.3,153.22,91.05,155.75L91.05,155.75z"/>
	<path class="st1" d="M97.23,119.92l-6.67-4.93c-0.22-0.16-0.44-0.31-0.67-0.45l-8.7-5.29c-0.23-0.14-0.47-0.26-0.71-0.36l-5.3-2.26
		c-1.97-0.84-4.09-1.27-6.23-1.27h-4.59c-1.36,0-2.67,0.5-3.69,1.4l-2.3,2.05c-0.71,0.63-1.25,1.44-1.56,2.35l-1.01,2.92
		c-0.36,1.04-0.4,2.15-0.12,3.21l1.32,5.03c0.19,0.72,0.49,1.4,0.89,2.01l4.94,7.56c0.23,0.35,0.48,0.68,0.77,0.99l9.63,10.48
		c0.29,0.32,0.61,0.61,0.94,0.88l8.13,6.61c0.14,0.11,0.28,0.21,0.42,0.31l17.31,11.54c0.09,0.06,0.19,0.12,0.29,0.18l15.29,8.89
		c0.26,0.15,0.54,0.28,0.82,0.39l19.07,7.24c0.26,0.1,0.52,0.17,0.78,0.23l17,3.72c0.18,0.04,0.37,0.07,0.55,0.09l19.98,2.3
		c0.36,0.04,0.72,0.05,1.08,0.02l17.37-1.4c0.21-0.02,0.42-0.05,0.63-0.09l17.13-3.39c0.16-0.03,0.31-0.07,0.46-0.11l4.54-1.31
		c1.64-0.47,3.41-0.17,4.79,0.83l5,3.61c0.23,0.17,0.48,0.32,0.73,0.45l10.1,5.13c0.25,0.13,0.52,0.24,0.79,0.33l8.88,2.9
		c0.56,0.18,1.14,0.28,1.73,0.28h3.08c2.31,0,4.55-0.83,6.31-2.33l1.09-0.93c0.87-0.75,1.49-1.75,1.77-2.87l0.84-3.34
		c0.26-1.02,0.21-2.1-0.12-3.1l-1.37-4.12c-0.21-0.64-0.54-1.24-0.97-1.76l-4.64-6.37c-1.26-1.72-2.7-3.3-4.31-4.7l-6.53-5.67
		c-1.51-1.31-3.19-2.42-4.99-3.3l-5.57-4.39c-0.44-0.24-122.91-26.07-122.91-26.07c-0.49-0.11,4.48,2.24-2.34-0.9l1.18,0.9
		C106.36,124.11,98.18,120.63,97.23,119.92z"/>
	<path class="st1" d="M220.94,64.68l5.57-4.93c1.67-1.48,3.63-2.59,5.76-3.26l2.38-0.75c2.13-0.67,4.36-1.01,6.6-1.01h2.88
		c2.56,0,5.09,0.51,7.45,1.49l0.34,0.14c1.8,0.75,3.48,1.74,5.01,2.95l3.02,2.39c1.72,1.36,3.23,2.97,4.48,4.78l0.73,1.06
		c1.79,2.6,2.99,5.56,3.5,8.68v0c0.58,3.54,0.31,7.18-0.79,10.59v0c-0.96,2.99-2.63,5.71-4.86,7.92l-0.05,0.05
		c-3.06,3.02-6.79,5.27-10.88,6.57l-6.84,2.17L220.94,64.68z"/>
	<path class="st1" d="M150.43,44.06c-0.38,0.38-0.86-2.53-1.23-5.43c-0.47-3.64-1.89-7.1-4.13-10.01l-0.98-1.27
		c-1.88-2.45-4.33-4.41-7.13-5.7l0,0c-3.7-1.71-7.82-2.33-11.87-1.77l-2.53,0.35c-2.14,0.3-4.21,0.99-6.1,2.05l-3.12,1.75
		c-4.07,2.28-7.62,5.39-10.42,9.12l0,0c-1.55,2.06-2.38,4.57-2.38,7.14v4.3c0,1.59,0.22,3.18,0.66,4.72l0.74,2.58
		c0.77,2.7,2.27,5.15,4.33,7.06l4.95,4.62L150.43,44.06z"/>
	<path class="st2" d="M225.25,57.57l-5.06-4.04c-3.29-2.62-6.9-4.81-10.74-6.51l-7.43-3.29c-3.94-1.74-8.05-3.09-12.26-4.02
		l-5.55-1.23c-3.73-0.82-7.54-1.24-11.36-1.24h-11.76c-2.31,0-4.63,0.15-6.92,0.45l-9.01,1.19c-4.68,0.62-9.26,1.89-13.6,3.77
		l-3.16,1.37c-3.71,1.61-7.2,3.69-10.38,6.2l-4.76,3.75c-1.73,1.36-3.3,2.92-4.67,4.64l-4.38,5.48c-2.55,3.19-4.51,6.81-5.78,10.69
		l-2.54,7.76c-0.7,2.14-1.13,4.35-1.28,6.6l-0.13,2c-0.25,3.69,0.08,7.4,0.98,10.99l0.91,3.62c1.67,6.67,4.64,12.95,8.74,18.46l0,0
		c2.96,3.98,6.45,7.54,10.37,10.59l0.98,0.76c5.82,4.52,12.13,8.38,18.81,11.49l1.4,0.65c3.41,1.59,6.9,3,10.46,4.22l4.11,1.41
		c6.2,2.13,12.61,3.58,19.12,4.33l9.34,1.08c5.28,0.61,10.6,0.73,15.9,0.35l7.76-0.55c1.54-0.11,3.08-0.32,4.6-0.64l8.64-1.8
		c2.16-0.45,4.25-1.2,6.21-2.22l9.61-5.04c1.95-1.02,3.73-2.34,5.28-3.91c1.51-1.54,3.46-3.55,4.97-5.21
		c1.84-2.02,3.33-4.32,4.44-6.82l2.28-5.14c2.15-4.85,3.42-10.03,3.77-15.32l0.01-0.16c0.38-5.81-0.25-11.64-1.86-17.23l-0.51-1.78
		c-1.1-3.84-2.7-7.52-4.76-10.94l-3.48-5.79c-2.24-3.73-4.94-7.16-8.03-10.21l-5.88-5.79C227.55,59.5,226.43,58.5,225.25,57.57z"/>
	<path class="st3" d="M109.37,92.18l3.23,0.59c0.97,0.18,1.91,0.5,2.79,0.96l3.43,1.8c0.24,0.13,0.47,0.27,0.69,0.43l2.99,2.19
		c1.17,0.86,1.89,2.2,1.97,3.65v0c0.01,0.29-0.12,0.57-0.35,0.74l-0.95,0.71c-1.52,1.13-3.47,1.5-5.3,1.01l-4.32-1.16
		c-0.55-0.15-1.08-0.35-1.59-0.61l-5.21-2.64c-1.15-0.58-2.03-1.58-2.48-2.78l-0.06-0.15c-0.55-1.48,0.07-3.14,1.46-3.9l0.61-0.33
		C107.22,92.16,108.31,91.99,109.37,92.18z"/>
	<path class="st3" d="M209.97,129.98l-1.99,0.22c-2.02,0.22-3.67,1.72-4.08,3.71c0,0-0.01,0.35,0.08,0.5l1.16,2.04
		c0.42,0.74,1.01,1.38,1.73,1.85l4.94,3.28c0.89,0.59,1.92,0.96,2.98,1.07l2.7,0.58c0.47,0.1,0.95,0.15,1.44,0.13
		c0.46-0.02,1.08-0.08,1.68-0.16c0.02,0,0.04-0.01,0.06-0.01c2.68-0.38,3.71-3.76,1.92-5.79c-0.82-0.93-1.71-1.93-1.71-1.93
		c-0.91-1.01-1.99-1.86-3.2-2.49l-3.75-1.97c-0.47-0.25-0.97-0.43-1.49-0.53L209.97,129.98z"/>
	<path class="st1" d="M204.92,101.87l-3.03,0.78c-1.24,0.32-2.32,1.1-3.03,2.17l-0.91,1.4c-0.5,0.76-0.76,1.65-0.76,2.56v0.61
		c0,2.19,0.51,4.36,1.49,6.32l1.27,2.54l2.35,4.31c0.64,1.17,1.44,2.25,2.39,3.19l4.17,4.17c0.68,0.68,1.47,1.27,2.32,1.72
		l4.05,2.18c1.22,0.66,2.54,1.08,3.92,1.26l3.26,0.42c1.18,0.15,2.37-0.19,3.3-0.93l0,0c2.15-1.74,3.62-4.19,4.13-6.91l0.17-0.88
		c0.22-1.14,0.24-2.3,0.07-3.45l-0.58-4.01c-0.06-0.41-0.15-0.81-0.26-1.2l-0.61-2.06c-0.57-1.95-1.63-3.72-3.06-5.15l-2.45-2.45
		c-0.47-0.47-0.98-0.89-1.54-1.26l-3.97-2.65c-0.48-0.32-0.99-0.58-1.52-0.8l-4.17-1.64c-0.73-0.29-1.5-0.43-2.28-0.43h-3.21
		C205.92,101.68,205.41,101.75,204.92,101.87z"/>
	<path class="st1" d="M119.3,73.42l-1.56,0.76c-1.7,0.83-3.22,2-4.46,3.44l-1.36,1.58c-0.54,0.62-1,1.3-1.38,2.02l-0.67,1.27
		c-0.89,1.69-1.28,3.6-1.15,5.5v0c0.07,0.95,0.39,1.87,0.92,2.66l0.67,0.99c1,1.49,2.42,2.65,4.08,3.34l2.23,0.92
		c1.16,0.48,2.39,0.74,3.64,0.77l7.37,0.17c0.78,0.02,1.56-0.05,2.33-0.21l5.96-1.25c0.96-0.2,1.9-0.53,2.77-0.98l4.77-2.46
		c1.43-0.74,2.65-1.84,3.52-3.2l0.36-0.56c1.25-1.94,1.59-4.33,0.92-6.54l-0.12-0.4c-0.37-1.23-1.04-2.34-1.95-3.25l-1.67-1.67
		c-1.02-1.02-2.21-1.84-3.53-2.42l-3.02-1.33c-1.49-0.66-3.09-1.05-4.72-1.16l-2.64-0.17c-1.77-0.11-3.54,0.03-5.27,0.43l-3.09,0.71
		C121.23,72.61,120.24,72.96,119.3,73.42z"/>
	<path class="st4" d="M158.64,111.94l-1.03,0.34c-0.94,0.31-1.7,1.01-2.1,1.91v0c-0.52,1.17-0.37,2.53,0.4,3.56l0.68,0.91
		c0.49,0.67,1.15,1.19,1.91,1.53l1.81,0.8c0.65,0.29,1.36,0.44,2.07,0.44h0.53c1.41,0,2.73-0.7,3.51-1.88h0
		c0.38-0.58,0.59-1.25,0.59-1.94l0,0c0-1.54-0.72-2.98-1.94-3.92l-0.64-0.49c-0.37-0.28-0.78-0.5-1.22-0.65l-1.83-0.61
		C160.49,111.64,159.53,111.64,158.64,111.94z"/>
	<path class="st5" d="M148.59,120.46l0.05,1.15c0.05,1.06,0.63,2.02,1.53,2.56l0,0c1.26,0.75,2.76,0.97,4.18,0.62l3.82-0.96
		l2.7-5.75l-2.7,5.75l0.08,0.68c0.26,2.35,1.79,4.36,3.98,5.24l0,0c0.78,0.31,1.65,0.29,2.41-0.07l2.36-1.12"/>
	<circle class="st6" cx="141.45" cy="84.47" r="2.12"/>
	<circle class="st6" cx="204.13" cy="109.17" r="2.12"/>
	<path class="st0" d="M103.18,121.42l0.5,2.36c0.19,0.91,0.29,1.86,0.29,2.83c0.04,7.41-4.98,13.91-11.91,16.51l-7.5,2.82
		c-3.52,1.32-7.47,0.68-10.39-1.69h0l-6.09-6.54c-2.99-3.21-5.71-6.65-8.14-10.3l-2.05-3.07l8.09-5.73l18.55-7.33l2.13,1.47
		C91.8,116.29,97.34,119.2,103.18,121.42L103.18,121.42z"/>
	
		<rect x="57.43" y="82.35" transform="matrix(-0.2701 -0.9628 0.9628 -0.2701 -7.1737 161.6174)" class="st7" width="0.49" height="2.36"/>
	
		<rect x="57.23" y="97.59" transform="matrix(0.7071 0.7071 -0.7071 0.7071 86.6765 -11.7131)" class="st8" width="0.49" height="2.36"/>
	
		<rect x="58.77" y="103" transform="matrix(0.9104 0.4136 -0.4136 0.9104 48.3776 -15.0806)" class="st9" width="0.49" height="2.36"/>
	<ellipse class="st10" cx="51.67" cy="80.87" rx="46.92" ry="48.14"/>
	<path class="st11" d="M74.27,105.8l-1.85-0.6l0.2,2.75c0.42,5.78-6.52,9.03-10.69,4.99l-1.96-1.9l-0.57,2.42
		c-1.29,5.46-8.76,6.19-11.09,1.09l-1.06-2.31l-3.17,2.78c-3.99,3.51-10.23,0.47-9.93-4.84l0.17-2.95l-3.15,0.89
		c-5.37,1.51-9.7-4.51-6.55-9.12l0.64-0.94L22,97.84c-5.71-0.4-8.1-7.51-3.78-11.27l0.9-0.79l-1.99-1.16
		c-4.8-2.79-3.91-9.96,1.42-11.5l2.63-0.76l-1.28-1.29c-3.64-3.68-0.74-9.9,4.42-9.47l1.95,0.16l-0.59-1.51
		c-2.02-5.15,3.23-10.16,8.28-7.9l1.85,0.83l-0.06-1.47c-0.2-4.93,5.87-7.4,9.17-3.73l0.85,0.94l1.01-2.42
		c2.07-4.93,8.95-5.2,11.39-0.44l1.37,2.67l1.12-1.12c3.53-3.53,9.55-0.9,9.37,4.08l-0.09,2.56l1.18-0.55
		c5.04-2.34,10.37,2.65,8.36,7.84l-0.69,1.78L80.12,63c4.43-1.08,7.64,4.16,4.67,7.61l-2.27,2.64l1.57,0.16
		c4.91,0.5,6.39,6.95,2.19,9.54l-2.6,1.61l0,0c4.83,1.97,4.31,8.97-0.75,10.21l-2.61,0.64l0.92,1.47
		C84.21,101.65,79.61,107.53,74.27,105.8z"/>
	
		<rect x="37.77" y="57.21" transform="matrix(0.7071 0.7071 -0.7071 0.7071 53.8287 -9.5103)" class="st7" width="1.24" height="6.02"/>
	
		<rect x="53.3" y="88.03" transform="matrix(-1 -1.224647e-16 1.224647e-16 -1 107.931 182.5671)" class="st7" width="1.34" height="6.51"/>
	
		<rect x="59.83" y="98.12" transform="matrix(0.2321 0.9727 -0.9727 0.2321 144.7336 18.8352)" class="st12" width="1.22" height="5.93"/>
	
		<rect x="57.69" y="62.98" transform="matrix(0.664 -0.7478 0.7478 0.664 -29.6402 65.6989)" class="st9" width="1.17" height="5.7"/>
	
		<rect x="29.31" y="72.73" transform="matrix(-0.0645 -0.9979 0.9979 -0.0645 -43.6304 110.3279)" class="st8" width="1.19" height="5.77"/>
	
		<rect x="40.13" y="91.25" transform="matrix(-0.4136 0.9104 -0.9104 -0.4136 142.9993 95.7072)" class="st8" width="1.09" height="5.3"/>
	<rect x="27.55" y="84" transform="matrix(0.93 0.3677 -0.3677 0.93 33.9402 -4.261)" class="st9" width="1.21" height="5.88"/>
	
		<rect x="42.08" y="78.14" transform="matrix(-0.9659 0.2588 -0.2588 -0.9659 105.0542 148.7891)" class="st13" width="1.31" height="6.34"/>
	
		<rect x="54.67" y="51.55" transform="matrix(0.1838 -0.983 0.983 0.1838 -9.0205 99.523)" class="st13" width="1.5" height="7.28"/>
	
		<rect x="46.08" y="101.74" transform="matrix(0.768 -0.6405 0.6405 0.768 -56.1814 54.1728)" class="st13" width="1.19" height="5.77"/>
	
		<rect x="65.35" y="74.3" transform="matrix(0.0645 0.9979 -0.9979 0.0645 138.9081 6.517)" class="st13" width="1.25" height="6.09"/>
	
		<rect x="56.24" y="78.63" transform="matrix(-0.2262 0.9741 -0.9741 -0.2262 149.371 44.8384)" class="st12" width="1.28" height="6.23"/>
	
		<rect x="44.61" y="65.68" transform="matrix(-0.7071 0.7071 -0.7071 -0.7071 125.605 85.0339)" class="st12" width="1.17" height="5.69"/>
	
		<rect x="69.89" y="63.61" transform="matrix(0.4136 -0.9104 0.9104 0.4136 -19.6808 103.6239)" class="st8" width="1.43" height="6.96"/>
	<rect x="70.23" y="86.6" transform="matrix(0.93 0.3677 -0.3677 0.93 37.8145 -19.7715)" class="st9" width="1.13" height="5.5"/>
	<path class="st0" d="M204.13,182.06l4.59,10.49c0.83,1.89,1.48,3.84,1.97,5.84l2.45,10.05c0.37,1.51,0.55,3.07,0.55,4.63v5.96
		c0,4.14-0.98,8.22-2.85,11.92l-4.6,9.06l9.29-3.99c6.19-5.32,10.48-12.5,12.22-20.48l-0.63-1.18c0.42-1.92,0.51-3.89,0.28-5.84
		l-0.3-2.48c-0.24-1.99-0.65-3.96-1.21-5.89l-1.78-6.05c-0.34-1.15-0.75-2.28-1.22-3.38l-3.96-9.14l-1.49-3.32L204.13,182.06z"/>
	<path class="st0" d="M195.58,159.1l4.55,12.23l3.99,10.73l13.3-3.8l8.13,6.09l10.89,5.46l8.88,2.9l7.92,0.28l4.28-3.27l2.61-6.21
		l-0.8-3.85c-0.46-2.23-1.36-4.34-2.65-6.21l-2.84-4.12c-0.54-0.79-1.14-1.53-1.78-2.24l-2.47-2.69c-0.58-0.64-1.2-1.24-1.85-1.8
		l-4.57-3.97c-0.65-0.57-1.34-1.09-2.06-1.56l-3.91-2.59l-5.56-4.38c-0.01,0-0.01-0.01,0-0.02l8.71-8.19
		c1.53-1.43,2.87-3.05,4.02-4.8l1.39-2.13c0.89-1.36,1.65-2.8,2.28-4.3l2.8-6.65l1.19-4.83c0.43-1.75,0.68-3.54,0.73-5.34l0.18-6.14
		c0.06-2.15-0.22-4.3-0.85-6.37v0l4.53-2.04c0.8-0.36,1.55-0.81,2.25-1.35l0,0c2.75-2.13,5.08-4.74,6.9-7.7l2.11-3.44l0.03-0.11
		c0.7-2.89,0.99-5.87,0.84-8.84l-0.08-1.65l-5.55,6.83c-0.76,0.94-1.63,1.79-2.59,2.53l0,0c-3.18,2.45-7.08,3.77-11.1,3.77l0,0
		l-0.77,13.08c-0.26,4.47-0.99,8.91-2.15,13.24l-1.55,5.75l-0.1,0.2c-2.63,5.53-6.12,10.61-10.35,15.04h0l-8.58,6.01
		c-0.17,0.12-0.34,0.25-0.5,0.38l-1.43,1.22c-2.6,2.21-5.32,4.27-8.16,6.17h0c-1.43,0.95-2.95,1.75-4.54,2.39L195.58,159.1
		L195.58,159.1z"/>
</g>
</svg>
