<?xml version="1.0" encoding="utf-8"?>
<!-- Generator: Adobe Illustrator 23.0.1, SVG Export Plug-In . SVG Version: 6.00 Build 0)  -->
<svg version="1.1" id="Layer_1" xmlns="http://www.w3.org/2000/svg" xmlns:xlink="http://www.w3.org/1999/xlink" x="0px" y="0px"
	 viewBox="0 0 150 150" style="enable-background:new 0 0 150 150;" xml:space="preserve">
<style type="text/css">
	.st0{opacity:0.24;}
	.st1{fill:#262626;stroke:#1C1C1C;stroke-width:0.75;stroke-miterlimit:10;}
	.st2{fill:#FFFFFF;stroke:#000000;stroke-width:0.75;stroke-miterlimit:10;}
	.st3{fill:#FF849E;}
	.st4{stroke:#1C1C1C;stroke-width:0.25;stroke-miterlimit:10;}
	.st5{fill:none;stroke:#000000;stroke-miterlimit:10;}
	.st6{fill:#FFFFFF;}
	.st7{fill:#C14D69;}
	.st8{fill:#974CBF;}
	.st9{fill:#4CBF83;}
	.st10{fill:#E2DD81;stroke:#B7B365;stroke-miterlimit:10;}
	.st11{fill:#FFFFFF;stroke:#EAEAEA;stroke-miterlimit:10;}
	.st12{fill:#4C88BF;}
	.st13{fill:#BFBC4C;}
</style>
<path class="st0" d="M37.16,115.61l-4.55,3c-1.17,0.77-2.09,1.85-2.67,3.12h0c-0.78,1.71-0.54,3.72,0.63,5.2h0
	c0.58,0.74,1.46,1.18,2.4,1.21l9.28,0.28c1.08,0.03,2.15,0.01,3.23-0.07l11.93-0.86c0.9-0.06,1.79-0.16,2.69-0.27l5.94-0.78
	c0.53-0.07,1.06-0.12,1.59-0.15l8.47-0.52c1.69-0.1,3.39-0.06,5.08,0.15l8.59,1.03c0.71,0.08,1.42,0.15,2.13,0.18l8.3,0.45
	l10.52,0.72c0.76,0.05,1.53,0.05,2.29,0.01l3.32-0.2c2.46-0.15,6.38,0.12,8.19,0.26c0.65,0.05,1.31,0.01,1.94-0.12l0,0
	c0.93,0.13,1.88,0.01,2.75-0.35l0,0c0.69-0.29,1.19-0.89,1.34-1.63c0.18-0.84,0.37-1.96,0.39-2.82c0.05-2.07-0.99-4.01-2.73-5.14
	l-2.08-1.34c-0.5-0.44-10.17-4.61-10.17-4.61l-10.06-3.23L37.16,115.61z"/>
<path class="st1" d="M42.11,107.07l-2.55,0.83c-0.07,0.02-0.14,0.05-0.2,0.08l-3.04,1.4c-0.03,0.02-0.06,0.03-0.1,0.05l-3.52,1.88
	c-0.08,0.04-0.15,0.09-0.22,0.14l-2.68,1.96c-0.16,0.12-0.3,0.26-0.42,0.42l-1.5,2.08c-0.14,0.19-0.24,0.41-0.3,0.64l-0.45,1.81
	c-0.08,0.3-0.07,0.62,0,0.92l0.37,1.43c0.11,0.42,0.36,0.79,0.7,1.04l1.62,1.19c0.19,0.14,0.41,0.24,0.64,0.3l3.27,0.83
	c0.15,0.04,0.31,0.06,0.46,0.06h4.02h5.89c0.05,0,0.11,0,0.16-0.01l4.75-0.4l4.42-0.33l4.25-0.39c0.17-0.02,0.33-0.05,0.49-0.11
	l2.25-0.84c1.42-0.53,1.65-2.46,0.38-3.3L43.73,107.3C43.25,106.98,42.65,106.89,42.11,107.07z"/>
<path class="st1" d="M106.63,108.59l0.46,0.13l3.66,1.03c1.12,0.32,2.19,0.78,3.19,1.38l2.01,1.22c0.84,0.51,1.63,1.11,2.33,1.8
	c0.78,0.76,1.68,1.67,1.68,1.81c0,0.12,0.35,0.96,0.69,1.76c0.45,1.05,0.56,2.22,0.3,3.33v0c-0.12,0.51-0.43,0.96-0.87,1.24
	l-0.81,0.52c-0.69,0.44-1.45,0.75-2.26,0.9l-3.63,0.69c-0.48,0.09-0.96,0.14-1.45,0.14h-4.75l-7.54-0.38
	c-0.32-0.02-0.63-0.05-0.94-0.11l-5.84-1.02c-0.16-0.03-0.31-0.06-0.46-0.11l-8.53-2.71l20.78-12.68L106.63,108.59z"/>
<path class="st2" d="M45.14,82.55c-0.02,0.23-0.09,0.46-0.19,0.67l-0.5,0.99l-1.52,3.35c-0.02,0.05-0.05,0.11-0.07,0.17l-0.93,2.71
	c-0.01,0.04-0.03,0.08-0.04,0.13l-0.96,3.62l-0.93,4.04c-0.03,0.14-0.05,0.29-0.05,0.43v3.14c0,0.05,0,0.1,0.01,0.15l0.11,1.37
	c0.19,2.39,0.9,4.7,2.08,6.79l0.04,0.08c0.23,0.4,0.47,0.79,0.74,1.16l1.28,1.8c1.08,1.52,2.41,2.85,3.92,3.93l1.11,0.79
	c0.79,0.56,1.62,1.06,2.48,1.48l2.96,1.46c0.7,0.34,1.43,0.63,2.18,0.85l4.14,1.23c0.36,0.11,0.72,0.2,1.09,0.28l4.3,0.91
	c1.4,0.3,2.83,0.45,4.26,0.45h3.09H80c0.9,0,1.8-0.08,2.68-0.24l4.51-0.81c0.63-0.11,1.26-0.27,1.88-0.45l3.66-1.11l2.48-0.88
	c0.8-0.28,1.57-0.63,2.31-1.05l1.9-1.07c0.61-0.34,1.18-0.74,1.72-1.19l0.78-0.66c1.01-0.85,1.85-1.87,2.5-3.02l0.33-0.57
	c0.75-1.33,1.15-2.83,1.15-4.36v-1.81c0-0.07,0-0.15-0.01-0.22l-0.38-3.21c-0.01-0.11-0.03-0.21-0.06-0.31l-1.31-4.52
	c-0.02-0.08-0.05-0.15-0.08-0.23l-2.08-4.8l-0.66-1.47c-0.25-0.56-0.76-0.97-1.37-1.09l-52.52-10.6
	C46.31,80.64,45.25,81.42,45.14,82.55L45.14,82.55z"/>
<path class="st1" d="M47.88,66.63l-2.97-2.19c-0.1-0.07-0.19-0.14-0.3-0.2l-3.87-2.35c-0.1-0.06-0.21-0.12-0.32-0.16l-2.36-1
	c-0.88-0.37-1.82-0.56-2.77-0.56h-2.04c-0.6,0-1.19,0.22-1.64,0.62l-1.02,0.91c-0.32,0.28-0.56,0.64-0.69,1.04l-0.45,1.3
	c-0.16,0.46-0.18,0.96-0.05,1.43L30,67.69c0.08,0.32,0.22,0.62,0.4,0.9l2.19,3.36c0.1,0.16,0.22,0.3,0.34,0.44l4.28,4.66
	c0.13,0.14,0.27,0.27,0.42,0.39l3.61,2.94c0.06,0.05,0.12,0.1,0.19,0.14l7.69,5.13c0.04,0.03,0.08,0.05,0.13,0.08l6.8,3.95
	c0.12,0.07,0.24,0.13,0.36,0.17l8.48,3.22c0.11,0.04,0.23,0.08,0.35,0.1l7.55,1.65c0.08,0.02,0.16,0.03,0.25,0.04l8.88,1.02
	c0.16,0.02,0.32,0.02,0.48,0.01l7.72-0.62c0.09-0.01,0.19-0.02,0.28-0.04l7.61-1.51c0.07-0.01,0.14-0.03,0.21-0.05l2.02-0.58
	c0.73-0.21,1.51-0.07,2.13,0.37l2.22,1.6c0.1,0.07,0.21,0.14,0.33,0.2l4.49,2.28c0.11,0.06,0.23,0.11,0.35,0.15l3.94,1.29
	c0.25,0.08,0.51,0.12,0.77,0.12h1.37c1.03,0,2.02-0.37,2.8-1.04l0.48-0.41c0.39-0.33,0.66-0.78,0.79-1.28l0.37-1.48
	c0.11-0.46,0.1-0.93-0.05-1.38l-0.61-1.83c-0.09-0.28-0.24-0.55-0.43-0.78l-2.06-2.83c-0.56-0.77-1.2-1.47-1.92-2.09l-2.9-2.52
	c-0.67-0.58-1.42-1.08-2.22-1.47l-2.48-1.95c-0.19-0.11-54.63-11.59-54.63-11.59c-0.22-0.05,1.99,1-1.04-0.4l0.52,0.4
	C51.94,68.49,48.3,66.94,47.88,66.63z"/>
<path class="st1" d="M102.86,42.07l2.47-2.19c0.74-0.66,1.62-1.15,2.56-1.45l1.06-0.33c0.95-0.3,1.94-0.45,2.93-0.45h1.28
	c1.14,0,2.26,0.23,3.31,0.66l0.15,0.06c0.8,0.33,1.55,0.77,2.23,1.31l1.34,1.06c0.76,0.6,1.44,1.32,1.99,2.12l0.33,0.47
	c0.8,1.15,1.33,2.47,1.56,3.86v0c0.26,1.58,0.14,3.19-0.35,4.71l0,0c-0.43,1.33-1.17,2.54-2.16,3.52l-0.02,0.02
	c-1.36,1.34-3.02,2.34-4.84,2.92l-3.04,0.96L102.86,42.07z"/>
<path class="st1" d="M71.53,32.91c-0.17,0.17-0.38-1.12-0.55-2.41c-0.21-1.62-0.84-3.15-1.84-4.45l-0.43-0.56
	c-0.84-1.09-1.93-1.96-3.17-2.53l0,0c-1.65-0.76-3.48-1.04-5.27-0.79l-1.12,0.16c-0.95,0.13-1.87,0.44-2.71,0.91l-1.39,0.78
	c-1.81,1.01-3.39,2.39-4.63,4.05l0,0c-0.69,0.92-1.06,2.03-1.06,3.18v1.91c0,0.71,0.1,1.41,0.29,2.1l0.33,1.14
	c0.34,1.2,1.01,2.29,1.92,3.14l2.2,2.05L71.53,32.91z"/>
<path class="st2" d="M104.78,38.91l-2.25-1.79c-1.46-1.16-3.07-2.14-4.77-2.89l-3.3-1.46c-1.75-0.77-3.58-1.37-5.45-1.79l-2.46-0.54
	c-1.66-0.37-3.35-0.55-5.05-0.55h-5.23c-1.03,0-2.06,0.07-3.08,0.2l-4,0.53c-2.08,0.27-4.12,0.84-6.04,1.67l-1.4,0.61
	c-1.65,0.72-3.2,1.64-4.61,2.75l-2.12,1.67c-0.77,0.61-1.47,1.3-2.08,2.06l-1.95,2.43c-1.13,1.42-2,3.03-2.57,4.75l-1.13,3.45
	c-0.31,0.95-0.5,1.93-0.57,2.93l-0.06,0.89c-0.11,1.64,0.04,3.29,0.44,4.88l0.4,1.61c0.74,2.96,2.06,5.75,3.88,8.21l0,0
	c1.32,1.77,2.87,3.35,4.61,4.71l0.44,0.34c2.59,2.01,5.39,3.72,8.36,5.11l0.62,0.29c1.52,0.71,3.07,1.33,4.65,1.88l1.83,0.63
	c2.75,0.95,5.6,1.59,8.5,1.93l4.15,0.48c2.35,0.27,4.71,0.32,7.07,0.15l3.45-0.25c0.69-0.05,1.37-0.14,2.04-0.28l3.84-0.8
	c0.96-0.2,1.89-0.53,2.76-0.99l4.27-2.24c0.87-0.45,1.66-1.04,2.34-1.74c0.67-0.68,1.54-1.58,2.21-2.31
	c0.82-0.9,1.48-1.92,1.97-3.03l1.01-2.28c0.95-2.15,1.52-4.46,1.68-6.81l0-0.07c0.17-2.58-0.11-5.17-0.83-7.66l-0.23-0.79
	c-0.49-1.71-1.2-3.34-2.11-4.86l-1.55-2.58c-0.99-1.66-2.19-3.18-3.57-4.54l-2.61-2.57C105.8,39.77,105.3,39.33,104.78,38.91z"/>
<path class="st3" d="M53.28,54.29l1.43,0.26c0.43,0.08,0.85,0.22,1.24,0.43l1.52,0.8c0.11,0.06,0.21,0.12,0.31,0.19l1.33,0.97
	c0.52,0.38,0.84,0.98,0.88,1.62l0,0c0.01,0.13-0.05,0.25-0.16,0.33l-0.42,0.31c-0.68,0.5-1.54,0.67-2.36,0.45l-1.92-0.52
	c-0.24-0.07-0.48-0.16-0.71-0.27l-2.32-1.17c-0.51-0.26-0.9-0.7-1.1-1.24l-0.03-0.07c-0.24-0.66,0.03-1.4,0.65-1.73l0.27-0.15
	C52.32,54.29,52.81,54.21,53.28,54.29z"/>
<path class="st3" d="M97.99,71.09l-0.88,0.1c-0.9,0.1-1.63,0.76-1.81,1.65c0,0,0,0.15,0.04,0.22l0.51,0.91
	c0.19,0.33,0.45,0.61,0.77,0.82l2.19,1.46c0.4,0.26,0.85,0.43,1.33,0.47l1.2,0.26c0.21,0.05,0.42,0.07,0.64,0.06
	c0.2-0.01,0.48-0.04,0.75-0.07c0.01,0,0.02,0,0.03,0c1.19-0.17,1.65-1.67,0.85-2.57c-0.37-0.41-0.76-0.86-0.76-0.86
	c-0.4-0.45-0.88-0.83-1.42-1.11l-1.67-0.87c-0.21-0.11-0.43-0.19-0.66-0.24L97.99,71.09z"/>
<path class="st1" d="M95.74,58.6l-1.35,0.35c-0.55,0.14-1.03,0.49-1.34,0.97l-0.4,0.62c-0.22,0.34-0.34,0.73-0.34,1.14v0.27
	c0,0.97,0.23,1.94,0.66,2.81l0.56,1.13l1.04,1.91c0.28,0.52,0.64,1,1.06,1.42l1.85,1.85c0.3,0.3,0.65,0.56,1.03,0.77l1.8,0.97
	c0.54,0.29,1.13,0.48,1.74,0.56l1.45,0.19c0.52,0.07,1.05-0.08,1.47-0.42l0,0c0.96-0.77,1.61-1.86,1.84-3.07l0.07-0.39
	c0.1-0.51,0.11-1.02,0.03-1.53l-0.26-1.78c-0.03-0.18-0.07-0.36-0.12-0.53l-0.27-0.92c-0.26-0.86-0.72-1.65-1.36-2.29l-1.09-1.09
	c-0.21-0.21-0.44-0.4-0.68-0.56l-1.77-1.18c-0.21-0.14-0.44-0.26-0.68-0.35l-1.85-0.73c-0.32-0.13-0.67-0.19-1.01-0.19h-1.43
	C96.19,58.52,95.96,58.55,95.74,58.6z"/>
<path class="st1" d="M57.69,45.96L57,46.3c-0.76,0.37-1.43,0.89-1.98,1.53l-0.61,0.7c-0.24,0.28-0.44,0.58-0.61,0.9l-0.3,0.57
	c-0.39,0.75-0.57,1.6-0.51,2.45v0c0.03,0.42,0.17,0.83,0.41,1.18l0.3,0.44c0.44,0.66,1.08,1.18,1.81,1.48l0.99,0.41
	c0.51,0.21,1.06,0.33,1.62,0.34l3.28,0.08c0.35,0.01,0.69-0.02,1.03-0.09l2.65-0.55c0.43-0.09,0.84-0.24,1.23-0.44l2.12-1.1
	c0.64-0.33,1.18-0.82,1.57-1.42l0.16-0.25c0.56-0.86,0.71-1.93,0.41-2.91l-0.05-0.18c-0.17-0.54-0.46-1.04-0.86-1.44l-0.74-0.74
	c-0.45-0.45-0.98-0.82-1.57-1.08l-1.34-0.59c-0.66-0.29-1.38-0.47-2.1-0.51l-1.17-0.07c-0.79-0.05-1.58,0.01-2.34,0.19L59,45.49
	C58.55,45.6,58.11,45.75,57.69,45.96z"/>
<path class="st4" d="M75.17,63.08l-0.46,0.15c-0.42,0.14-0.76,0.45-0.93,0.85l0,0c-0.23,0.52-0.16,1.13,0.18,1.58l0.3,0.4
	c0.22,0.3,0.51,0.53,0.85,0.68l0.81,0.36c0.29,0.13,0.6,0.19,0.92,0.19h0.23c0.63,0,1.21-0.31,1.56-0.83l0,0
	c0.17-0.26,0.26-0.56,0.26-0.86l0,0c0-0.68-0.32-1.33-0.86-1.74l-0.28-0.22c-0.16-0.12-0.35-0.22-0.54-0.29l-0.82-0.27
	C76,62.94,75.57,62.94,75.17,63.08z"/>
<path class="st5" d="M70.71,66.86l0.02,0.51c0.02,0.47,0.28,0.9,0.68,1.14l0,0c0.56,0.33,1.23,0.43,1.86,0.27l1.7-0.43l1.2-2.56
	l-1.2,2.56l0.03,0.3c0.12,1.04,0.8,1.94,1.77,2.33l0,0c0.35,0.14,0.73,0.13,1.07-0.03l1.05-0.5"/>
<circle class="st6" cx="67.54" cy="50.87" r="0.94"/>
<circle class="st6" cx="95.39" cy="61.84" r="0.94"/>
<path class="st0" d="M50.53,67.29l0.22,1.05c0.09,0.4,0.13,0.83,0.13,1.26c0.02,3.29-2.21,6.18-5.29,7.34l-3.33,1.25
	c-1.56,0.59-3.32,0.3-4.62-0.75l0,0l-2.7-2.91c-1.33-1.43-2.54-2.96-3.62-4.58l-0.91-1.36l3.59-2.55l8.24-3.26l0.95,0.65
	C45.47,65.01,47.93,66.3,50.53,67.29L50.53,67.29z"/>
<rect x="30.19" y="49.93" transform="matrix(-0.2701 -0.9628 0.9628 -0.2701 -10.0894 93.2493)" class="st7" width="0.22" height="1.05"/>
<rect x="30.11" y="56.7" transform="matrix(0.7071 0.7071 -0.7071 0.7071 49.3127 -4.6039)" class="st8" width="0.22" height="1.05"/>
<rect x="30.79" y="59.1" transform="matrix(0.9104 0.4136 -0.4136 0.9104 27.431 -7.4401)" class="st9" width="0.22" height="1.05"/>
<ellipse class="st10" cx="27.63" cy="49.27" rx="20.85" ry="21.4"/>
<path class="st11" d="M37.68,60.35l-0.82-0.27l0.09,1.22c0.19,2.57-2.9,4.01-4.75,2.22l-0.87-0.84l-0.25,1.07
	c-0.58,2.43-3.89,2.75-4.93,0.49l-0.47-1.03l-1.41,1.24c-1.77,1.56-4.55,0.21-4.42-2.15l0.07-1.31l-1.4,0.39
	c-2.39,0.67-4.31-2-2.91-4.05l0.29-0.42l-1.45-0.1c-2.54-0.18-3.6-3.34-1.68-5.01l0.4-0.35l-0.89-0.51
	c-2.13-1.24-1.74-4.43,0.63-5.11l1.17-0.34l-0.57-0.58c-1.62-1.64-0.33-4.4,1.97-4.21l0.87,0.07l-0.26-0.67
	c-0.9-2.29,1.43-4.51,3.68-3.51l0.82,0.37l-0.03-0.65c-0.09-2.19,2.61-3.29,4.07-1.66l0.38,0.42L25.46,34
	c0.92-2.19,3.98-2.31,5.06-0.2l0.61,1.19l0.5-0.5c1.57-1.57,4.25-0.4,4.17,1.81l-0.04,1.14l0.52-0.24c2.24-1.04,4.61,1.18,3.71,3.48
	l-0.31,0.79l0.59-0.14c1.97-0.48,3.4,1.85,2.07,3.38l-1.01,1.17l0.7,0.07c2.18,0.22,2.84,3.09,0.97,4.24l-1.16,0.72l0,0
	c2.14,0.88,1.92,3.98-0.33,4.54l-1.16,0.29l0.41,0.65C42.09,58.5,40.05,61.12,37.68,60.35z"/>
<rect x="21.46" y="38.75" transform="matrix(0.7071 0.7071 -0.7071 0.7071 34.7138 -3.625)" class="st7" width="0.55" height="2.67"/>
<rect x="28.36" y="52.45" transform="matrix(-1 -1.224647e-16 1.224647e-16 -1 57.3062 107.7919)" class="st7" width="0.6" height="2.89"/>
<rect x="31.26" y="56.94" transform="matrix(0.2321 0.9727 -0.9727 0.2321 80.8722 14.0626)" class="st12" width="0.54" height="2.64"/>
<rect x="30.31" y="41.32" transform="matrix(0.664 -0.7478 0.7478 0.664 -21.5691 37.1684)" class="st9" width="0.52" height="2.53"/>
<rect x="17.69" y="45.65" transform="matrix(-0.0645 -0.9979 0.9979 -0.0645 -27.7196 67.8781)" class="st8" width="0.53" height="2.56"/>
<rect x="22.51" y="53.88" transform="matrix(-0.4136 0.9104 -0.9104 -0.4136 82.2868 57.1234)" class="st8" width="0.48" height="2.35"/>
<rect x="16.91" y="50.66" transform="matrix(0.93 0.3677 -0.3677 0.93 20.3112 -2.6769)" class="st9" width="0.54" height="2.62"/>
<rect x="23.37" y="48.05" transform="matrix(-0.9659 0.2588 -0.2588 -0.9659 59.3175 91.1171)" class="st13" width="0.58" height="2.82"/>
<rect x="28.97" y="36.24" transform="matrix(0.1838 -0.983 0.983 0.1838 -13.2973 59.6977)" class="st13" width="0.67" height="3.24"/>
<rect x="25.15" y="58.54" transform="matrix(0.768 -0.6405 0.6405 0.768 -32.4213 30.1591)" class="st13" width="0.53" height="2.56"/>
<rect x="33.71" y="46.35" transform="matrix(0.0645 0.9979 -0.9979 0.0645 79.4021 10.7041)" class="st13" width="0.56" height="2.71"/>
<rect x="29.66" y="48.27" transform="matrix(-0.2262 0.9741 -0.9741 -0.2262 85.0916 31.7206)" class="st12" width="0.57" height="2.77"/>
<rect x="24.49" y="42.52" transform="matrix(-0.7071 0.7071 -0.7071 -0.7071 73.2165 57.2398)" class="st12" width="0.52" height="2.53"/>
<rect x="35.73" y="41.6" transform="matrix(0.4136 -0.9104 0.9104 0.4136 -18.1418 58.1191)" class="st8" width="0.64" height="3.09"/>
<rect x="35.88" y="51.82" transform="matrix(0.93 0.3677 -0.3677 0.93 22.033 -9.5704)" class="st9" width="0.5" height="2.45"/>
<path class="st0" d="M95.39,94.24l2.04,4.66c0.37,0.84,0.66,1.71,0.88,2.6l1.09,4.47c0.16,0.67,0.25,1.36,0.25,2.06v2.65
	c0,1.84-0.43,3.65-1.27,5.3l-2.04,4.03l4.13-1.77c2.75-2.36,4.66-5.56,5.43-9.1l-0.28-0.52c0.19-0.85,0.23-1.73,0.12-2.6l-0.13-1.1
	c-0.11-0.89-0.29-1.76-0.54-2.62l-0.79-2.69c-0.15-0.51-0.33-1.01-0.54-1.5l-1.76-4.06l-0.66-1.47L95.39,94.24z"/>
<path class="st0" d="M91.59,84.04l2.02,5.43l1.77,4.77l5.91-1.69l3.61,2.71l4.84,2.43l3.94,1.29l3.52,0.12l1.9-1.45l1.16-2.76
	l-0.35-1.71c-0.2-0.99-0.61-1.93-1.18-2.76l-1.26-1.83c-0.24-0.35-0.51-0.68-0.79-0.99l-1.1-1.19c-0.26-0.28-0.53-0.55-0.82-0.8
	l-2.03-1.77c-0.29-0.25-0.59-0.48-0.91-0.69l-1.74-1.15l-2.47-1.95c0,0,0-0.01,0-0.01l3.87-3.64c0.68-0.64,1.28-1.35,1.79-2.13
	l0.62-0.95c0.39-0.6,0.73-1.24,1.01-1.91l1.24-2.95l0.53-2.15c0.19-0.78,0.3-1.57,0.32-2.37l0.08-2.73c0.03-0.96-0.1-1.91-0.38-2.83
	v0l2.02-0.91c0.36-0.16,0.69-0.36,1-0.6v0c1.22-0.95,2.26-2.11,3.07-3.42l0.94-1.53l0.01-0.05c0.31-1.29,0.44-2.61,0.37-3.93
	l-0.04-0.73l-2.47,3.04c-0.34,0.42-0.73,0.79-1.15,1.12l0,0c-1.41,1.09-3.15,1.68-4.93,1.68h0l-0.34,5.81
	c-0.12,1.99-0.44,3.96-0.96,5.88l-0.69,2.55l-0.04,0.09c-1.17,2.46-2.72,4.72-4.6,6.69h0l-3.81,2.67c-0.08,0.05-0.15,0.11-0.22,0.17
	l-0.64,0.54c-1.15,0.98-2.37,1.9-3.63,2.74l0,0c-0.63,0.42-1.31,0.78-2.02,1.06L91.59,84.04L91.59,84.04z"/>
</svg>
