<?xml version="1.0" encoding="utf-8"?>
<!-- Generator: Adobe Illustrator 23.1.0, SVG Export Plug-In . SVG Version: 6.00 Build 0)  -->
<svg version="1.1" id="Layer_1" xmlns="http://www.w3.org/2000/svg" xmlns:xlink="http://www.w3.org/1999/xlink" x="0px" y="0px"
	 viewBox="0 0 360 360" style="enable-background:new 0 0 360 360;" xml:space="preserve">
<style type="text/css">
	.st0{fill:#00E0C5;}
	.st1{fill:#A5A5A5;}
	.st2{fill:#E08433;}
</style>
<g>
	<g>
		<path class="st0" d="M115.2,194.7c-0.1-0.3-6.1,6.3-7.7,8c-0.2,0.3-0.4,0.5-0.6,0.9c-5,9.3-27.5,51.8-28.1,56.5
			c-0.3,2.7-0.5,5.8-0.5,6.5c0,0,0.1,0,0.1,0l1.6-6.5c0.2-0.7,1.4-3.4,1.7-4c1.6-3.2,6.6-13.6,7.9-16.4c1.4-2.9,14.6-26.6,17.8-33.7
			c0.8-1.7,1.7-3.3,2.9-4.8L115.2,194.7z"/>
		<path class="st0" d="M224.3,223.3c-2.3-2.1,22.3,21,25.9,24c0.1,0.1,5.2,4.9,6.3,4.8c1.2-0.2-37.9-36.3-41.6-39.5
			c-4.2-3.6-19.9-12.7-20.9-11.5c0,0,2.9,1.5,3.1,1.6l8.7,5.3C213.9,213.5,213.2,213.6,224.3,223.3z"/>
		<path class="st1" d="M226.4,116c0-0.1,0.1-0.5,0.1-0.4c0,1.5-0.3,7.4-1.9,12.5c-1.9,5.9-9.3,22.3-12.7,28.7
			c-3,5.6-15.2,23.2-17.9,27.5c-2.4,3.8-11,14-12,15c-1,1.1,7.4-12.5,9.1-15.5c1.8-3.2,16.5-26.2,18.2-29
			c1.7-2.8,9.8-19.5,11.2-23.4C221.9,128,225.6,118.2,226.4,116z"/>
		<path class="st1" d="M182.3,209C182.3,209,182.3,209,182.3,209c0.2,0.7,0.9,6.4,0.8,9.1c-0.1,2.4-1.1,12.2-2.4,17.1
			c-2.1,8.1-10.5,27.9-11.7,30.8c-1.2,2.8,5.9-17.6,5.2-15.5c0,0.1,1.7-5.2,3.1-11.4c1.8-7.9,3.5-17.2,3.7-19.2
			C181.5,216.6,182.2,210.2,182.3,209z"/>
		<path class="st1" d="M129.4,185.2c0-0.2-0.1-0.1-0.1,0.1c-0.4,2.5,0,8.9,0,12.1c0,4.3,2.2,18.3,3,21.4c0.8,2.8,6.1,20.8,8.7,26.1
			c2.6,5.2,14.5,16.5,17.1,18.7c2.6,2.2-11.7-13-14.9-19.6c-3.4-7-4.9-14.1-5.8-16.7c-1.6-4.4-3.5-12.7-4.3-17.4
			C132.7,207.1,130.3,189.9,129.4,185.2z"/>
		<path class="st1" d="M161.3,96.9c0,0,0-0.3,0-0.3c-1.3,1.1-16.7,16.3-19.6,19.9c-3.1,3.8-18.4,29.9-19.8,35.6
			c-1.2,4.5-2.9,24.1-2.4,28.2c0.4,3.1,0.7,4.9,0.9,5.6c0,0.1,0.1,0.1,0.1,0c0.2-3.1,2-26.5,3.3-32c1.4-5.9,10.3-20.6,12.4-23.9
			c2.3-3.4,5.2-8.8,7.4-12.4C145.7,114.1,159.8,98,161.3,96.9z"/>
		<path class="st1" d="M257.4,68c0.3,0.2,0.1-0.2-0.1-0.4c-3.1-3.4-11.2-11.7-16.9-12.4c-7.2-1-22-0.2-29.2,4.3
			c-5.3,3.3-10.9,8.2-13.6,10.6c-0.2,0.2-0.4,0.4-0.2,0.3c2.4-1.5,7.1-4.6,10.2-6.6c4.5-2.9,9.2-5,14-6c4.8-1,16.5-1.6,19.5-0.6
			c3.7,1.3,8.7,4.8,10.8,6.6C253,64.7,256.1,67.2,257.4,68z"/>
		<path class="st1" d="M259.6,88.9c0.2-0.1,0.4,0.1,0.2,0.3c-2.1,2.3-5.7,6.4-7.4,7.9c-2.1,1.8-9.5,7.9-11.1,8.9
			c-0.7,0.4-6.9,3.7-7.9,3.8c-1.1,0,0.3-0.5,1.6-1.2c3.6-1.9,10.5-7.6,12.6-9.5C250.2,96.8,256.5,91.6,259.6,88.9z"/>
		<path class="st1" d="M191.2,77C191.2,77,191.2,77,191.2,77c-0.5-0.1-5.4-0.7-9-1c-3.4-0.2-9.3,1.4-10.7,1.8c0,0,0,0.1,0,0.1
			L191.2,77z"/>
		<path class="st1" d="M164.2,73.1c0,0-70.1-51.4-73.6-52.5c-3.5-1-3.8-5.6-49.1-8.9s-8.6,20.1-8.6,20.1s-11-9.9-10.7-14.4
			c0.3-4.6,10.6-3.1,10.6-3.1s27.3,1.3,30.3,1.9c3.1,0.5,14.3,1.6,19.3,3.7c5.1,2.2,14.8,8.3,18.9,11.1c4.1,2.8,32.6,22,35.8,24.7
			C140.3,58.4,164.2,73.1,164.2,73.1z"/>
		<path class="st1" d="M164.3,73.2c0,0-79.5-35.2-83.2-35.5c-3.6-0.3-4.9-4.7-49.9,1.8s-4.1,21.5-4.1,21.5s-12.8-7.3-13.5-11.8
			s9.7-5.3,9.7-5.3s26.9-4.5,30-4.7c3.1-0.1,14.3-1.5,19.7-0.5s16.3,5,20.8,6.8c4.6,1.8,36.5,14.5,40.2,16.5
			C137.9,63.9,164.3,73.2,164.3,73.2z"/>
		<path class="st1" d="M159.7,79.9c0,0-84.6-20-88.3-19.6c-3.6,0.4-5.7-3.7-48.7,11s-0.1,21.9-0.1,21.9S8.7,88.4,7.2,84s8.6-7,8.6-7
			s25.6-9.4,28.6-10.1s13.7-4.1,19.3-4.1s16.9,1.9,21.7,2.9s38.6,7.5,42.6,8.8C132,75.7,159.7,79.9,159.7,79.9z"/>
		<path class="st1" d="M160.1,80c0,0-87-0.4-90.4,0.8s-6.4-2.3-45,21.7s4.9,21.3,4.9,21.3s-14.7-1.5-17.1-5.4
			c-2.5-3.9,6.8-8.7,6.8-8.7S42,94.8,44.8,93.4s12.5-7.1,17.8-8.4s16.9-2,21.8-2.1c4.9-0.1,39.3-1.3,43.5-1.1
			C132.2,82.2,160.1,80,160.1,80z"/>
		<path class="st1" d="M162.9,86.5c0,0-85.4,18.7-88.5,20.7c-3.1,1.9-6.7-0.9-39.1,31s9.4,19.7,9.4,19.7s-14.6,1.7-17.9-1.5
			c-3.3-3.2,4.7-10,4.7-10s19-19.6,21.4-21.5c2.4-2,10.6-9.7,15.6-12.1c5-2.4,16.1-5.6,20.8-6.9c4.8-1.2,38-9.9,42.2-10.6
			C135.7,94.7,162.9,86.5,162.9,86.5z"/>
		<path class="st1" d="M163.4,86.3c0,0-77.3,39.9-79.8,42.6c-2.5,2.7-6.7,0.9-29.8,40S68,185.6,68,185.6s-13.7,5.4-17.7,3.1
			s2-10.9,2-10.9s13.3-23.8,15.2-26.3c1.8-2.5,7.8-12.1,11.9-15.7s14.1-9.6,18.4-12c4.3-2.4,34.2-19.4,38-21
			C139.6,101.1,163.4,86.3,163.4,86.3z"/>
		<path class="st2" d="M265.1,73.6c0,0,43.5-0.3,53.1,0c9.6,0.3,35.1,1.5,36.6,1.9c1.4,0.5,1.7,3.1,1.7,3.1l-2.4-0.9
			c-0.4-0.2-0.9-0.3-1.4-0.3c-4.3-0.3-27.2-1.7-33-1.9c-6.5-0.2-42.7,0.1-45.4,0c-2.2-0.1-7-0.8-8.6-0.9c-0.3,0-0.5-0.3-0.5-0.5
			V73.6z"/>
		<path class="st2" d="M266.3,81.5c-0.2,0.2-0.2,0.2,0.1,0.2c2.1-0.6,3.6-1,8.2-1.3c4.9-0.4,8.2-0.3,9.2-0.3c0.9,0,62.4,1,62.4,1
			c0.4,0,0.8,0,1.2-0.1l5.9-0.8c0,0,0,0,0,0c-2,0-13-0.7-26.3-0.9c-10.8-0.2-23.1-0.4-33.5-0.6c-12.3-0.2-21.8,0.1-22.3,0.1
			C270.3,78.6,267.5,80.6,266.3,81.5z"/>
		<path class="st0" d="M250.8,92.4c0,0-6.4,5.6-8.3,6.9c-2,1.4-11,7.9-12.6,8.6c-1.5,0.7-6.8-0.1-10-2.1c-3.2-2-10.5-8-16.3-14.4
			c-2.1-2.3-4-6.1-5.1-9c-0.2-0.4,6.8,4,13,5.8c7,2,15.3,2.6,19,2.8C234.1,91.2,250.8,92.4,250.8,92.4z"/>
		<path class="st0" d="M78,275.8c0-0.2-0.4,2.7-0.1,5.5c0.3,2.6,1.4,5.6,2.2,7.1c1.6,3.2,5.4,8.6,9.2,10.6c3.9,2.1,9.6,2.1,11.6,1.3
			c3.3-1.4,4.3-4.4,4.7-6.1c0.4-1.5,0.5-3.3,0.6-3.7c0,0,0,0,0,0c-0.3,0.8-2.6,5.9-4.1,7.1c-2.2,1.8-5.7,1.9-9,1.1
			s-8.8-5.4-11.3-10.4c-2.8-5.5-1.7-3.5-2.5-5.5C78.8,281.2,78,275.8,78,275.8z"/>
		<path class="st0" d="M112.6,296.8C112.6,296.8,112.5,296.8,112.6,296.8c0.1,0.9,0.9,7.7,2.1,11.1c1.2,3.5,4.9,10.3,8.9,12.3
			c4.7,2.4,8.8,2.6,11.8,1.2c2.4-1.1,4.1-4.4,4.5-6.2c0.3-1.6,0.6-3.4,0.6-3.9c0,0,0,0,0,0c-0.3,0.8-2.7,6.3-4.2,7.4
			c-1.6,1.3-4.2,2.1-7.4,1.5c-3.4-0.6-8-3.1-10.7-8.3c-2.7-5.2-4-10.4-4.4-11.9C113.3,298.8,112.8,297.1,112.6,296.8z"/>
		<path class="st0" d="M148.1,314.6c0-0.1-0.1,0-0.1,0c0.2,1.6,0.7,9.1,2.1,12c1.5,3.4,7.8,8.9,11.7,10.8s8.5,0.7,9.7-0.1
			c1.5-1,3.2-3.2,3.8-4.7c0.5-1.4,1.1-3.6,1.1-4.1c0,0,0,0-0.1,0c-0.4,1-3.1,6-4.6,7.1c-1.6,1.2-2.9,1.8-6.2,1.1
			c-6-1.4-11.7-7.2-13.2-9.6c-1.3-2.2-2.9-7.3-3.2-8.6C148.8,317.3,148.5,315.2,148.1,314.6z"/>
		<path class="st0" d="M263.3,261.4c0-0.1,1,1.3,1,1.3c1,2,3.9,5.7,5.3,11.3c1.5,5.7,0.8,12.3-1.8,16.3c-2.4,3.7-5.6,5.1-7.2,5.3
			c-1.4,0.2-5.8-1.2-7.3-2.1c-1.1-0.7-1.6-1.2-2.1-1.7c-0.1-0.1,0-0.2,0.1-0.1c1.4,0.7,5.7,2.2,7.4,2.1c2-0.1,3.8-0.3,5.8-3
			s3.5-8.6,3-14.1C267.2,271.3,263.8,263.2,263.3,261.4z"/>
		<path class="st0" d="M246.1,299.4C246.1,299.4,246.1,299.4,246.1,299.4c0.6,0.6,1.8,7.7,1.7,11.2c-0.1,3.3-2,8.6-5.1,12.3
			c-2.9,3.4-8.3,6-10.4,5.9c-2.2-0.1-5.8-3-6.8-4.3c-0.8-1.1-1-2-1.3-2.6c0-0.1,0-0.1,0.1-0.1c0.9,1,4.9,3.7,6.5,4.2
			c1.9,0.6,3.3,0.6,6.2-1.2c2.9-1.9,7.2-6.3,8.2-11.8c1-5.6,0.7-8.8,0.7-10.3C246,301.3,246.1,299.9,246.1,299.4z"/>
		<path class="st0" d="M217.5,324C217.5,324,217.6,324,217.5,324c0,1-1.1,9.5-2.2,12.6c-1.2,3.3-5.5,9.2-9.6,11
			c-3.9,1.7-8.2,0.8-9.5,0.4c-1.4-0.4-5-3-6.3-5c-1-1.6-3.9-7.5-5.4-12.2c-0.1-0.2,6.8,11.1,8,12.1c1.5,1.3,5.7,3.6,9.1,3.4
			c3.6-0.2,7-2.1,10-6.8c3-4.7,3.5-7.1,4.3-9.5C216.9,327.1,217.4,324.5,217.5,324z"/>
	</g>
</g>
</svg>
