<?xml version="1.0" encoding="utf-8"?>
<!-- Generator: Adobe Illustrator 23.1.0, SVG Export Plug-In . SVG Version: 6.00 Build 0)  -->
<svg version="1.1" id="Layer_1" xmlns="http://www.w3.org/2000/svg" xmlns:xlink="http://www.w3.org/1999/xlink" x="0px" y="0px"
	 viewBox="0 0 1080 1080" style="enable-background:new 0 0 1080 1080;" xml:space="preserve">
<style type="text/css">
	.st0{fill:#00E0C5;}
	.st1{fill:#A5A5A5;}
	.st2{fill:#E08433;}
	.st3{fill:#FFFFFF;}
</style>
<g>
	<g>
		<g>
			<path class="st0" d="M224.4,185.5c-0.1-0.2-5.4,5.5-6.7,7c-0.2,0.2-0.4,0.5-0.5,0.8c-4.4,8.1-24.1,45.3-24.6,49.4
				c-0.3,2.4-0.5,5-0.4,5.7c0,0,0,0,0.1,0l1.4-5.6c0.1-0.6,1.2-2.9,1.5-3.5c1.4-2.8,5.8-11.9,6.9-14.4c1.2-2.6,12.8-23.2,15.5-29.5
				c0.7-1.5,1.5-2.9,2.5-4.2L224.4,185.5z"/>
			<path class="st0" d="M319.8,210.6c-2-1.8,19.5,18.4,22.6,21c0.1,0.1,4.6,4.3,5.5,4.2c1.1-0.1-33.1-31.7-36.4-34.5
				c-3.7-3.1-17.4-11.1-18.3-10c0,0,2.6,1.3,2.7,1.4l7.6,4.7C310.7,202,310.1,202.1,319.8,210.6z"/>
			<path class="st1" d="M321.6,116.7c0-0.1,0.1-0.5,0.1-0.4c0,1.3-0.2,6.5-1.7,10.9c-1.7,5.2-8.1,19.5-11.1,25.1
				c-2.6,4.9-13.3,20.3-15.7,24c-2.1,3.3-9.6,12.2-10.5,13.2c-0.8,1,6.5-11,7.9-13.6c1.6-2.8,14.4-22.9,15.9-25.4
				c1.5-2.5,8.6-17.1,9.8-20.4C317.6,127.2,320.9,118.6,321.6,116.7z"/>
			<path class="st1" d="M283.1,198.1C283.1,198,283.1,198,283.1,198.1c0.1,0.6,0.8,5.6,0.7,7.9c-0.1,2.1-1,10.7-2.1,15
				c-1.9,7-9.2,24.4-10.2,26.9c-1,2.5,5.2-15.4,4.5-13.5c0,0.1,1.5-4.5,2.7-10c1.6-6.9,3-15.1,3.3-16.8
				C282.4,204.7,282.9,199.1,283.1,198.1z"/>
			<path class="st1" d="M236.8,177.2c0-0.2-0.1-0.1-0.1,0c-0.4,2.2,0,7.8,0,10.6c0,3.8,1.9,16,2.6,18.7c0.7,2.4,5.3,18.2,7.6,22.8
				c2.3,4.6,12.7,14.5,15,16.3c2.3,1.9-10.2-11.4-13-17.2c-2.9-6.1-4.2-12.4-5-14.6c-1.4-3.9-3-11.1-3.8-15.3
				C239.7,196.4,237.5,181.3,236.8,177.2z"/>
			<path class="st1" d="M264.7,99.9c0,0,0-0.3,0-0.3c-1.1,1-14.6,14.2-17.1,17.4c-2.7,3.3-16.1,26.1-17.4,31.2
				c-1,4-2.5,21.1-2.1,24.7c0.3,2.7,0.6,4.3,0.8,4.9c0,0.1,0.1,0,0.1,0c0.2-2.7,1.7-23.2,2.9-28c1.3-5.2,9-18,10.9-20.9
				c2-3,4.6-7.7,6.5-10.9C251,115.1,263.4,100.9,264.7,99.9z"/>
			<path class="st1" d="M348.7,74.7c0.2,0.2,0.1-0.2-0.1-0.4c-2.7-3-9.8-10.2-14.8-10.9c-6.3-0.8-19.2-0.2-25.5,3.8
				c-4.6,2.9-9.6,7.2-11.9,9.3c-0.1,0.1-0.4,0.4-0.2,0.3c2.1-1.3,6.2-4,8.9-5.7c3.9-2.5,8.1-4.4,12.2-5.2c4.2-0.8,14.5-1.4,17-0.5
				c3.2,1.1,7.6,4.2,9.4,5.7C344.9,71.8,347.6,74,348.7,74.7z"/>
			<path class="st1" d="M350.7,93c0.1-0.1,0.3,0.1,0.2,0.2c-1.8,2-5,5.6-6.4,6.9c-1.8,1.6-8.3,6.9-9.7,7.8c-0.6,0.4-6,3.3-6.9,3.3
				c-0.9,0,0.3-0.5,1.4-1c3.2-1.6,9.2-6.6,11-8.3C342.5,99.9,347.9,95.3,350.7,93z"/>
			<path class="st1" d="M290.8,82.6C290.8,82.6,290.8,82.6,290.8,82.6c-0.4-0.1-4.7-0.6-7.9-0.8c-3-0.2-8.1,1.2-9.4,1.6
				c0,0,0,0.1,0,0.1L290.8,82.6z"/>
			<path class="st1" d="M267.2,79.2c0,0-61.3-45-64.4-45.9c-3.1-0.9-3.3-4.9-43-7.8s-7.5,17.6-7.5,17.6s-9.6-8.6-9.3-12.6
				s9.3-2.7,9.3-2.7s23.8,1.2,26.5,1.6s12.5,1.4,16.9,3.3c4.4,1.9,13,7.3,16.5,9.7c3.6,2.4,28.5,19.2,31.3,21.6
				C246.3,66.3,267.2,79.2,267.2,79.2z"/>
			<path class="st1" d="M267.3,79.2c0,0-69.5-30.8-72.7-31.1c-3.2-0.2-4.3-4.1-43.6,1.6s-3.6,18.8-3.6,18.8s-11.2-6.4-11.8-10.3
				s8.5-4.6,8.5-4.6s23.5-4,26.3-4.1c2.7-0.1,12.5-1.3,17.2-0.4c4.7,0.9,14.2,4.4,18.2,6c4,1.6,31.9,12.7,35.2,14.4
				C244.2,71.1,267.3,79.2,267.3,79.2z"/>
			<path class="st1" d="M263.3,85.1c0,0-74-17.5-77.2-17.1c-3.2,0.4-5-3.2-42.6,9.6s-0.1,19.1-0.1,19.1s-12.2-4.2-13.5-8
				c-1.3-3.8,7.5-6.1,7.5-6.1s22.4-8.2,25.1-8.8c2.7-0.6,12-3.6,16.8-3.6c4.8,0,14.8,1.7,19,2.5c4.2,0.9,33.7,6.6,37.2,7.7
				C239.1,81.4,263.3,85.1,263.3,85.1z"/>
			<path class="st1" d="M263.6,85.2c0,0-76.1-0.3-79.1,0.7c-3,1.1-5.6-2-39.3,19s4.2,18.6,4.2,18.6s-12.8-1.3-15-4.7
				c-2.2-3.4,5.9-7.6,5.9-7.6s20-13.1,22.4-14.3c2.4-1.2,10.9-6.2,15.6-7.3c4.7-1.1,14.8-1.7,19.1-1.8c4.3-0.1,34.3-1.2,38-0.9
				C239.2,87.1,263.6,85.2,263.6,85.2z"/>
			<path class="st1" d="M266.1,90.9c0,0-74.7,16.4-77.4,18.1c-2.7,1.7-5.9-0.8-34.2,27.1s8.2,17.2,8.2,17.2s-12.8,1.5-15.6-1.3
				c-2.8-2.8,4.1-8.8,4.1-8.8s16.6-17.1,18.7-18.8c2.1-1.7,9.3-8.5,13.6-10.6c4.3-2.1,14-4.9,18.2-6c4.2-1.1,33.2-8.7,36.9-9.2
				S266.1,90.9,266.1,90.9z"/>
			<path class="st1" d="M266.5,90.7c0,0-67.6,34.9-69.8,37.2c-2.2,2.3-5.9,0.8-26.1,35s12.4,14.5,12.4,14.5s-12,4.7-15.5,2.7
				c-3.5-2,1.7-9.5,1.7-9.5s11.7-20.8,13.3-23c1.6-2.2,6.8-10.6,10.4-13.7c3.7-3.1,12.3-8.4,16.1-10.5s29.9-16.9,33.3-18.4
				S266.5,90.7,266.5,90.7z"/>
			<path class="st2" d="M355.4,79.6c0,0,38.1-0.2,46.4,0c8.4,0.2,30.7,1.3,32,1.7c1.3,0.4,1.5,2.7,1.5,2.7l-2.1-0.8
				c-0.4-0.1-0.8-0.2-1.2-0.3c-3.8-0.2-23.8-1.4-28.9-1.6c-5.6-0.2-37.4,0.1-39.7,0c-1.9-0.1-6.1-0.7-7.5-0.8
				c-0.2,0-0.4-0.2-0.4-0.5V79.6z"/>
			<path class="st2" d="M356.5,86.5c-0.2,0.1-0.2,0.2,0.1,0.1c1.8-0.5,3.2-0.9,7.2-1.2c4.3-0.3,7.1-0.3,8.1-0.3
				c0.8,0,54.6,0.9,54.6,0.9c0.4,0,0.7,0,1.1-0.1l5.2-0.7c0,0,0,0,0,0c-1.7,0-11.3-0.6-23-0.8c-9.4-0.2-20.2-0.4-29.3-0.5
				c-10.8-0.2-19,0.1-19.5,0.1C360,84,357.6,85.7,356.5,86.5z"/>
			<path class="st0" d="M343,96c0,0-5.6,4.9-7.3,6c-1.8,1.2-9.6,6.9-11,7.5c-1.3,0.6-6-0.1-8.7-1.9c-2.8-1.8-9.2-7-14.3-12.6
				c-1.8-2-3.5-5.4-4.5-7.9c-0.2-0.4,6,3.5,11.4,5.1c6.1,1.8,13.4,2.2,16.7,2.5C328.4,95,343,96,343,96z"/>
			<path class="st0" d="M191.8,256.4c0-0.2-0.3,2.4,0,4.8c0.3,2.3,1.2,4.9,1.9,6.2c1.4,2.8,4.7,7.5,8.1,9.3
				c3.4,1.8,8.4,1.9,10.1,1.1c2.9-1.3,3.7-3.8,4.1-5.3c0.3-1.3,0.5-2.9,0.5-3.2c0,0,0,0,0,0c-0.3,0.7-2.3,5.1-3.6,6.2
				c-1.9,1.6-5,1.6-7.9,0.9c-2.9-0.7-7.7-4.7-9.9-9.1c-2.4-4.9-1.5-3.1-2.2-4.9C192.5,261.2,191.8,256.4,191.8,256.4z"/>
			<path class="st0" d="M222.1,274.8C222,274.8,222,274.8,222.1,274.8c0.1,0.8,0.8,6.7,1.8,9.7c1,3,4.3,9,7.7,10.8
				c4.1,2.1,7.7,2.3,10.4,1.1c2.1-0.9,3.6-3.9,3.9-5.4c0.3-1.4,0.5-3,0.6-3.4c0,0,0,0,0,0c-0.3,0.7-2.3,5.5-3.6,6.5
				c-1.4,1.1-3.7,1.8-6.5,1.3c-3-0.5-7-2.7-9.3-7.2s-3.5-9.1-3.9-10.4C222.7,276.5,222.2,275.1,222.1,274.8z"/>
			<path class="st0" d="M253.2,290.4C253.1,290.3,253.1,290.4,253.2,290.4c0.1,1.4,0.6,8,1.7,10.5c1.3,2.9,6.8,7.8,10.3,9.5
				s7.4,0.6,8.5-0.1c1.3-0.9,2.8-2.8,3.3-4.1c0.4-1.2,1-3.1,1-3.6c0,0,0,0-0.1,0c-0.4,0.8-2.7,5.2-4,6.2c-1.4,1.1-2.5,1.6-5.4,0.9
				c-5.2-1.2-10.2-6.3-11.5-8.4c-1.1-1.9-2.5-6.4-2.8-7.5C253.7,292.7,253.5,290.9,253.2,290.4z"/>
			<path class="st0" d="M353.9,243.8c0-0.1,0.9,1.1,0.9,1.2c0.9,1.7,3.4,5,4.7,9.9c1.3,5,0.7,10.7-1.5,14.2
				c-2.1,3.3-4.9,4.5-6.3,4.6c-1.2,0.2-5.1-1-6.4-1.9c-1-0.6-1.4-1-1.9-1.5c-0.1-0.1,0-0.1,0.1-0.1c1.2,0.6,5,1.9,6.5,1.9
				c1.8-0.1,3.3-0.2,5.1-2.7c1.8-2.4,3-7.5,2.6-12.3C357.3,252.5,354.3,245.4,353.9,243.8z"/>
			<path class="st0" d="M338.8,277.1C338.8,277.1,338.9,277.1,338.8,277.1c0.5,0.5,1.6,6.8,1.5,9.8c-0.1,2.9-1.7,7.5-4.5,10.8
				c-2.5,2.9-7.2,5.2-9.1,5.2c-1.9-0.1-5.1-2.6-5.9-3.8c-0.7-1-0.9-1.7-1.1-2.3c0-0.1,0-0.1,0.1-0.1c0.8,0.9,4.3,3.2,5.7,3.7
				c1.7,0.5,2.9,0.6,5.4-1.1c2.5-1.6,6.3-5.5,7.2-10.3c0.9-4.9,0.6-7.7,0.6-9C338.7,278.8,338.8,277.5,338.8,277.1z"/>
			<path class="st0" d="M313.9,298.6C313.9,298.6,313.9,298.6,313.9,298.6c0,0.9-0.9,8.3-1.9,11c-1.1,2.9-4.8,8.1-8.4,9.6
				c-3.4,1.4-7.1,0.7-8.3,0.3c-1.2-0.3-4.4-2.6-5.5-4.4c-0.9-1.4-3.4-6.6-4.7-10.7c-0.1-0.2,5.9,9.7,7,10.6c1.3,1.1,4.9,3.1,8,3
				c3.1-0.2,6.1-1.8,8.8-5.9c2.6-4.1,3-6.2,3.8-8.3C313.3,301.3,313.7,299.1,313.9,298.6z"/>
		</g>
		<g>
			<g>
				<path class="st2" d="M392,121.9c0,0.2-0.2,0.7-0.5,1.5c-0.3,0.8-0.7,1.8-1.1,3c-0.4,1.2-0.9,2.5-1.4,3.8c-0.5,1.3-1,2.6-1.4,3.8
					c-0.8,2.3-1.6,4.5-2.3,6.7c-0.7,2.2-1.5,4.5-2.2,6.8c-0.8,2.3-1.5,4.7-2.3,7.2c-0.8,2.5-1.6,5.2-2.4,8c-0.7,2.3-1.3,4.5-1.9,6.8
					c-0.6,2.2-1.1,4.3-1.6,6.2s-0.9,3.5-1.3,4.9c-0.4,1.4-0.7,2.3-1,2.8c-1.5,2.6-3,4.6-4.5,6c-0.7,0.6-1.4,0.9-2.2,0.9
					c-0.7,0-1.3-0.3-1.7-1c-0.4-0.7-0.9-1.8-1.2-3.2c-0.2-0.6-0.4-1.7-0.7-3.3c-0.3-1.6-0.6-3.4-0.9-5.4c-0.3-2-0.6-4.2-1-6.5
					c-0.3-2.3-0.6-4.5-0.9-6.6c-0.4-3-0.7-5.9-1.1-8.6c-0.3-2.7-0.7-5.3-0.9-7.8c-0.3-2.5-0.6-4.9-0.9-7.4c-0.3-2.4-0.6-4.9-0.9-7.5
					c-0.2,0.6-0.6,1.8-1.3,3.7c-0.7,1.9-1.5,4.1-2.4,6.8c-0.9,2.7-1.9,5.7-2.9,9c-1,3.3-2,6.7-3,10.2c-0.9,3.4-1.7,6.3-2.4,8.9
					c-0.7,2.6-1.3,4.7-1.7,6.5c-0.6,2.1-1,3.9-1.3,5.3c-0.3,0.9-0.6,1.6-0.8,2.2c-0.2,0.6-0.8,1.2-1.8,2c-0.3,0.2-0.8,0.5-1.5,0.8
					c-0.7,0.3-1.4,0.5-2,0.5c-0.4,0-0.7-0.3-0.7-0.9c0-0.3,0.1-0.8,0.3-1.5c0.2-0.7,0.4-1.3,0.6-1.9c0.6-1.9,1.6-4.8,2.8-8.7
					c1.2-3.9,2.6-8.3,4.1-13.2c1.5-4.9,3.1-10.2,4.8-15.7c1.7-5.5,3.3-10.8,4.8-15.9c0.2-0.8,0.4-1.5,0.7-2.4
					c0.3-0.8,0.6-1.6,0.9-2.3c0.3-0.7,0.5-1.3,0.8-1.9c0.2-0.5,0.4-0.8,0.5-0.9c0.1-0.2,0.3-0.4,0.4-0.6c0.2-0.2,0.4-0.4,0.6-0.6
					c0.3-0.3,0.8-0.6,1.6-0.9c0.7-0.4,1.5-0.6,2.4-0.6c0.8,0,1.4,0,1.6,0.1c0.3,0.1,0.5,0.3,0.8,0.6c0.3,0.3,0.4,0.7,0.5,1.1
					c0.1,1,0.2,1.9,0.3,2.6c0.1,0.7,0.2,1.6,0.3,2.6c0.1,1.1,0.3,2.7,0.5,4.6c0.2,2,0.5,4.1,0.8,6.5c0.3,2.4,0.6,5,0.9,7.7
					c0.3,2.7,0.6,5.4,0.9,8.1c0.3,1.8,0.5,3.8,0.9,5.9c0.3,2.1,0.6,4.1,1,6.1c0.3,2,0.7,3.9,1,5.6c0.3,1.8,0.6,3.3,0.9,4.5
					c1.8-5.9,3.5-11.7,5.1-17.4c0.7-2.4,1.4-4.9,2.2-7.5c0.8-2.6,1.5-5.1,2.2-7.6c0.7-2.5,1.4-4.9,2.1-7.3c0.7-2.3,1.3-4.5,1.9-6.4
					c0.2-0.7,0.4-1.4,0.6-2.2c0.2-0.8,0.4-1.5,0.6-2.2c0.2-0.7,0.4-1.3,0.6-1.9c0.2-0.5,0.4-0.9,0.6-1.1c0.3-0.5,0.8-1,1.5-1.5
					c0.7-0.5,1.6-0.9,2.7-1c0.3-0.1,0.6-0.1,0.9-0.1c0.3,0,0.5,0,0.9,0C391.9,121.1,392,121.4,392,121.9z"/>
				<path class="st2" d="M427.4,178.1c-0.1,0.2-1,0.9-2.7,2.1c-1.7,1.2-3.8,2.5-6.4,3.8c-2.6,1.4-5.4,2.6-8.6,3.7
					c-3.2,1.1-6.4,1.7-9.5,1.7c-4,0-7-0.9-9-2.8c-2-1.9-3-4.9-3-9c0-2.7,0.7-5.9,2.2-9.8c1.5-3.9,3.9-7.7,7.2-11.7
					c1.9-2.3,3.8-4.2,5.8-5.9c2-1.6,3.9-3,5.7-4c1.8-1,3.6-1.8,5.2-2.2c1.6-0.5,3-0.7,4.1-0.7c1.8,0,3.1,0.2,3.8,0.7
					c0.7,0.5,1,1.3,1,2.5c0,1.5-1.1,3.5-3.2,5.9c-2.1,2.4-4.9,5.2-8.2,8.4c-1.3,1.3-2.9,2.7-4.6,4.3c-1.7,1.6-3.4,3.1-4.9,4.6
					c-1.8,1.6-3.7,3.3-5.5,5v1.4c0,3.4,0.8,5.8,2.3,7.1c1.5,1.3,3.7,1.9,6.4,1.9c2.5,0,5-0.5,7.5-1.4c2.5-0.9,4.8-1.9,6.8-3
					c2.4-1.3,4.7-2.8,6.9-4.5L427.4,178.1z M415.3,150.8c0-1-0.3-1.6-0.9-1.9c-0.6-0.3-1.2-0.4-1.9-0.4c-1.2,0-2.7,0.5-4.5,1.4
					s-3.5,2.4-5.1,4.5c-0.7,0.9-1.4,2-2.1,3.2c-0.7,1.3-1.3,2.7-1.9,4.2c-0.6,1.5-1.1,3.1-1.5,4.8c-0.4,1.7-0.6,3.3-0.7,5
					c1.3-1.1,2.6-2.2,3.9-3.3c1.1-1,2.4-2.1,3.7-3.3c1.3-1.2,2.6-2.4,3.8-3.7c2.1-2.1,3.8-4.1,5.2-5.8
					C414.6,153.7,415.3,152.2,415.3,150.8z"/>
				<path class="st2" d="M462.9,176.9c0,0.3-0.9,1-2.7,2.4c-1.8,1.3-4.1,2.8-6.8,4.3c-2.8,1.5-5.8,2.9-9.1,4.1
					c-3.3,1.2-6.4,1.8-9.4,1.8c-3.5,0-6.2-0.8-8-2.5c-1.9-1.6-2.8-4.2-2.8-7.8c0-1.9,0.3-3.9,0.8-6.1c0.5-2.2,1.3-4.4,2.3-6.5
					c1-2.2,2.2-4.3,3.7-6.5c1.5-2.2,3.1-4.2,4.9-6.1c1.6-1.7,3.4-3.2,5.2-4.5c1.8-1.3,3.6-2.3,5.4-3.1c1.8-0.8,3.4-1.4,4.9-1.9
					c1.5-0.4,2.7-0.6,3.7-0.6c1.1,0,2.1,0.2,2.9,0.5c0.9,0.3,1.3,1.4,1.3,3.1c0,0.9-0.2,2.1-0.7,3.6c-0.4,1.5-1.3,2.8-2.6,3.9
					c-1.1,0.9-2.1,1.5-3,1.8c-0.9,0.3-1.6,0.4-2,0.4c-0.3,0-0.6-0.2-0.8-0.6l0.9-2.1c0.4-0.9,0.7-1.7,0.8-2.3
					c0.1-0.7,0.1-1.2,0.1-1.5c0-0.7-0.1-1.2-0.4-1.5c-0.3-0.3-0.8-0.5-1.6-0.5c-2,0-4.1,0.7-6.1,2c-2.1,1.4-3.9,3.2-5.6,5.6
					c-1.7,2.3-3.1,5.1-4.1,8.2c-1.1,3.1-1.6,6.5-1.6,10c0,1.1,0.1,2.2,0.2,3.5c0.1,1.2,0.4,2.4,0.9,3.4c0.5,1,1.2,1.9,2.1,2.5
					c0.9,0.7,2.2,1,3.7,1c2.4,0,4.4-0.3,6-0.8c1.6-0.5,3-1,4.1-1.5c1.8-0.8,3.4-1.5,4.8-2.4c1.5-0.8,2.7-1.6,3.7-2.2
					c1-0.7,1.9-1.2,2.4-1.7c0.6-0.4,0.9-0.7,1-0.7c0.3,0,0.5,0.1,0.8,0.2C462.8,176,462.9,176.4,462.9,176.9z"/>
				<path class="st2" d="M487,182.4c-3.2,2.1-6,3.8-8.6,5c-2.6,1.3-4.9,2.1-6.9,2.6c-2,0.5-3.7,0.8-5.1,0.8c-1.1,0-1.9-0.2-2.6-0.5
					c-0.6-0.3-1.1-0.7-1.4-1.1c-0.3-0.4-0.5-0.9-0.6-1.5c-0.1-0.5-0.1-1-0.1-1.5c0-1,0.2-2.5,0.6-4.4c0.4-1.9,1.1-4.4,2-7.4
					c0.8-2.4,1.4-4.4,2-6.1c0.6-1.7,1.2-3.3,1.8-4.9s1.2-3.3,1.8-5.1c0.6-1.8,1.4-4,2.3-6.7c-0.7,0.1-1.4,0.1-2.1,0.2
					c-0.6,0.1-1.1,0.1-1.7,0.1s-1,0-1.3,0c-0.3,0-0.7,0-1.1-0.1c-0.4-0.1-0.6-0.4-0.6-0.9c0-1.1,0.5-1.9,1.6-2.5
					c1-0.6,2-0.9,2.8-0.9h3.9l3.5-9.4c0.6-1.5,1.3-2.9,2.2-4.1c0.9-1.2,2.1-2.1,3.6-2.6c0.8-0.3,1.8-0.5,2.8-0.5
					c0.6,0,0.9,0.3,0.9,0.9c-0.3,0.6-0.6,1.2-0.8,1.6c-0.2,0.4-0.4,0.9-0.7,1.3c-0.2,0.4-0.4,0.9-0.7,1.4c-0.2,0.5-0.5,1.1-0.7,1.9
					l-3.6,9.5h6.5c0.9,0,1.8,0,2.8,0c1,0,1.9-0.1,2.8-0.1c0.9-0.1,1.6-0.1,2.3-0.1c0.6,0,1,0,1.2,0c0.8,0,1.2,0.2,1.2,0.7
					c0,0.6-0.7,1.2-2,1.8c-0.6,0.3-1.3,0.6-2.3,0.9c-1,0.3-2.2,0.6-3.6,0.8c-0.9,0.1-2,0.2-3.1,0.2c-1.1,0-2.2,0.1-3.3,0.1
					c-1.2,0.1-2.4,0.1-3.6,0.1c-0.3,0.7-0.7,1.9-1.2,3.5s-1.2,3.4-1.9,5.5c-0.7,2-1.5,4.2-2.2,6.4c-0.8,2.3-1.5,4.4-2.1,6.4
					c-0.7,2-1.2,3.7-1.6,5.2c-0.4,1.5-0.6,2.5-0.6,3.1c0,0.4,0,0.8,0,1.3c0,0.5,0.1,0.9,0.3,1.3c0.2,0.4,0.5,0.7,0.9,1
					c0.4,0.3,0.9,0.4,1.6,0.4c2,0,4.2-0.4,6.5-1.3c2.3-0.9,4.6-2,6.8-3.2c2.2-1.3,4.3-2.6,6.2-4.1c1.9-1.5,3.5-2.8,4.8-3.9l1,1.1
					C493.7,177.6,490.2,180.3,487,182.4z"/>
				<path class="st2" d="M545.6,176.4c-2,2-4.3,3.9-6.8,5.7c-2.5,1.8-5,3.3-7.4,4.6c-2.4,1.3-4.7,2.4-6.7,3.1
					c-2.1,0.8-3.7,1.1-4.8,1.1c-0.9,0-1.6-0.3-2.2-0.9c-0.6-0.6-0.9-1.9-0.9-3.7c0-1.5,0.1-3,0.4-4.6s0.6-2.9,0.9-4.3h-0.4
					c-2.8,3.5-5.9,6.3-9.1,8.4c-3.2,2.1-6.1,3.1-8.7,3.1c-2.4,0-4-0.8-4.7-2.3c-0.8-1.5-1.1-3.6-1.1-6.2c0-1.7,0.3-3.6,0.8-5.7
					c0.5-2.1,1.2-4.3,2.2-6.4c0.9-2.2,2.1-4.2,3.4-6.3c1.3-2,2.8-3.9,4.6-5.5c4.1-3.9,8-6.6,11.7-8.1c3.7-1.5,7.2-2.2,10.7-2.2
					c0.6,0,1.4,0.1,2.4,0.2c0.9,0.2,1.9,0.4,2.8,0.9c0.9,0.4,1.7,1,2.4,1.7c0.7,0.7,1,1.6,1,2.7c0,0.7,0,1.3-0.1,1.8
					c-0.1,0.5-0.3,0.9-0.5,1.3c-0.3,0.4-0.6,0.8-1,1.2c-0.4,0.4-1,0.9-1.6,1.5c-0.5,1.4-1.1,2.7-1.7,3.8c-0.6,1.2-1.4,2.8-2.2,4.8
					c-1.6,4-2.8,7.4-3.6,10.1c-0.8,2.7-1.2,4.8-1.2,6.5c0,0.9,0.1,1.6,0.4,2.2s0.9,0.9,1.8,0.9c0.9,0,2.1-0.3,3.6-0.8
					c1.4-0.5,3-1.3,4.6-2.3c1.7-1,3.4-2.1,5.2-3.5c1.8-1.3,3.5-2.8,5.2-4.5L545.6,176.4z M529.6,152.7c-0.2-0.6-0.5-1-0.9-1.4
					c-0.4-0.4-0.9-0.7-1.4-0.9c-0.5-0.3-1-0.4-1.6-0.5c-0.5-0.1-1-0.1-1.5-0.1c-1.6,0-3.2,0.2-4.6,0.5c-1.4,0.3-2.8,0.9-4.1,1.7
					c-1.3,0.8-2.7,1.9-4,3.3c-1.4,1.4-2.8,3.3-4.3,5.6c-0.8,1.1-1.5,2.5-2.2,4.1c-0.7,1.6-1.3,3.2-1.8,4.8c-0.5,1.6-0.9,3.2-1.2,4.6
					c-0.3,1.5-0.4,2.7-0.4,3.7c0,2,0.4,3.4,1.2,4.1c0.8,0.7,1.6,1.1,2.5,1.1c2.1,0,4.6-1.1,7.3-3.2c2.7-2.1,5.2-5.6,7.4-10.3
					c0.9-2,1.7-3.9,2.2-5.6c0.5-1.7,1.1-3.3,1.8-4.8c0.2-0.5,0.5-1.1,0.9-1.9c0.4-0.8,0.9-1.5,1.4-2.1c0.5-0.7,1.1-1.2,1.6-1.7
					C528.5,152.9,529,152.7,529.6,152.7z"/>
				<path class="st2" d="M576,180.9c-2.1,1.6-4.4,3.1-7,4.6c-2,1.1-3.6,1.9-5,2.6c-1.4,0.6-2.6,1.1-3.6,1.4c-1,0.3-1.9,0.5-2.6,0.6
					c-0.7,0.1-1.3,0.1-1.7,0.1c-1.2,0-2-0.3-2.5-1c-0.4-0.7-0.7-1.5-0.7-2.4c0-0.3,0-0.7,0.1-1.3c0.1-0.6,0.3-1.5,0.6-2.6
					c0.3-1.1,0.7-2.5,1.2-4.1c0.5-1.6,1.2-3.5,2-5.7c0.4-1.1,1-2.5,1.7-4.2c0.7-1.7,1.4-3.4,2.1-5.1c0.7-1.7,1.4-3.3,2-4.7
					c0.6-1.5,1.1-2.5,1.4-3.1l-0.3-0.4c-1.5,0.9-3,1.6-4.6,2c-1.6,0.5-3.2,0.7-4.6,0.7c-1.5,0-2.8-0.3-4-0.8
					c-1.2-0.5-2.1-1.5-2.6-3.1l-1,1.5c-0.2,0.2-0.4,0.3-0.6,0.3c-0.2,0-0.4-0.1-0.6-0.2c-0.2-0.2-0.3-0.4-0.3-0.7
					c0-0.3,0.1-0.6,0.3-0.9l1.4-2.4c-0.1-0.3-0.1-0.7-0.1-1c0-0.4,0-0.8,0-1.3c0-1,0.1-2.1,0.3-3.4c0.2-1.2,0.6-2.4,1.1-3.5
					c0.5-1.1,1.2-2,2-2.7c0.9-0.7,1.9-1,3.3-1c0.7,0,1.4,0.2,2,0.7c0.7,0.4,1,1.3,1,2.7c0,0.5-0.1,1.1-0.3,1.9
					c-0.2,0.7-0.4,1.5-0.7,2.2c-0.3,0.7-0.6,1.4-0.9,2.1c-0.3,0.7-0.7,1.3-1.1,1.7c0.1,0.8,0.3,1.5,0.6,1.9c0.3,0.5,0.8,0.8,1.2,1.1
					c0.5,0.3,1,0.4,1.5,0.5c0.5,0.1,0.9,0.1,1.2,0.1c0.9,0,1.8-0.1,2.8-0.2c1-0.2,2.4-0.6,4.2-1.3c0.9-0.4,1.7-0.8,2.6-1.1
					c0.8-0.4,1.6-0.6,2.3-0.6c0.8,0,1.1,0.3,1.1,1c0,0.4-0.1,1-0.3,1.7c-0.2,0.7-0.4,1.4-0.7,2.2c-0.3,0.8-0.5,1.5-0.8,2.2
					c-0.3,0.7-0.5,1.3-0.7,1.8c-0.6,1.6-1.4,3.6-2.3,5.9c-0.9,2.4-1.7,4.7-2.5,7.1c-0.8,2.3-1.5,4.4-2,6.2c-0.6,1.8-0.9,2.8-0.9,3.2
					c0,1.1,0.2,1.7,0.6,1.9c0.4,0.2,1,0.2,1.9,0.2c2,0,4.4-0.7,7.3-2.1c2.8-1.4,5.8-3.3,9-5.7l0.9,1.1
					C579.6,178,578.1,179.3,576,180.9z"/>
				<path class="st2" d="M654.5,158.7c-0.3,1-0.9,1.8-1.6,2.5c-0.8,0.6-1.6,1.1-2.7,1.4c-1,0.3-2.1,0.5-3.3,0.7
					c-1.2,0.1-2.3,0.2-3.5,0.2h-1.7c-0.3,0-0.4,0-0.6-0.1c0,1.1-0.3,2.5-0.8,4.2c-0.5,1.7-1.3,3.6-2.3,5.6c-1,2-2.2,3.9-3.7,5.9
					c-1.5,2-3.1,3.8-5,5.4c-1.9,1.6-3.9,2.9-6.2,3.9c-2.3,1-4.7,1.5-7.3,1.5c-4.4,0-7.8-1.4-10.2-4.1c-2.3-2.7-3.5-6.9-3.5-12.4
					c0-3.6,0.6-7.4,1.8-11.4c1.2-4,2.8-7.9,4.9-11.8c2.1-3.9,4.5-7.5,7.4-11c2.8-3.5,5.8-6.5,8.9-9.2s6.4-4.8,9.7-6.3
					c3.3-1.5,6.6-2.3,9.7-2.3c0.6,0,1.3,0,2,0.1c0.7,0.1,1.4,0.3,2,0.7c0.6,0.4,1.1,0.9,1.5,1.6c0.4,0.7,0.6,1.6,0.6,2.7
					c0,1.3-0.3,2.5-0.8,3.6c-0.5,1.1-1.2,2.1-1.9,2.9c-0.7,0.8-1.5,1.5-2.2,1.9s-1.4,0.7-1.8,0.7c-0.4,0-0.6-0.2-0.6-0.7
					c0-0.3,0.1-0.6,0.4-1.2c0.3-0.5,0.4-1.6,0.4-3.3c0-1.5-0.5-2.5-1.4-3c-0.9-0.6-2-0.9-3.2-0.9c-3.6,0-7.2,1.3-10.8,3.8
					c-3.6,2.5-6.8,5.9-9.6,10c-2.8,4.1-5.1,8.9-6.9,14.2c-1.7,5.3-2.6,10.8-2.6,16.5c0,1.8,0.1,3.7,0.4,5.5c0.3,1.8,0.7,3.5,1.4,4.9
					c0.7,1.5,1.6,2.6,2.8,3.6c1.2,0.9,2.7,1.4,4.6,1.4c2.7,0,5.1-0.9,7.1-2.7c2-1.8,3.7-3.9,5-6.4c1.3-2.5,2.3-5,2.9-7.5
					c0.6-2.6,0.9-4.6,0.9-6.2v-0.5c-0.4,0-0.8,0-1.2,0c-0.4,0-0.9,0-1.3,0c-0.8,0-1.4-0.1-2-0.4c-0.6-0.3-0.9-0.8-0.9-1.7
					c0-1,0.4-1.8,1.1-2.3c0.8-0.5,1.6-0.8,2.5-0.8c1.6,0,2.8,0.1,3.8,0.2c0.9,0.1,2.2,0.2,3.6,0.3c1.6,0.1,3,0.1,3.9,0.1
					c1,0,2.1,0,3.5,0c1.5,0,2.7,0,3.8-0.1C653,158.8,653.8,158.7,654.5,158.7z"/>
				<path class="st2" d="M701.7,176.4c-2,2-4.3,3.9-6.8,5.7c-2.5,1.8-5,3.3-7.4,4.6c-2.4,1.3-4.7,2.4-6.7,3.1
					c-2.1,0.8-3.7,1.1-4.8,1.1c-0.9,0-1.6-0.3-2.2-0.9c-0.6-0.6-0.9-1.9-0.9-3.7c0-1.5,0.1-3,0.4-4.6s0.6-2.9,0.9-4.3h-0.4
					c-2.8,3.5-5.9,6.3-9.1,8.4s-6.1,3.1-8.7,3.1c-2.4,0-4-0.8-4.7-2.3c-0.8-1.5-1.1-3.6-1.1-6.2c0-1.7,0.3-3.6,0.8-5.7
					c0.5-2.1,1.2-4.3,2.2-6.4c0.9-2.2,2.1-4.2,3.4-6.3c1.3-2,2.8-3.9,4.6-5.5c4.1-3.9,8-6.6,11.7-8.1c3.7-1.5,7.2-2.2,10.7-2.2
					c0.6,0,1.4,0.1,2.4,0.2c0.9,0.2,1.9,0.4,2.8,0.9c0.9,0.4,1.7,1,2.4,1.7c0.7,0.7,1,1.6,1,2.7c0,0.7,0,1.3-0.1,1.8
					c-0.1,0.5-0.3,0.9-0.5,1.3c-0.3,0.4-0.6,0.8-1,1.2c-0.4,0.4-1,0.9-1.6,1.5c-0.5,1.4-1.1,2.7-1.7,3.8c-0.6,1.2-1.4,2.8-2.2,4.8
					c-1.6,4-2.8,7.4-3.6,10.1s-1.2,4.8-1.2,6.5c0,0.9,0.1,1.6,0.4,2.2c0.3,0.6,0.9,0.9,1.8,0.9c0.9,0,2.1-0.3,3.6-0.8
					c1.4-0.5,3-1.3,4.7-2.3c1.7-1,3.4-2.1,5.2-3.5s3.5-2.8,5.2-4.5L701.7,176.4z M685.7,152.7c-0.2-0.6-0.5-1-0.9-1.4
					c-0.4-0.4-0.9-0.7-1.4-0.9c-0.5-0.3-1-0.4-1.6-0.5c-0.5-0.1-1-0.1-1.5-0.1c-1.6,0-3.2,0.2-4.6,0.5c-1.4,0.3-2.8,0.9-4.1,1.7
					c-1.3,0.8-2.7,1.9-4,3.3c-1.4,1.4-2.8,3.3-4.3,5.6c-0.8,1.1-1.5,2.5-2.2,4.1c-0.7,1.6-1.3,3.2-1.8,4.8c-0.5,1.6-0.9,3.2-1.2,4.6
					c-0.3,1.5-0.4,2.7-0.4,3.7c0,2,0.4,3.4,1.2,4.1c0.8,0.7,1.6,1.1,2.5,1.1c2.2,0,4.6-1.1,7.3-3.2c2.7-2.1,5.2-5.6,7.4-10.3
					c0.9-2,1.7-3.9,2.2-5.6c0.5-1.7,1.1-3.3,1.8-4.8c0.2-0.5,0.5-1.1,0.9-1.9c0.4-0.8,0.9-1.5,1.4-2.1c0.5-0.7,1.1-1.2,1.6-1.7
					S685.2,152.7,685.7,152.7z"/>
				<path class="st2" d="M732.1,180.9c-2.1,1.6-4.4,3.1-7,4.6c-2,1.1-3.6,1.9-5,2.6c-1.4,0.6-2.6,1.1-3.6,1.4
					c-1,0.3-1.9,0.5-2.6,0.6c-0.7,0.1-1.3,0.1-1.7,0.1c-1.2,0-2-0.3-2.5-1c-0.4-0.7-0.7-1.5-0.7-2.4c0-0.3,0-0.7,0.1-1.3
					c0.1-0.6,0.3-1.5,0.6-2.6c0.3-1.1,0.7-2.5,1.2-4.1c0.5-1.6,1.2-3.5,2-5.7c0.4-1.1,1-2.5,1.7-4.2c0.7-1.7,1.4-3.4,2.1-5.1
					c0.7-1.7,1.4-3.3,2-4.7c0.6-1.5,1.1-2.5,1.4-3.1l-0.3-0.4c-1.5,0.9-3,1.6-4.7,2c-1.6,0.5-3.2,0.7-4.6,0.7c-1.5,0-2.8-0.3-4-0.8
					c-1.2-0.5-2.1-1.5-2.6-3.1l-1,1.5c-0.2,0.2-0.4,0.3-0.6,0.3c-0.2,0-0.4-0.1-0.6-0.2c-0.2-0.2-0.3-0.4-0.3-0.7
					c0-0.3,0.1-0.6,0.3-0.9l1.4-2.4c-0.1-0.3-0.1-0.7-0.1-1c0-0.4,0-0.8,0-1.3c0-1,0.1-2.1,0.3-3.4c0.2-1.2,0.6-2.4,1.1-3.5
					c0.5-1.1,1.2-2,2-2.7c0.9-0.7,1.9-1,3.3-1c0.7,0,1.4,0.2,2,0.7c0.7,0.4,1,1.3,1,2.7c0,0.5-0.1,1.1-0.3,1.9
					c-0.2,0.7-0.4,1.5-0.7,2.2c-0.3,0.7-0.6,1.4-0.9,2.1c-0.3,0.7-0.7,1.3-1.1,1.7c0.1,0.8,0.3,1.5,0.6,1.9c0.3,0.5,0.8,0.8,1.2,1.1
					c0.5,0.3,1,0.4,1.5,0.5c0.5,0.1,0.9,0.1,1.2,0.1c0.9,0,1.8-0.1,2.8-0.2c1-0.2,2.4-0.6,4.2-1.3c0.9-0.4,1.7-0.8,2.6-1.1
					c0.8-0.4,1.6-0.6,2.3-0.6c0.8,0,1.1,0.3,1.1,1c0,0.4-0.1,1-0.3,1.7c-0.2,0.7-0.4,1.4-0.7,2.2c-0.3,0.8-0.5,1.5-0.8,2.2
					c-0.3,0.7-0.5,1.3-0.7,1.8c-0.6,1.6-1.4,3.6-2.3,5.9c-0.9,2.4-1.7,4.7-2.5,7.1c-0.8,2.3-1.5,4.4-2,6.2c-0.6,1.8-0.9,2.8-0.9,3.2
					c0,1.1,0.2,1.7,0.6,1.9c0.4,0.2,1,0.2,1.9,0.2c2,0,4.4-0.7,7.3-2.1c2.8-1.4,5.8-3.3,9-5.7l0.9,1.1
					C735.7,178,734.2,179.3,732.1,180.9z"/>
				<path class="st2" d="M786.6,175.8c-2.1,1.7-4.3,3.4-6.7,4.9c-2.4,1.6-4.6,3-6.7,4.2c-2.1,1.2-4,2.2-5.8,2.9
					c-1.7,0.7-3,1.1-3.8,1.1c-1.5,0-2.5-0.4-3.1-1.2c-0.6-0.8-0.9-2.3-0.9-4.5c0-0.4,0.1-1.1,0.2-1.9c0.1-0.9,0.3-1.8,0.4-2.8
					c0.2-1,0.3-2,0.6-3c0.2-1,0.4-2,0.6-2.8l-0.3-0.1c-1.8,2-3.4,4-4.9,5.8c-1.5,1.9-3.4,3.8-5.6,5.7c-1.3,1.2-2.5,2.2-3.5,2.9
					c-1,0.7-1.9,1.3-2.8,1.7c-0.9,0.4-1.6,0.7-2.4,0.8c-0.7,0.1-1.5,0.2-2.3,0.2c-2,0-3.3-0.6-4.1-1.9c-0.8-1.2-1.2-2.9-1.2-5.1
					c0-4.2,0.9-8.4,2.8-12.5c1.9-4.2,4.3-8,7.4-11.4c3.1-3.4,6.6-6.3,10.5-8.5c4-2.3,8-3.7,12.2-4.2l3.3-0.4
					c1.2-3.3,2.3-6.3,3.3-9.1c0.4-1.2,0.9-2.4,1.3-3.6c0.4-1.2,0.8-2.3,1.2-3.3c0.4-1,0.7-2,0.9-2.8c0.3-0.8,0.4-1.4,0.6-1.8
					c0.2-0.7,0.5-1.3,0.9-1.8c0.4-0.5,1-1,1.8-1.5c0.7-0.5,1.4-0.9,2-1.1c0.6-0.2,1.2-0.4,1.7-0.5c0.6-0.1,1.2-0.2,1.7-0.3
					c0.6,0,0.9,0.3,0.9,0.9c-0.5,1.1-1,2.3-1.4,3.4c-0.4,1-0.8,2.1-1.2,3.2c-0.4,1.1-0.9,2.2-1.2,3.3l-7.6,20.8
					c-0.8,2.2-1.6,4.4-2.4,6.7c-0.8,2.3-1.6,4.5-2.3,6.5c-0.7,2-1.3,3.8-1.8,5.4c-0.5,1.6-0.9,2.7-1,3.4c-0.3,1.2-0.6,2.4-0.9,3.5
					s-0.4,2.2-0.4,3.1c0,0.5,0.2,1.2,0.5,2c0.3,0.8,1,1.2,1.9,1.2c1.1,0,2.5-0.4,4-1.1c1.5-0.7,3.1-1.6,4.7-2.6c1.6-1,3.2-2,4.7-3.1
					c1.5-1.1,2.7-2,3.7-2.7L786.6,175.8z M765.6,150c-3.5,0-6.7,0.9-9.5,2.7c-2.8,1.8-5.1,4.1-7.1,6.9c-1.9,2.8-3.4,5.9-4.4,9.2
					c-1,3.4-1.5,6.7-1.5,9.9c0,1,0.2,2,0.5,3c0.3,1.1,0.9,1.6,1.6,1.6c0.4,0,0.8,0,1.3-0.1s1-0.4,1.7-0.8c0.7-0.4,1.5-1,2.5-1.9
					c1-0.9,2.2-2,3.7-3.6c0.6-0.7,1.4-1.5,2.3-2.5c0.9-1,1.8-2,2.6-3.1c0.9-1.1,1.7-2.3,2.4-3.6c0.8-1.2,1.4-2.5,1.9-3.8l5.5-14
					H765.6z"/>
				<path class="st2" d="M821,178.1c-0.1,0.2-1,0.9-2.7,2.1c-1.7,1.2-3.8,2.5-6.4,3.8c-2.6,1.4-5.4,2.6-8.6,3.7
					c-3.2,1.1-6.4,1.7-9.5,1.7c-4,0-7-0.9-9-2.8s-3-4.9-3-9c0-2.7,0.7-5.9,2.2-9.8c1.5-3.9,3.9-7.7,7.2-11.7
					c1.9-2.3,3.8-4.2,5.8-5.9c2-1.6,3.9-3,5.7-4c1.8-1,3.6-1.8,5.2-2.2c1.6-0.5,3-0.7,4.1-0.7c1.8,0,3.1,0.2,3.8,0.7
					c0.7,0.5,1,1.3,1,2.5c0,1.5-1.1,3.5-3.2,5.9c-2.1,2.4-4.9,5.2-8.2,8.4c-1.3,1.3-2.9,2.7-4.6,4.3c-1.7,1.6-3.4,3.1-4.9,4.6
					c-1.8,1.6-3.7,3.3-5.5,5v1.4c0,3.4,0.8,5.8,2.3,7.1c1.5,1.3,3.7,1.9,6.4,1.9c2.5,0,5-0.5,7.5-1.4c2.5-0.9,4.8-1.9,6.8-3
					c2.4-1.3,4.7-2.8,6.9-4.5L821,178.1z M808.8,150.8c0-1-0.3-1.6-0.9-1.9c-0.6-0.3-1.2-0.4-1.9-0.4c-1.2,0-2.7,0.5-4.5,1.4
					c-1.8,0.9-3.5,2.4-5.1,4.5c-0.7,0.9-1.4,2-2.1,3.2c-0.7,1.3-1.3,2.7-1.9,4.2c-0.6,1.5-1.1,3.1-1.5,4.8c-0.4,1.7-0.6,3.3-0.7,5
					c1.3-1.1,2.6-2.2,3.9-3.3c1.1-1,2.4-2.1,3.7-3.3c1.3-1.2,2.6-2.4,3.8-3.7c2.1-2.1,3.8-4.1,5.2-5.8
					C808.2,153.7,808.8,152.2,808.8,150.8z"/>
				<path class="st2" d="M859.1,179.2c-2.4,1.9-4.9,3.6-7.5,5.3c-2.5,1.6-5,3-7.3,4.1c-2.3,1.1-4.2,1.6-5.7,1.6
					c-0.5,0-0.8-0.2-1-0.6c-0.2-0.4-0.2-0.9-0.2-1.4c0-0.5,0.1-1.3,0.4-2.5c0.3-1.1,0.6-2.4,1-3.9c0.4-1.5,0.9-3,1.3-4.7
					c0.5-1.6,0.9-3.2,1.4-4.7c0.6-1.9,1.1-3.7,1.7-5.6c0.5-1.8,1-3.4,1.4-4.9c0.4-1.5,0.7-2.7,1-3.7c0.3-1,0.4-1.6,0.4-1.9
					c0-0.6,0-1.1-0.1-1.4c-0.1-0.3-0.3-0.4-0.9-0.4c-0.4,0-1.1,0.4-2,1.1c-1,0.7-2.1,1.7-3.4,2.9c-1.3,1.2-2.6,2.6-4.1,4.2
					c-1.5,1.6-2.9,3.2-4.3,4.9c-1.8,2.2-3.2,4.2-4.4,6.3c-1.1,2-2.2,4-3,5.8c-0.9,1.9-1.7,3.4-2.3,4.5c-0.7,1.1-1.3,1.9-1.8,2.5
					c-0.5,0.6-1,0.9-1.5,1.1s-1,0.3-1.6,0.3c-0.6,0-1-0.2-1.1-0.7s-0.1-0.8-0.1-1.1c0-1.4,0.6-3.5,1.8-6.3c0.5-1.1,0.9-2,1.3-2.8
					c0.3-0.8,0.6-1.4,0.7-1.9l4.1-14c0.3-0.8,0.5-1.7,0.8-2.7c0.3-1,0.5-1.9,0.8-2.9c0.3-0.9,0.5-1.8,0.7-2.6s0.3-1.3,0.5-1.6
					c0.3-1,0.7-1.9,1.5-2.7c0.7-0.8,1.5-1.4,2.4-1.9c0.9-0.5,1.7-0.8,2.5-1.1c0.8-0.3,1.4-0.4,1.9-0.4c0.4,0,0.7,0.3,0.7,1
					c-0.1,0.5-0.3,1.5-0.8,2.9c-0.5,1.4-0.9,2.8-1.4,4.1c-0.6,1.8-1.1,3.3-1.5,4.6c-0.4,1.3-0.8,2.4-1.2,3.5c-0.4,1-0.7,2-1,2.8
					c-0.3,0.9-0.6,1.7-0.8,2.6h0.4c5.9-6.5,11.1-11.5,15.6-15c4.5-3.5,7.8-5.2,9.8-5.2c0.4,0,0.7,0.1,0.9,0.4
					c0.2,0.3,0.2,0.7,0.2,1.4c0,1.5-0.5,3.8-1.6,7.1c-1,3.3-2.2,7-3.5,11.2c-0.2,0.8-0.5,1.9-1,3.4s-1,3-1.5,4.6
					c-0.5,1.6-0.9,3-1.3,4.3s-0.6,2.1-0.6,2.4c0,0.4,0,0.8,0.1,1c0.1,0.3,0.3,0.4,0.8,0.4c0.8,0,1.9-0.3,3.3-0.9
					c1.4-0.6,2.9-1.4,4.6-2.4c1.7-1,3.4-2.1,5.1-3.4c1.7-1.3,3.4-2.5,4.9-3.8l0.9,1.1C863.6,175.6,861.5,177.4,859.1,179.2z"/>
				<path class="st2" d="M895.6,147.8c-0.6,1.5-1.3,2.6-2.2,3.3c-0.9,0.7-2.1,1.3-3.7,1.8c-0.2-0.7-0.6-1.3-1.1-1.8
					c-0.5-0.5-1.2-0.9-1.9-1.1c-0.8-0.3-1.6-0.5-2.4-0.6c-0.8-0.1-1.6-0.2-2.2-0.2c-0.9,0-1.9,0.1-2.9,0.4c-1,0.3-1.9,0.7-2.7,1.2
					c-0.8,0.6-1.4,1.3-1.9,2.2c-0.5,0.9-0.8,1.9-0.8,3.1c0,1.3,0.5,2.5,1.5,3.4c1,0.9,2.2,1.8,3.7,2.7c1.5,0.9,3,1.7,4.7,2.6
					c1.7,0.9,3.3,1.9,4.7,3.1c0.9,0.9,1.6,1.8,1.9,2.6c0.3,0.9,0.5,1.8,0.5,2.9c0,1.3-0.3,2.7-1,4.1c-0.7,1.4-1.6,2.7-2.7,4
					c-1.1,1.3-2.4,2.5-3.8,3.6c-1.4,1.1-2.9,2-4.3,2.6c-1.6,0.8-3.3,1.3-4.9,1.7c-1.6,0.3-3.1,0.5-4.3,0.5c-1.6,0-3.1-0.2-4.5-0.5
					c-1.4-0.3-2.7-0.9-3.8-1.6c-1.1-0.7-2-1.6-2.6-2.7c-0.6-1-0.9-2.3-0.9-3.7c0-1.5,0.6-3,1.9-4.5c1.3-1.5,3.2-2.4,5.9-2.9
					c-0.4,0.5-0.7,1.1-0.8,1.7c-0.1,0.6-0.1,1.2-0.1,1.7c0,1.1,0.2,2.1,0.5,3.1c0.3,1,0.9,1.9,1.6,2.7c0.7,0.8,1.7,1.4,2.8,1.9
					c1.2,0.5,2.6,0.7,4.2,0.7c2.8,0,5.3-0.8,7.2-2.4c2-1.6,2.9-3.7,2.9-6.3c0-2.5-0.9-4.3-2.8-5.5c-2-1.2-3.9-2.3-5.6-3.3
					c-1.7-1-3.2-1.9-4.5-2.9c-1.3-0.9-2.2-1.9-2.9-2.9c-0.7-1-1-2.2-1-3.5c0-2.3,0.7-4.3,2.1-6c1.4-1.7,3.1-3.1,5.2-4.2
					c2.1-1.1,4.3-1.9,6.7-2.5c2.4-0.5,4.6-0.8,6.6-0.8c1.2,0,2.3,0.1,3.2,0.3c0.9,0.2,1.8,0.5,2.5,0.8
					C894.3,147.1,895,147.5,895.6,147.8z"/>
			</g>
		</g>
	</g>
	<g>
		<g>
			<path d="M224.4,510.7c-0.1-0.2-5.4,5.5-6.7,7c-0.2,0.2-0.4,0.5-0.5,0.8c-4.4,8.1-24.1,45.3-24.6,49.4c-0.3,2.4-0.5,5-0.4,5.7
				c0,0,0,0,0.1,0l1.4-5.6c0.1-0.6,1.2-2.9,1.5-3.5c1.4-2.8,5.8-11.9,6.9-14.4c1.2-2.6,12.8-23.2,15.5-29.5c0.7-1.5,1.5-2.9,2.5-4.2
				L224.4,510.7z"/>
			<path d="M319.8,535.8c-2-1.8,19.5,18.4,22.6,21c0.1,0.1,4.6,4.3,5.5,4.2c1.1-0.1-33.1-31.7-36.4-34.5c-3.7-3.1-17.4-11.1-18.3-10
				c0,0,2.6,1.3,2.7,1.4l7.6,4.7C310.7,527.2,310.1,527.3,319.8,535.8z"/>
			<path d="M321.6,441.9c0-0.1,0.1-0.5,0.1-0.4c0,1.3-0.2,6.5-1.7,10.9c-1.7,5.2-8.1,19.5-11.1,25.1c-2.6,4.9-13.3,20.3-15.7,24
				c-2.1,3.3-9.6,12.2-10.5,13.2c-0.8,1,6.5-11,7.9-13.6c1.6-2.8,14.4-22.9,15.9-25.4c1.5-2.5,8.6-17.1,9.8-20.4
				C317.6,452.4,320.9,443.8,321.6,441.9z"/>
			<path d="M283.1,523.3C283.1,523.3,283.1,523.3,283.1,523.3c0.1,0.6,0.8,5.6,0.7,7.9c-0.1,2.1-1,10.7-2.1,15
				c-1.9,7-9.2,24.4-10.2,26.9c-1,2.5,5.2-15.4,4.5-13.5c0,0.1,1.5-4.5,2.7-10c1.6-6.9,3-15.1,3.3-16.8
				C282.4,529.9,282.9,524.3,283.1,523.3z"/>
			<path d="M236.8,502.5c0-0.2-0.1-0.1-0.1,0c-0.4,2.2,0,7.8,0,10.6c0,3.8,1.9,16,2.6,18.7c0.7,2.4,5.3,18.2,7.6,22.8
				c2.3,4.6,12.7,14.5,15,16.3c2.3,1.9-10.2-11.4-13-17.2c-2.9-6.1-4.2-12.4-5-14.6c-1.4-3.9-3-11.1-3.8-15.3
				C239.7,521.6,237.5,506.5,236.8,502.5z"/>
			<path d="M264.7,425.2c0,0,0-0.3,0-0.3c-1.1,1-14.6,14.2-17.1,17.4c-2.7,3.3-16.1,26.1-17.4,31.2c-1,4-2.5,21.1-2.1,24.7
				c0.3,2.7,0.6,4.3,0.8,4.9c0,0.1,0.1,0,0.1,0c0.2-2.7,1.7-23.2,2.9-28c1.3-5.2,9-18,10.9-20.9c2-3,4.6-7.7,6.5-10.9
				C251,440.3,263.4,426.1,264.7,425.2z"/>
			<path d="M348.7,400c0.2,0.2,0.1-0.2-0.1-0.4c-2.7-3-9.8-10.2-14.8-10.9c-6.3-0.8-19.2-0.2-25.5,3.8c-4.6,2.9-9.6,7.2-11.9,9.3
				c-0.1,0.1-0.4,0.4-0.2,0.3c2.1-1.3,6.2-4,8.9-5.7c3.9-2.5,8.1-4.4,12.2-5.2c4.2-0.8,14.5-1.4,17-0.5c3.2,1.1,7.6,4.2,9.4,5.7
				C344.9,397.1,347.6,399.3,348.7,400z"/>
			<path d="M350.7,418.2c0.1-0.1,0.3,0.1,0.2,0.2c-1.8,2-5,5.6-6.4,6.9c-1.8,1.6-8.3,6.9-9.7,7.8c-0.6,0.4-6,3.3-6.9,3.3
				c-0.9,0,0.3-0.5,1.4-1c3.2-1.6,9.2-6.6,11-8.3C342.5,425.2,347.9,420.6,350.7,418.2z"/>
			<path d="M290.8,407.8C290.8,407.8,290.8,407.8,290.8,407.8c-0.4-0.1-4.7-0.6-7.9-0.8c-3-0.2-8.1,1.2-9.4,1.6c0,0,0,0.1,0,0.1
				L290.8,407.8z"/>
			<path d="M267.2,404.4c0,0-61.3-45-64.4-45.9c-3.1-0.9-3.3-4.9-43-7.8c-39.6-2.9-7.5,17.6-7.5,17.6s-9.6-8.6-9.3-12.6
				c0.3-4,9.3-2.7,9.3-2.7s23.8,1.2,26.5,1.6s12.5,1.4,16.9,3.3c4.4,1.9,13,7.3,16.5,9.7c3.6,2.4,28.5,19.2,31.3,21.6
				C246.3,391.6,267.2,404.4,267.2,404.4z"/>
			<path d="M267.3,404.5c0,0-69.5-30.8-72.7-31.1c-3.2-0.2-4.3-4.1-43.6,1.6s-3.6,18.8-3.6,18.8s-11.2-6.4-11.8-10.3
				c-0.6-4,8.5-4.6,8.5-4.6s23.5-4,26.3-4.1c2.7-0.1,12.5-1.3,17.2-0.4c4.7,0.9,14.2,4.4,18.2,6c4,1.6,31.9,12.7,35.2,14.4
				S267.3,404.5,267.3,404.5z"/>
			<path d="M263.3,410.4c0,0-74-17.5-77.2-17.1c-3.2,0.4-5-3.2-42.6,9.6s-0.1,19.1-0.1,19.1s-12.2-4.2-13.5-8
				c-1.3-3.8,7.5-6.1,7.5-6.1s22.4-8.2,25.1-8.8c2.7-0.6,12-3.6,16.8-3.6c4.8,0,14.8,1.7,19,2.5c4.2,0.9,33.7,6.6,37.2,7.7
				C239.1,406.7,263.3,410.4,263.3,410.4z"/>
			<path d="M263.6,410.5c0,0-76.1-0.3-79.1,0.7c-3,1.1-5.6-2-39.3,19c-33.7,21,4.2,18.6,4.2,18.6s-12.8-1.3-15-4.7
				c-2.2-3.4,5.9-7.6,5.9-7.6s20-13.1,22.4-14.3c2.4-1.2,10.9-6.2,15.6-7.3c4.7-1.1,14.8-1.7,19.1-1.8c4.3-0.1,34.3-1.2,38-0.9
				C239.2,412.3,263.6,410.5,263.6,410.5z"/>
			<path d="M266.1,416.2c0,0-74.7,16.4-77.4,18.1c-2.7,1.7-5.9-0.8-34.2,27.1c-28.3,27.9,8.2,17.2,8.2,17.2s-12.8,1.5-15.6-1.3
				c-2.8-2.8,4.1-8.8,4.1-8.8s16.6-17.1,18.7-18.8c2.1-1.7,9.3-8.5,13.6-10.6c4.3-2.1,14-4.9,18.2-6c4.2-1.1,33.2-8.7,36.9-9.2
				S266.1,416.2,266.1,416.2z"/>
			<path d="M266.5,416c0,0-67.6,34.9-69.8,37.2c-2.2,2.3-5.9,0.8-26.1,35s12.4,14.5,12.4,14.5s-12,4.7-15.5,2.7
				c-3.5-2,1.7-9.5,1.7-9.5s11.7-20.8,13.3-23s6.8-10.6,10.4-13.7c3.7-3.1,12.3-8.4,16.1-10.5c3.8-2.1,29.9-16.9,33.3-18.4
				C245.7,428.9,266.5,416,266.5,416z"/>
			<path d="M355.4,404.9c0,0,38.1-0.2,46.4,0c8.4,0.2,30.7,1.3,32,1.7c1.3,0.4,1.5,2.7,1.5,2.7l-2.1-0.8c-0.4-0.1-0.8-0.2-1.2-0.3
				c-3.8-0.2-23.8-1.4-28.9-1.6c-5.6-0.2-37.4,0.1-39.7,0c-1.9-0.1-6.1-0.7-7.5-0.8c-0.2,0-0.4-0.2-0.4-0.5V404.9z"/>
			<path d="M356.5,411.7c-0.2,0.1-0.2,0.2,0.1,0.1c1.8-0.5,3.2-0.9,7.2-1.2c4.3-0.3,7.1-0.3,8.1-0.3c0.8,0,54.6,0.9,54.6,0.9
				c0.4,0,0.7,0,1.1-0.1l5.2-0.7c0,0,0,0,0,0c-1.7,0-11.3-0.6-23-0.8c-9.4-0.2-20.2-0.4-29.3-0.5c-10.8-0.2-19,0.1-19.5,0.1
				C360,409.3,357.6,411,356.5,411.7z"/>
			<path d="M343,421.3c0,0-5.6,4.9-7.3,6c-1.8,1.2-9.6,6.9-11,7.5c-1.3,0.6-6-0.1-8.7-1.9c-2.8-1.8-9.2-7-14.3-12.6
				c-1.8-2-3.5-5.4-4.5-7.9c-0.2-0.4,6,3.5,11.4,5.1c6.1,1.8,13.4,2.2,16.7,2.5C328.4,420.2,343,421.3,343,421.3z"/>
			<path d="M191.8,581.6c0-0.2-0.3,2.4,0,4.8c0.3,2.3,1.2,4.9,1.9,6.2c1.4,2.8,4.7,7.5,8.1,9.3c3.4,1.8,8.4,1.9,10.1,1.1
				c2.9-1.3,3.7-3.8,4.1-5.3c0.3-1.3,0.5-2.9,0.5-3.2c0,0,0,0,0,0c-0.3,0.7-2.3,5.1-3.6,6.2c-1.9,1.6-5,1.6-7.9,0.9
				c-2.9-0.7-7.7-4.7-9.9-9.1c-2.4-4.9-1.5-3.1-2.2-4.9C192.5,586.4,191.8,581.6,191.8,581.6z"/>
			<path d="M222.1,600C222,600,222,600,222.1,600c0.1,0.8,0.8,6.7,1.8,9.7c1,3,4.3,9,7.7,10.8c4.1,2.1,7.7,2.3,10.4,1.1
				c2.1-0.9,3.6-3.9,3.9-5.4c0.3-1.4,0.5-3,0.6-3.4c0,0,0,0,0,0c-0.3,0.7-2.3,5.5-3.6,6.5c-1.4,1.1-3.7,1.8-6.5,1.3
				c-3-0.5-7-2.7-9.3-7.2c-2.3-4.6-3.5-9.1-3.9-10.4C222.7,601.8,222.2,600.3,222.1,600z"/>
			<path d="M253.2,615.6C253.1,615.6,253.1,615.6,253.2,615.6c0.1,1.4,0.6,8,1.7,10.5c1.3,2.9,6.8,7.8,10.3,9.5s7.4,0.6,8.5-0.1
				c1.3-0.9,2.8-2.8,3.3-4.1c0.4-1.2,1-3.1,1-3.6c0,0,0,0-0.1,0c-0.4,0.8-2.7,5.2-4,6.2c-1.4,1.1-2.5,1.6-5.4,0.9
				c-5.2-1.2-10.2-6.3-11.5-8.4c-1.1-1.9-2.5-6.4-2.8-7.5C253.7,617.9,253.5,616.1,253.2,615.6z"/>
			<path d="M353.9,569.1c0-0.1,0.9,1.1,0.9,1.2c0.9,1.7,3.4,5,4.7,9.9c1.3,5,0.7,10.7-1.5,14.2c-2.1,3.3-4.9,4.5-6.3,4.6
				c-1.2,0.2-5.1-1-6.4-1.9c-1-0.6-1.4-1-1.9-1.5c-0.1-0.1,0-0.1,0.1-0.1c1.2,0.6,5,1.9,6.5,1.9c1.8-0.1,3.3-0.2,5.1-2.7
				s3-7.5,2.6-12.3C357.3,577.8,354.3,570.7,353.9,569.1z"/>
			<path d="M338.8,602.4C338.8,602.3,338.9,602.3,338.8,602.4c0.5,0.5,1.6,6.8,1.5,9.8c-0.1,2.9-1.7,7.5-4.5,10.8
				c-2.5,2.9-7.2,5.2-9.1,5.2c-1.9-0.1-5.1-2.6-5.9-3.8c-0.7-1-0.9-1.7-1.1-2.3c0-0.1,0-0.1,0.1-0.1c0.8,0.9,4.3,3.2,5.7,3.7
				c1.7,0.5,2.9,0.6,5.4-1.1c2.5-1.6,6.3-5.5,7.2-10.3c0.9-4.9,0.6-7.7,0.6-9C338.7,604,338.8,602.7,338.8,602.4z"/>
			<path d="M313.9,623.9C313.9,623.8,313.9,623.8,313.9,623.9c0,0.9-0.9,8.3-1.9,11c-1.1,2.9-4.8,8.1-8.4,9.6
				c-3.4,1.4-7.1,0.7-8.3,0.3c-1.2-0.3-4.4-2.6-5.5-4.4c-0.9-1.4-3.4-6.6-4.7-10.7c-0.1-0.2,5.9,9.7,7,10.6c1.3,1.1,4.9,3.1,8,3
				c3.1-0.2,6.1-1.8,8.8-5.9c2.6-4.1,3-6.2,3.8-8.3C313.3,626.6,313.7,624.3,313.9,623.9z"/>
		</g>
		<g>
			<g>
				<path d="M392,447.2c0,0.2-0.2,0.7-0.5,1.5c-0.3,0.8-0.7,1.8-1.1,3c-0.4,1.2-0.9,2.5-1.4,3.8c-0.5,1.3-1,2.6-1.4,3.8
					c-0.8,2.3-1.6,4.5-2.3,6.7c-0.7,2.2-1.5,4.5-2.2,6.8c-0.8,2.3-1.5,4.7-2.3,7.2c-0.8,2.5-1.6,5.2-2.4,8c-0.7,2.3-1.3,4.5-1.9,6.8
					c-0.6,2.2-1.1,4.3-1.6,6.2s-0.9,3.5-1.3,4.9c-0.4,1.4-0.7,2.3-1,2.8c-1.5,2.6-3,4.6-4.5,6c-0.7,0.6-1.4,0.9-2.2,0.9
					c-0.7,0-1.3-0.3-1.7-1c-0.4-0.7-0.9-1.8-1.2-3.2c-0.2-0.6-0.4-1.7-0.7-3.3c-0.3-1.6-0.6-3.4-0.9-5.4c-0.3-2-0.6-4.2-1-6.5
					c-0.3-2.3-0.6-4.5-0.9-6.6c-0.4-3-0.7-5.9-1.1-8.6c-0.3-2.7-0.7-5.3-0.9-7.8c-0.3-2.5-0.6-4.9-0.9-7.4c-0.3-2.4-0.6-4.9-0.9-7.5
					c-0.2,0.6-0.6,1.8-1.3,3.7c-0.7,1.9-1.5,4.1-2.4,6.8c-0.9,2.7-1.9,5.7-2.9,9c-1,3.3-2,6.7-3,10.2c-0.9,3.4-1.7,6.3-2.4,8.9
					c-0.7,2.6-1.3,4.7-1.7,6.5c-0.6,2.1-1,3.9-1.3,5.3c-0.3,0.9-0.6,1.6-0.8,2.2c-0.2,0.6-0.8,1.2-1.8,2c-0.3,0.2-0.8,0.5-1.5,0.8
					c-0.7,0.3-1.4,0.5-2,0.5c-0.4,0-0.7-0.3-0.7-0.9c0-0.3,0.1-0.8,0.3-1.5c0.2-0.7,0.4-1.3,0.6-1.9c0.6-1.9,1.6-4.8,2.8-8.7
					c1.2-3.9,2.6-8.3,4.1-13.2c1.5-4.9,3.1-10.2,4.8-15.7c1.7-5.5,3.3-10.8,4.8-15.9c0.2-0.8,0.4-1.5,0.7-2.4
					c0.3-0.8,0.6-1.6,0.9-2.3c0.3-0.7,0.5-1.3,0.8-1.9c0.2-0.5,0.4-0.8,0.5-0.9c0.1-0.2,0.3-0.4,0.4-0.6c0.2-0.2,0.4-0.4,0.6-0.6
					c0.3-0.3,0.8-0.6,1.6-0.9c0.7-0.4,1.5-0.6,2.4-0.6c0.8,0,1.4,0,1.6,0.1c0.3,0.1,0.5,0.3,0.8,0.6c0.3,0.3,0.4,0.7,0.5,1.1
					c0.1,1,0.2,1.9,0.3,2.6c0.1,0.7,0.2,1.6,0.3,2.6c0.1,1.1,0.3,2.7,0.5,4.6c0.2,2,0.5,4.1,0.8,6.5c0.3,2.4,0.6,5,0.9,7.7
					c0.3,2.7,0.6,5.4,0.9,8.1c0.3,1.8,0.5,3.8,0.9,5.9c0.3,2.1,0.6,4.1,1,6.1c0.3,2,0.7,3.9,1,5.6c0.3,1.8,0.6,3.3,0.9,4.5
					c1.8-5.9,3.5-11.7,5.1-17.4c0.7-2.4,1.4-4.9,2.2-7.5c0.8-2.6,1.5-5.1,2.2-7.6c0.7-2.5,1.4-4.9,2.1-7.3c0.7-2.3,1.3-4.5,1.9-6.4
					c0.2-0.7,0.4-1.4,0.6-2.2c0.2-0.8,0.4-1.5,0.6-2.2c0.2-0.7,0.4-1.3,0.6-1.9c0.2-0.5,0.4-0.9,0.6-1.1c0.3-0.5,0.8-1,1.5-1.5
					c0.7-0.5,1.6-0.9,2.7-1c0.3-0.1,0.6-0.1,0.9-0.1c0.3,0,0.5,0,0.9,0C391.9,446.3,392,446.6,392,447.2z"/>
				<path d="M427.4,503.3c-0.1,0.2-1,0.9-2.7,2.1c-1.7,1.2-3.8,2.5-6.4,3.8c-2.6,1.4-5.4,2.6-8.6,3.7c-3.2,1.1-6.4,1.7-9.5,1.7
					c-4,0-7-0.9-9-2.8c-2-1.9-3-4.9-3-9c0-2.7,0.7-5.9,2.2-9.8c1.5-3.9,3.9-7.7,7.2-11.7c1.9-2.3,3.8-4.2,5.8-5.9c2-1.6,3.9-3,5.7-4
					c1.8-1,3.6-1.8,5.2-2.2c1.6-0.5,3-0.7,4.1-0.7c1.8,0,3.1,0.2,3.8,0.7c0.7,0.5,1,1.3,1,2.5c0,1.5-1.1,3.5-3.2,5.9
					c-2.1,2.4-4.9,5.2-8.2,8.4c-1.3,1.3-2.9,2.7-4.6,4.3c-1.7,1.6-3.4,3.1-4.9,4.6c-1.8,1.6-3.7,3.3-5.5,5v1.4
					c0,3.4,0.8,5.8,2.3,7.1c1.5,1.3,3.7,1.9,6.4,1.9c2.5,0,5-0.5,7.5-1.4c2.5-0.9,4.8-1.9,6.8-3c2.4-1.3,4.7-2.8,6.9-4.5
					L427.4,503.3z M415.3,476c0-1-0.3-1.6-0.9-1.9c-0.6-0.3-1.2-0.4-1.9-0.4c-1.2,0-2.7,0.5-4.5,1.4s-3.5,2.4-5.1,4.5
					c-0.7,0.9-1.4,2-2.1,3.2c-0.7,1.3-1.3,2.7-1.9,4.2c-0.6,1.5-1.1,3.1-1.5,4.8c-0.4,1.7-0.6,3.3-0.7,5c1.3-1.1,2.6-2.2,3.9-3.3
					c1.1-1,2.4-2.1,3.7-3.3c1.3-1.2,2.6-2.4,3.8-3.7c2.1-2.1,3.8-4.1,5.2-5.8C414.6,479,415.3,477.4,415.3,476z"/>
				<path d="M462.9,502.1c0,0.3-0.9,1-2.7,2.4c-1.8,1.3-4.1,2.8-6.8,4.3c-2.8,1.5-5.8,2.9-9.1,4.1c-3.3,1.2-6.4,1.8-9.4,1.8
					c-3.5,0-6.2-0.8-8-2.5c-1.9-1.6-2.8-4.2-2.8-7.8c0-1.9,0.3-3.9,0.8-6.1c0.5-2.2,1.3-4.4,2.3-6.5c1-2.2,2.2-4.3,3.7-6.5
					c1.5-2.2,3.1-4.2,4.9-6.1c1.6-1.7,3.4-3.2,5.2-4.5c1.8-1.3,3.6-2.3,5.4-3.1c1.8-0.8,3.4-1.4,4.9-1.9c1.5-0.4,2.7-0.6,3.7-0.6
					c1.1,0,2.1,0.2,2.9,0.5c0.9,0.3,1.3,1.4,1.3,3.1c0,0.9-0.2,2.1-0.7,3.6c-0.4,1.5-1.3,2.8-2.6,3.9c-1.1,0.9-2.1,1.5-3,1.8
					c-0.9,0.3-1.6,0.4-2,0.4c-0.3,0-0.6-0.2-0.8-0.6l0.9-2.1c0.4-0.9,0.7-1.7,0.8-2.3c0.1-0.7,0.1-1.2,0.1-1.5
					c0-0.7-0.1-1.2-0.4-1.5c-0.3-0.3-0.8-0.5-1.6-0.5c-2,0-4.1,0.7-6.1,2c-2.1,1.4-3.9,3.2-5.6,5.6c-1.7,2.3-3.1,5.1-4.1,8.2
					c-1.1,3.1-1.6,6.5-1.6,10c0,1.1,0.1,2.2,0.2,3.5c0.1,1.2,0.4,2.4,0.9,3.4c0.5,1,1.2,1.9,2.1,2.5c0.9,0.7,2.2,1,3.7,1
					c2.4,0,4.4-0.3,6-0.8c1.6-0.5,3-1,4.1-1.5c1.8-0.8,3.4-1.5,4.8-2.4c1.5-0.8,2.7-1.6,3.7-2.2c1-0.7,1.9-1.2,2.4-1.7
					c0.6-0.4,0.9-0.7,1-0.7c0.3,0,0.5,0.1,0.8,0.2C462.8,501.3,462.9,501.6,462.9,502.1z"/>
				<path d="M487,507.6c-3.2,2.1-6,3.8-8.6,5c-2.6,1.3-4.9,2.1-6.9,2.6c-2,0.5-3.7,0.8-5.1,0.8c-1.1,0-1.9-0.2-2.6-0.5
					c-0.6-0.3-1.1-0.7-1.4-1.1c-0.3-0.4-0.5-0.9-0.6-1.5c-0.1-0.5-0.1-1-0.1-1.5c0-1,0.2-2.5,0.6-4.4c0.4-1.9,1.1-4.4,2-7.4
					c0.8-2.4,1.4-4.4,2-6.1c0.6-1.7,1.2-3.3,1.8-4.9s1.2-3.3,1.8-5.1c0.6-1.8,1.4-4,2.3-6.7c-0.7,0.1-1.4,0.1-2.1,0.2
					c-0.6,0.1-1.1,0.1-1.7,0.1s-1,0-1.3,0c-0.3,0-0.7,0-1.1-0.1c-0.4-0.1-0.6-0.4-0.6-0.9c0-1.1,0.5-1.9,1.6-2.5
					c1-0.6,2-0.9,2.8-0.9h3.9l3.5-9.4c0.6-1.5,1.3-2.9,2.2-4.1c0.9-1.2,2.1-2.1,3.6-2.6c0.8-0.3,1.8-0.5,2.8-0.5
					c0.6,0,0.9,0.3,0.9,0.9c-0.3,0.6-0.6,1.2-0.8,1.6c-0.2,0.4-0.4,0.9-0.7,1.3c-0.2,0.4-0.4,0.9-0.7,1.4c-0.2,0.5-0.5,1.1-0.7,1.9
					l-3.6,9.5h6.5c0.9,0,1.8,0,2.8,0c1,0,1.9-0.1,2.8-0.1c0.9-0.1,1.6-0.1,2.3-0.1c0.6,0,1,0,1.2,0c0.8,0,1.2,0.2,1.2,0.7
					c0,0.6-0.7,1.2-2,1.8c-0.6,0.3-1.3,0.6-2.3,0.9c-1,0.3-2.2,0.6-3.6,0.8c-0.9,0.1-2,0.2-3.1,0.2c-1.1,0-2.2,0.1-3.3,0.1
					c-1.2,0.1-2.4,0.1-3.6,0.1c-0.3,0.7-0.7,1.9-1.2,3.5s-1.2,3.4-1.9,5.5c-0.7,2-1.5,4.2-2.2,6.4c-0.8,2.3-1.5,4.4-2.1,6.4
					c-0.7,2-1.2,3.7-1.6,5.2c-0.4,1.5-0.6,2.5-0.6,3.1c0,0.4,0,0.8,0,1.3c0,0.5,0.1,0.9,0.3,1.3c0.2,0.4,0.5,0.7,0.9,1
					c0.4,0.3,0.9,0.4,1.6,0.4c2,0,4.2-0.4,6.5-1.3c2.3-0.9,4.6-2,6.8-3.2c2.2-1.3,4.3-2.6,6.2-4.1c1.9-1.5,3.5-2.8,4.8-3.9l1,1.1
					C493.6,502.8,490.2,505.5,487,507.6z"/>
				<path d="M545.6,501.6c-2,2-4.3,3.9-6.8,5.7c-2.5,1.8-5,3.3-7.4,4.6c-2.4,1.3-4.7,2.4-6.7,3.1c-2.1,0.8-3.7,1.1-4.8,1.1
					c-0.9,0-1.6-0.3-2.2-0.9c-0.6-0.6-0.9-1.9-0.9-3.7c0-1.5,0.1-3,0.4-4.6s0.6-2.9,0.9-4.3h-0.4c-2.8,3.5-5.9,6.3-9.1,8.4
					c-3.2,2.1-6.1,3.1-8.7,3.1c-2.4,0-4-0.8-4.7-2.3c-0.8-1.5-1.1-3.6-1.1-6.2c0-1.7,0.3-3.6,0.8-5.7c0.5-2.1,1.2-4.3,2.2-6.4
					c0.9-2.2,2.1-4.2,3.4-6.3c1.3-2,2.8-3.9,4.6-5.5c4.1-3.9,8-6.6,11.7-8.1c3.7-1.5,7.2-2.2,10.7-2.2c0.6,0,1.4,0.1,2.4,0.2
					c0.9,0.2,1.9,0.4,2.8,0.9c0.9,0.4,1.7,1,2.4,1.7c0.7,0.7,1,1.6,1,2.7c0,0.7,0,1.3-0.1,1.8c-0.1,0.5-0.3,0.9-0.5,1.3
					c-0.3,0.4-0.6,0.8-1,1.2c-0.4,0.4-1,0.9-1.6,1.5c-0.5,1.4-1.1,2.7-1.7,3.8c-0.6,1.2-1.4,2.8-2.2,4.8c-1.6,4-2.8,7.4-3.6,10.1
					c-0.8,2.7-1.2,4.8-1.2,6.5c0,0.9,0.1,1.6,0.4,2.2s0.9,0.9,1.8,0.9c0.9,0,2.1-0.3,3.6-0.8c1.4-0.5,3-1.3,4.6-2.3
					c1.7-1,3.4-2.1,5.2-3.5s3.5-2.8,5.2-4.5L545.6,501.6z M529.6,477.9c-0.2-0.6-0.5-1-0.9-1.4c-0.4-0.4-0.9-0.7-1.4-0.9
					c-0.5-0.3-1-0.4-1.6-0.5c-0.5-0.1-1-0.1-1.5-0.1c-1.6,0-3.2,0.2-4.6,0.5c-1.4,0.3-2.8,0.9-4.1,1.7c-1.3,0.8-2.7,1.9-4,3.3
					c-1.4,1.4-2.8,3.3-4.3,5.6c-0.8,1.1-1.5,2.5-2.2,4.1c-0.7,1.6-1.3,3.2-1.8,4.8c-0.5,1.6-0.9,3.2-1.2,4.6
					c-0.3,1.5-0.4,2.7-0.4,3.7c0,2,0.4,3.4,1.2,4.1c0.8,0.7,1.6,1.1,2.5,1.1c2.1,0,4.6-1.1,7.3-3.2c2.7-2.1,5.2-5.6,7.4-10.3
					c0.9-2,1.7-3.9,2.2-5.6c0.5-1.7,1.1-3.3,1.8-4.8c0.2-0.5,0.5-1.1,0.9-1.9c0.4-0.8,0.9-1.5,1.4-2.1c0.5-0.7,1.1-1.2,1.6-1.7
					C528.5,478.2,529,477.9,529.6,477.9z"/>
				<path d="M576,506.1c-2.1,1.6-4.4,3.1-7,4.6c-2,1.1-3.6,1.9-5,2.6c-1.4,0.6-2.6,1.1-3.6,1.4c-1,0.3-1.9,0.5-2.6,0.6
					c-0.7,0.1-1.3,0.1-1.7,0.1c-1.2,0-2-0.3-2.5-1c-0.4-0.7-0.7-1.5-0.7-2.4c0-0.3,0-0.7,0.1-1.3c0.1-0.6,0.3-1.5,0.6-2.6
					c0.3-1.1,0.7-2.5,1.2-4.1c0.5-1.6,1.2-3.5,2-5.7c0.4-1.1,1-2.5,1.7-4.2c0.7-1.7,1.4-3.4,2.1-5.1c0.7-1.7,1.4-3.3,2-4.7
					c0.6-1.5,1.1-2.5,1.4-3.1l-0.3-0.4c-1.5,0.9-3,1.6-4.6,2c-1.6,0.5-3.2,0.7-4.6,0.7c-1.5,0-2.8-0.3-4-0.8
					c-1.2-0.5-2.1-1.5-2.6-3.1l-1,1.5c-0.2,0.2-0.4,0.3-0.6,0.3c-0.2,0-0.4-0.1-0.6-0.2c-0.2-0.2-0.3-0.4-0.3-0.7
					c0-0.3,0.1-0.6,0.3-0.9l1.4-2.4c-0.1-0.3-0.1-0.7-0.1-1c0-0.4,0-0.8,0-1.3c0-1,0.1-2.1,0.3-3.4c0.2-1.2,0.6-2.4,1.1-3.5
					c0.5-1.1,1.2-2,2-2.7c0.9-0.7,1.9-1,3.3-1c0.7,0,1.4,0.2,2,0.7c0.7,0.4,1,1.3,1,2.7c0,0.5-0.1,1.1-0.3,1.9
					c-0.2,0.7-0.4,1.5-0.7,2.2c-0.3,0.7-0.6,1.4-0.9,2.1c-0.3,0.7-0.7,1.3-1.1,1.7c0.1,0.8,0.3,1.5,0.6,1.9c0.3,0.5,0.8,0.8,1.2,1.1
					c0.5,0.3,1,0.4,1.5,0.5c0.5,0.1,0.9,0.1,1.2,0.1c0.9,0,1.8-0.1,2.8-0.2c1-0.2,2.4-0.6,4.2-1.3c0.9-0.4,1.7-0.8,2.6-1.1
					c0.8-0.4,1.6-0.6,2.3-0.6c0.8,0,1.1,0.3,1.1,1c0,0.4-0.1,1-0.3,1.7c-0.2,0.7-0.4,1.4-0.7,2.2c-0.3,0.8-0.5,1.5-0.8,2.2
					c-0.3,0.7-0.5,1.3-0.7,1.8c-0.6,1.6-1.4,3.6-2.3,5.9c-0.9,2.4-1.7,4.7-2.5,7.1c-0.8,2.3-1.5,4.4-2,6.2c-0.6,1.8-0.9,2.8-0.9,3.2
					c0,1.1,0.2,1.7,0.6,1.9c0.4,0.2,1,0.2,1.9,0.2c2,0,4.4-0.7,7.3-2.1c2.8-1.4,5.8-3.3,9-5.7l0.9,1.1
					C579.6,503.3,578.1,504.5,576,506.1z"/>
				<path d="M654.5,483.9c-0.3,1-0.9,1.8-1.6,2.5c-0.8,0.6-1.6,1.1-2.7,1.4c-1,0.3-2.1,0.5-3.3,0.7c-1.2,0.1-2.3,0.2-3.5,0.2h-1.7
					c-0.3,0-0.4,0-0.6-0.1c0,1.1-0.3,2.5-0.8,4.2c-0.5,1.7-1.3,3.6-2.3,5.6c-1,2-2.2,3.9-3.7,5.9c-1.5,2-3.1,3.8-5,5.4
					c-1.9,1.6-3.9,2.9-6.2,3.9c-2.3,1-4.7,1.5-7.3,1.5c-4.4,0-7.8-1.4-10.2-4.1c-2.3-2.7-3.5-6.9-3.5-12.4c0-3.6,0.6-7.4,1.8-11.4
					c1.2-4,2.8-7.9,4.9-11.8c2.1-3.9,4.5-7.5,7.4-11c2.8-3.5,5.8-6.5,8.9-9.2s6.4-4.8,9.7-6.3c3.3-1.5,6.6-2.3,9.7-2.3
					c0.6,0,1.3,0,2,0.1c0.7,0.1,1.4,0.3,2,0.7c0.6,0.4,1.1,0.9,1.5,1.6c0.4,0.7,0.6,1.6,0.6,2.7c0,1.3-0.3,2.5-0.8,3.6
					c-0.5,1.1-1.2,2.1-1.9,2.9c-0.7,0.8-1.5,1.5-2.2,1.9s-1.4,0.7-1.8,0.7c-0.4,0-0.6-0.2-0.6-0.7c0-0.3,0.1-0.6,0.4-1.2
					c0.3-0.5,0.4-1.6,0.4-3.3c0-1.5-0.5-2.5-1.4-3c-0.9-0.6-2-0.9-3.2-0.9c-3.6,0-7.2,1.3-10.8,3.8c-3.6,2.5-6.8,5.9-9.6,10
					c-2.8,4.1-5.1,8.9-6.9,14.2c-1.7,5.3-2.6,10.8-2.6,16.5c0,1.8,0.1,3.7,0.4,5.5c0.3,1.8,0.7,3.5,1.4,4.9c0.7,1.5,1.6,2.6,2.8,3.6
					c1.2,0.9,2.7,1.4,4.6,1.4c2.7,0,5.1-0.9,7.1-2.7c2-1.8,3.7-3.9,5-6.4c1.3-2.5,2.3-5,2.9-7.5c0.6-2.6,0.9-4.6,0.9-6.2v-0.5
					c-0.4,0-0.8,0-1.2,0c-0.4,0-0.9,0-1.3,0c-0.8,0-1.4-0.1-2-0.4c-0.6-0.3-0.9-0.8-0.9-1.7c0-1,0.4-1.8,1.1-2.3
					c0.8-0.5,1.6-0.8,2.5-0.8c1.6,0,2.8,0.1,3.8,0.2c0.9,0.1,2.2,0.2,3.6,0.3c1.6,0.1,3,0.1,3.9,0.1c1,0,2.1,0,3.5,0
					c1.5,0,2.7,0,3.8-0.1C653,484,653.8,484,654.5,483.9z"/>
				<path d="M701.7,501.6c-2,2-4.3,3.9-6.8,5.7c-2.5,1.8-5,3.3-7.4,4.6c-2.4,1.3-4.7,2.4-6.7,3.1c-2.1,0.8-3.7,1.1-4.8,1.1
					c-0.9,0-1.6-0.3-2.2-0.9c-0.6-0.6-0.9-1.9-0.9-3.7c0-1.5,0.1-3,0.4-4.6s0.6-2.9,0.9-4.3h-0.4c-2.8,3.5-5.9,6.3-9.1,8.4
					c-3.2,2.1-6.1,3.1-8.7,3.1c-2.4,0-4-0.8-4.7-2.3c-0.8-1.5-1.1-3.6-1.1-6.2c0-1.7,0.3-3.6,0.8-5.7c0.5-2.1,1.2-4.3,2.2-6.4
					c0.9-2.2,2.1-4.2,3.4-6.3c1.3-2,2.8-3.9,4.6-5.5c4.1-3.9,8-6.6,11.7-8.1c3.7-1.5,7.2-2.2,10.7-2.2c0.6,0,1.4,0.1,2.4,0.2
					c0.9,0.2,1.9,0.4,2.8,0.9c0.9,0.4,1.7,1,2.4,1.7c0.7,0.7,1,1.6,1,2.7c0,0.7,0,1.3-0.1,1.8c-0.1,0.5-0.3,0.9-0.5,1.3
					c-0.3,0.4-0.6,0.8-1,1.2c-0.4,0.4-1,0.9-1.6,1.5c-0.5,1.4-1.1,2.7-1.7,3.8c-0.6,1.2-1.4,2.8-2.2,4.8c-1.6,4-2.8,7.4-3.6,10.1
					s-1.2,4.8-1.2,6.5c0,0.9,0.1,1.6,0.4,2.2c0.3,0.6,0.9,0.9,1.8,0.9c0.9,0,2.1-0.3,3.6-0.8c1.4-0.5,3-1.3,4.7-2.3
					c1.7-1,3.4-2.1,5.2-3.5s3.5-2.8,5.2-4.5L701.7,501.6z M685.7,477.9c-0.2-0.6-0.5-1-0.9-1.4c-0.4-0.4-0.9-0.7-1.4-0.9
					c-0.5-0.3-1-0.4-1.6-0.5c-0.5-0.1-1-0.1-1.5-0.1c-1.6,0-3.2,0.2-4.6,0.5c-1.4,0.3-2.8,0.9-4.1,1.7c-1.3,0.8-2.7,1.9-4,3.3
					c-1.4,1.4-2.8,3.3-4.3,5.6c-0.8,1.1-1.5,2.5-2.2,4.1c-0.7,1.6-1.3,3.2-1.8,4.8c-0.5,1.6-0.9,3.2-1.2,4.6
					c-0.3,1.5-0.4,2.7-0.4,3.7c0,2,0.4,3.4,1.2,4.1c0.8,0.7,1.6,1.1,2.5,1.1c2.2,0,4.6-1.1,7.3-3.2c2.7-2.1,5.2-5.6,7.4-10.3
					c0.9-2,1.7-3.9,2.2-5.6c0.5-1.7,1.1-3.3,1.8-4.8c0.2-0.5,0.5-1.1,0.9-1.9c0.4-0.8,0.9-1.5,1.4-2.1c0.5-0.7,1.1-1.2,1.6-1.7
					C684.6,478.2,685.2,477.9,685.7,477.9z"/>
				<path d="M732.1,506.1c-2.1,1.6-4.4,3.1-7,4.6c-2,1.1-3.6,1.9-5,2.6c-1.4,0.6-2.6,1.1-3.6,1.4c-1,0.3-1.9,0.5-2.6,0.6
					c-0.7,0.1-1.3,0.1-1.7,0.1c-1.2,0-2-0.3-2.5-1c-0.4-0.7-0.7-1.5-0.7-2.4c0-0.3,0-0.7,0.1-1.3c0.1-0.6,0.3-1.5,0.6-2.6
					c0.3-1.1,0.7-2.5,1.2-4.1c0.5-1.6,1.2-3.5,2-5.7c0.4-1.1,1-2.5,1.7-4.2c0.7-1.7,1.4-3.4,2.1-5.1c0.7-1.7,1.4-3.3,2-4.7
					c0.6-1.5,1.1-2.5,1.4-3.1l-0.3-0.4c-1.5,0.9-3,1.6-4.7,2c-1.6,0.5-3.2,0.7-4.6,0.7c-1.5,0-2.8-0.3-4-0.8
					c-1.2-0.5-2.1-1.5-2.6-3.1l-1,1.5c-0.2,0.2-0.4,0.3-0.6,0.3c-0.2,0-0.4-0.1-0.6-0.2c-0.2-0.2-0.3-0.4-0.3-0.7
					c0-0.3,0.1-0.6,0.3-0.9l1.4-2.4c-0.1-0.3-0.1-0.7-0.1-1c0-0.4,0-0.8,0-1.3c0-1,0.1-2.1,0.3-3.4c0.2-1.2,0.6-2.4,1.1-3.5
					c0.5-1.1,1.2-2,2-2.7c0.9-0.7,1.9-1,3.3-1c0.7,0,1.4,0.2,2,0.7c0.7,0.4,1,1.3,1,2.7c0,0.5-0.1,1.1-0.3,1.9
					c-0.2,0.7-0.4,1.5-0.7,2.2c-0.3,0.7-0.6,1.4-0.9,2.1c-0.3,0.7-0.7,1.3-1.1,1.7c0.1,0.8,0.3,1.5,0.6,1.9c0.3,0.5,0.8,0.8,1.2,1.1
					c0.5,0.3,1,0.4,1.5,0.5c0.5,0.1,0.9,0.1,1.2,0.1c0.9,0,1.8-0.1,2.8-0.2c1-0.2,2.4-0.6,4.2-1.3c0.9-0.4,1.7-0.8,2.6-1.1
					c0.8-0.4,1.6-0.6,2.3-0.6c0.8,0,1.1,0.3,1.1,1c0,0.4-0.1,1-0.3,1.7c-0.2,0.7-0.4,1.4-0.7,2.2c-0.3,0.8-0.5,1.5-0.8,2.2
					c-0.3,0.7-0.5,1.3-0.7,1.8c-0.6,1.6-1.4,3.6-2.3,5.9c-0.9,2.4-1.7,4.7-2.5,7.1c-0.8,2.3-1.5,4.4-2,6.2c-0.6,1.8-0.9,2.8-0.9,3.2
					c0,1.1,0.2,1.7,0.6,1.9c0.4,0.2,1,0.2,1.9,0.2c2,0,4.4-0.7,7.3-2.1c2.8-1.4,5.8-3.3,9-5.7l0.9,1.1
					C735.7,503.3,734.2,504.5,732.1,506.1z"/>
				<path d="M786.6,501.1c-2.1,1.7-4.3,3.4-6.7,4.9c-2.4,1.6-4.6,3-6.7,4.2c-2.1,1.2-4,2.2-5.8,2.9c-1.7,0.7-3,1.1-3.8,1.1
					c-1.5,0-2.5-0.4-3.1-1.2c-0.6-0.8-0.9-2.3-0.9-4.5c0-0.4,0.1-1.1,0.2-1.9c0.1-0.9,0.3-1.8,0.4-2.8c0.2-1,0.3-2,0.6-3
					c0.2-1,0.4-2,0.6-2.8l-0.3-0.1c-1.8,2-3.4,4-4.9,5.8c-1.5,1.9-3.4,3.8-5.6,5.7c-1.3,1.2-2.5,2.2-3.5,2.9c-1,0.7-1.9,1.3-2.8,1.7
					c-0.9,0.4-1.6,0.7-2.4,0.8c-0.7,0.1-1.5,0.2-2.3,0.2c-2,0-3.3-0.6-4.1-1.9c-0.8-1.2-1.2-2.9-1.2-5.1c0-4.2,0.9-8.4,2.8-12.5
					c1.9-4.2,4.3-8,7.4-11.4c3.1-3.4,6.6-6.3,10.5-8.5c4-2.3,8-3.7,12.2-4.2l3.3-0.4c1.2-3.3,2.3-6.3,3.3-9.1
					c0.4-1.2,0.9-2.4,1.3-3.6c0.4-1.2,0.8-2.3,1.2-3.3c0.4-1,0.7-2,0.9-2.8c0.3-0.8,0.4-1.4,0.6-1.8c0.2-0.7,0.5-1.3,0.9-1.8
					c0.4-0.5,1-1,1.8-1.5c0.7-0.5,1.4-0.9,2-1.1c0.6-0.2,1.2-0.4,1.7-0.5c0.6-0.1,1.2-0.2,1.7-0.3c0.6,0,0.9,0.3,0.9,0.9
					c-0.5,1.1-1,2.3-1.4,3.4c-0.4,1-0.8,2.1-1.2,3.2c-0.4,1.1-0.9,2.2-1.2,3.3l-7.6,20.8c-0.8,2.2-1.6,4.4-2.4,6.7
					c-0.8,2.3-1.6,4.5-2.3,6.5c-0.7,2-1.3,3.8-1.8,5.4c-0.5,1.6-0.9,2.7-1,3.4c-0.3,1.2-0.6,2.4-0.9,3.5s-0.4,2.2-0.4,3.1
					c0,0.5,0.2,1.2,0.5,2c0.3,0.8,1,1.2,1.9,1.2c1.1,0,2.5-0.4,4-1.1c1.5-0.7,3.1-1.6,4.7-2.6c1.6-1,3.2-2,4.7-3.1
					c1.5-1.1,2.7-2,3.7-2.7L786.6,501.1z M765.6,475.3c-3.5,0-6.7,0.9-9.5,2.7c-2.8,1.8-5.1,4.1-7.1,6.9c-1.9,2.8-3.4,5.9-4.4,9.2
					c-1,3.4-1.5,6.7-1.5,9.9c0,1,0.2,2,0.5,3c0.3,1.1,0.9,1.6,1.6,1.6c0.4,0,0.8,0,1.3-0.1s1-0.4,1.7-0.8c0.7-0.4,1.5-1,2.5-1.9
					c1-0.9,2.2-2,3.7-3.6c0.6-0.7,1.4-1.5,2.3-2.5c0.9-1,1.8-2,2.6-3.1c0.9-1.1,1.7-2.3,2.4-3.6c0.8-1.2,1.4-2.5,1.9-3.8l5.5-14
					H765.6z"/>
				<path d="M821,503.3c-0.1,0.2-1,0.9-2.7,2.1c-1.7,1.2-3.8,2.5-6.4,3.8c-2.6,1.4-5.4,2.6-8.6,3.7c-3.2,1.1-6.4,1.7-9.5,1.7
					c-4,0-7-0.9-9-2.8s-3-4.9-3-9c0-2.7,0.7-5.9,2.2-9.8c1.5-3.9,3.9-7.7,7.2-11.7c1.9-2.3,3.8-4.2,5.8-5.9c2-1.6,3.9-3,5.7-4
					c1.8-1,3.6-1.8,5.2-2.2c1.6-0.5,3-0.7,4.1-0.7c1.8,0,3.1,0.2,3.8,0.7c0.7,0.5,1,1.3,1,2.5c0,1.5-1.1,3.5-3.2,5.9
					c-2.1,2.4-4.9,5.2-8.2,8.4c-1.3,1.3-2.9,2.7-4.6,4.3c-1.7,1.6-3.4,3.1-4.9,4.6c-1.8,1.6-3.7,3.3-5.5,5v1.4
					c0,3.4,0.8,5.8,2.3,7.1c1.5,1.3,3.7,1.9,6.4,1.9c2.5,0,5-0.5,7.5-1.4c2.5-0.9,4.8-1.9,6.8-3c2.4-1.3,4.7-2.8,6.9-4.5L821,503.3z
					 M808.8,476c0-1-0.3-1.6-0.9-1.9c-0.6-0.3-1.2-0.4-1.9-0.4c-1.2,0-2.7,0.5-4.5,1.4c-1.8,0.9-3.5,2.4-5.1,4.5
					c-0.7,0.9-1.4,2-2.1,3.2c-0.7,1.3-1.3,2.7-1.9,4.2c-0.6,1.5-1.1,3.1-1.5,4.8c-0.4,1.7-0.6,3.3-0.7,5c1.3-1.1,2.6-2.2,3.9-3.3
					c1.1-1,2.4-2.1,3.7-3.3c1.3-1.2,2.6-2.4,3.8-3.7c2.1-2.1,3.8-4.1,5.2-5.8C808.2,479,808.8,477.4,808.8,476z"/>
				<path d="M859.1,504.5c-2.4,1.9-4.9,3.6-7.5,5.3c-2.5,1.6-5,3-7.3,4.1c-2.3,1.1-4.2,1.6-5.7,1.6c-0.5,0-0.8-0.2-1-0.6
					c-0.2-0.4-0.2-0.9-0.2-1.4c0-0.5,0.1-1.3,0.4-2.5c0.3-1.1,0.6-2.4,1-3.9c0.4-1.5,0.9-3,1.3-4.7c0.5-1.6,0.9-3.2,1.4-4.7
					c0.6-1.9,1.1-3.7,1.7-5.6c0.5-1.8,1-3.4,1.4-4.9c0.4-1.5,0.7-2.7,1-3.7c0.3-1,0.4-1.6,0.4-1.9c0-0.6,0-1.1-0.1-1.4
					c-0.1-0.3-0.3-0.4-0.9-0.4c-0.4,0-1.1,0.4-2,1.1c-1,0.7-2.1,1.7-3.4,2.9c-1.3,1.2-2.6,2.6-4.1,4.2c-1.5,1.6-2.9,3.2-4.3,4.9
					c-1.8,2.2-3.2,4.2-4.4,6.3c-1.1,2-2.2,4-3,5.8c-0.9,1.9-1.7,3.4-2.3,4.5c-0.7,1.1-1.3,1.9-1.8,2.5c-0.5,0.6-1,0.9-1.5,1.1
					s-1,0.3-1.6,0.3c-0.6,0-1-0.2-1.1-0.7s-0.1-0.8-0.1-1.1c0-1.4,0.6-3.5,1.8-6.3c0.5-1.1,0.9-2,1.3-2.8c0.3-0.8,0.6-1.4,0.7-1.9
					l4.1-14c0.3-0.8,0.5-1.7,0.8-2.7c0.3-1,0.5-1.9,0.8-2.9c0.3-0.9,0.5-1.8,0.7-2.6s0.3-1.3,0.5-1.6c0.3-1,0.7-1.9,1.5-2.7
					c0.7-0.8,1.5-1.4,2.4-1.9c0.9-0.5,1.7-0.8,2.5-1.1c0.8-0.3,1.4-0.4,1.9-0.4c0.4,0,0.7,0.3,0.7,1c-0.1,0.5-0.3,1.5-0.8,2.9
					c-0.5,1.4-0.9,2.8-1.4,4.1c-0.6,1.8-1.1,3.3-1.5,4.6c-0.4,1.3-0.8,2.4-1.2,3.5c-0.4,1-0.7,2-1,2.8c-0.3,0.9-0.6,1.7-0.8,2.6h0.4
					c5.9-6.5,11.1-11.5,15.6-15c4.5-3.5,7.8-5.2,9.8-5.2c0.4,0,0.7,0.1,0.9,0.4c0.2,0.3,0.2,0.7,0.2,1.4c0,1.5-0.5,3.8-1.6,7.1
					c-1,3.3-2.2,7-3.5,11.2c-0.2,0.8-0.5,1.9-1,3.4s-1,3-1.5,4.6c-0.5,1.6-0.9,3-1.3,4.3s-0.6,2.1-0.6,2.4c0,0.4,0,0.8,0.1,1
					c0.1,0.3,0.3,0.4,0.8,0.4c0.8,0,1.9-0.3,3.3-0.9c1.4-0.6,2.9-1.4,4.6-2.4c1.7-1,3.4-2.1,5.1-3.4c1.7-1.3,3.4-2.5,4.9-3.8
					l0.9,1.1C863.6,500.8,861.5,502.6,859.1,504.5z"/>
				<path d="M895.6,473.1c-0.6,1.5-1.3,2.6-2.2,3.3c-0.9,0.7-2.1,1.3-3.7,1.8c-0.2-0.7-0.6-1.3-1.1-1.8c-0.5-0.5-1.2-0.9-1.9-1.1
					c-0.8-0.3-1.6-0.5-2.4-0.6c-0.8-0.1-1.6-0.2-2.2-0.2c-0.9,0-1.9,0.1-2.9,0.4c-1,0.3-1.9,0.7-2.7,1.2c-0.8,0.6-1.4,1.3-1.9,2.2
					c-0.5,0.9-0.8,1.9-0.8,3.1c0,1.3,0.5,2.5,1.5,3.4c1,0.9,2.2,1.8,3.7,2.7c1.5,0.9,3,1.7,4.7,2.6c1.7,0.9,3.3,1.9,4.7,3.1
					c0.9,0.9,1.6,1.8,1.9,2.6c0.3,0.9,0.5,1.8,0.5,2.9c0,1.3-0.3,2.7-1,4.1c-0.7,1.4-1.6,2.7-2.7,4c-1.1,1.3-2.4,2.5-3.8,3.6
					c-1.4,1.1-2.9,2-4.3,2.6c-1.6,0.8-3.3,1.3-4.9,1.7c-1.6,0.3-3.1,0.5-4.3,0.5c-1.6,0-3.1-0.2-4.5-0.5c-1.4-0.3-2.7-0.9-3.8-1.6
					c-1.1-0.7-2-1.6-2.6-2.7c-0.6-1-0.9-2.3-0.9-3.7c0-1.5,0.6-3,1.9-4.5c1.3-1.5,3.2-2.4,5.9-2.9c-0.4,0.5-0.7,1.1-0.8,1.7
					c-0.1,0.6-0.1,1.2-0.1,1.7c0,1.1,0.2,2.1,0.5,3.1c0.3,1,0.9,1.9,1.6,2.7c0.7,0.8,1.7,1.4,2.8,1.9c1.2,0.5,2.6,0.7,4.2,0.7
					c2.8,0,5.3-0.8,7.2-2.4c2-1.6,2.9-3.7,2.9-6.3c0-2.5-0.9-4.3-2.8-5.5c-2-1.2-3.9-2.3-5.6-3.3c-1.7-1-3.2-1.9-4.5-2.9
					c-1.3-0.9-2.2-1.9-2.9-2.9c-0.7-1-1-2.2-1-3.5c0-2.3,0.7-4.3,2.1-6c1.4-1.7,3.1-3.1,5.2-4.2c2.1-1.1,4.3-1.9,6.7-2.5
					c2.4-0.5,4.6-0.8,6.6-0.8c1.2,0,2.3,0.1,3.2,0.3c0.9,0.2,1.8,0.5,2.5,0.8C894.3,472.3,895,472.7,895.6,473.1z"/>
			</g>
		</g>
	</g>
	<g>
		<rect x="105" y="665.3" width="847.8" height="356.8"/>
		<g>
			<path class="st3" d="M219.8,869.5c-0.1-0.2-5.4,5.5-6.7,7c-0.2,0.2-0.4,0.5-0.5,0.8c-4.4,8.1-24.1,45.3-24.6,49.4
				c-0.3,2.4-0.5,5-0.4,5.7c0,0,0,0,0.1,0l1.4-5.6c0.1-0.6,1.2-2.9,1.5-3.5c1.4-2.8,5.8-11.9,6.9-14.4c1.2-2.6,12.8-23.2,15.5-29.5
				c0.7-1.5,1.5-2.9,2.5-4.2L219.8,869.5z"/>
			<path class="st3" d="M315.2,894.6c-2-1.8,19.5,18.4,22.6,21c0.1,0.1,4.6,4.3,5.5,4.2c1.1-0.1-33.1-31.7-36.4-34.5
				c-3.7-3.1-17.4-11.1-18.3-10c0,0,2.6,1.3,2.7,1.4l7.6,4.7C306.1,886.1,305.5,886.1,315.2,894.6z"/>
			<path class="st3" d="M317,800.8c0-0.1,0.1-0.5,0.1-0.4c0,1.3-0.2,6.5-1.7,10.9c-1.7,5.2-8.1,19.5-11.1,25.1
				c-2.6,4.9-13.3,20.3-15.7,24c-2.1,3.3-9.6,12.2-10.5,13.2c-0.8,1,6.5-11,7.9-13.6c1.6-2.8,14.4-22.9,15.9-25.4
				c1.5-2.5,8.6-17.1,9.8-20.4C313.1,811.2,316.3,802.6,317,800.8z"/>
			<path class="st3" d="M278.5,882.1C278.5,882.1,278.5,882.1,278.5,882.1c0.1,0.6,0.8,5.6,0.7,7.9c-0.1,2.1-1,10.7-2.1,15
				c-1.9,7-9.2,24.4-10.2,26.9c-1,2.5,5.2-15.4,4.5-13.5c0,0.1,1.5-4.5,2.7-10c1.6-6.9,3-15.1,3.3-16.8
				C277.8,888.7,278.4,883.2,278.5,882.1z"/>
			<path class="st3" d="M232.2,861.3c0-0.2-0.1-0.1-0.1,0c-0.4,2.2,0,7.8,0,10.6c0,3.8,1.9,16,2.6,18.7c0.7,2.4,5.3,18.2,7.6,22.8
				c2.3,4.6,12.7,14.5,15,16.3c2.3,1.9-10.2-11.4-13-17.2c-2.9-6.1-4.2-12.4-5-14.6c-1.4-3.9-3-11.1-3.8-15.3
				C235.1,880.4,233,865.3,232.2,861.3z"/>
			<path class="st3" d="M260.1,784c0,0,0-0.3,0-0.3c-1.1,1-14.6,14.2-17.1,17.4c-2.7,3.3-16.1,26.1-17.4,31.2
				c-1,4-2.5,21.1-2.1,24.7c0.3,2.7,0.6,4.3,0.8,4.9c0,0.1,0.1,0,0.1,0c0.2-2.7,1.7-23.2,2.9-28c1.3-5.2,9-18,10.9-20.9
				c2-3,4.6-7.7,6.5-10.9C246.4,799.1,258.8,785,260.1,784z"/>
			<path class="st3" d="M344.1,758.8c0.2,0.2,0.1-0.2-0.1-0.4c-2.7-3-9.8-10.2-14.8-10.9c-6.3-0.8-19.2-0.2-25.5,3.8
				c-4.6,2.9-9.6,7.2-11.9,9.3c-0.1,0.1-0.4,0.4-0.2,0.3c2.1-1.3,6.2-4,8.9-5.7c3.9-2.5,8.1-4.4,12.2-5.2c4.2-0.8,14.5-1.4,17-0.5
				c3.2,1.1,7.6,4.2,9.4,5.7C340.3,755.9,343,758.1,344.1,758.8z"/>
			<path class="st3" d="M346.1,777.1c0.1-0.1,0.3,0.1,0.2,0.2c-1.8,2-5,5.6-6.4,6.9c-1.8,1.6-8.3,6.9-9.7,7.8
				c-0.6,0.4-6,3.3-6.9,3.3c-0.9,0,0.3-0.5,1.4-1c3.2-1.6,9.2-6.6,11-8.3C337.9,784,343.3,779.4,346.1,777.1z"/>
			<path class="st3" d="M286.2,766.6C286.3,766.6,286.3,766.6,286.2,766.6c-0.4-0.1-4.7-0.6-7.9-0.8c-3-0.2-8.1,1.2-9.4,1.6
				c0,0,0,0.1,0,0.1L286.2,766.6z"/>
			<path class="st3" d="M262.6,763.3c0,0-61.3-45-64.4-45.9c-3.1-0.9-3.3-4.9-43-7.8s-7.5,17.6-7.5,17.6s-9.6-8.6-9.3-12.6
				c0.3-4,9.3-2.7,9.3-2.7s23.8,1.2,26.5,1.6c2.7,0.5,12.5,1.4,16.9,3.3s13,7.3,16.5,9.7c3.6,2.4,28.5,19.2,31.3,21.6
				C241.7,750.4,262.6,763.3,262.6,763.3z"/>
			<path class="st3" d="M262.7,763.3c0,0-69.5-30.8-72.7-31.1c-3.2-0.2-4.3-4.1-43.6,1.6c-39.3,5.7-3.6,18.8-3.6,18.8
				s-11.2-6.4-11.8-10.3c-0.6-4,8.5-4.6,8.5-4.6s23.5-4,26.3-4.1c2.7-0.1,12.5-1.3,17.2-0.4s14.2,4.4,18.2,6
				c4,1.6,31.9,12.7,35.2,14.4S262.7,763.3,262.7,763.3z"/>
			<path class="st3" d="M258.7,769.2c0,0-74-17.5-77.2-17.1c-3.2,0.4-5-3.2-42.6,9.6c-37.6,12.8-0.1,19.1-0.1,19.1s-12.2-4.2-13.5-8
				s7.5-6.1,7.5-6.1s22.4-8.2,25.1-8.8c2.7-0.6,12-3.6,16.8-3.6s14.8,1.7,19,2.5c4.2,0.9,33.7,6.6,37.2,7.7S258.7,769.2,258.7,769.2
				z"/>
			<path class="st3" d="M259,769.3c0,0-76.1-0.3-79.1,0.7c-3,1.1-5.6-2-39.3,19c-33.7,21,4.2,18.6,4.2,18.6s-12.8-1.3-15-4.7
				c-2.2-3.4,5.9-7.6,5.9-7.6s20-13.1,22.4-14.3s10.9-6.2,15.6-7.3c4.7-1.1,14.8-1.7,19.1-1.8c4.3-0.1,34.3-1.2,38-0.9
				C234.6,771.1,259,769.3,259,769.3z"/>
			<path class="st3" d="M261.5,775c0,0-74.7,16.4-77.4,18.1c-2.7,1.7-5.9-0.8-34.2,27.1s8.2,17.2,8.2,17.2s-12.8,1.5-15.6-1.3
				c-2.8-2.8,4.1-8.8,4.1-8.8s16.6-17.1,18.7-18.8c2.1-1.7,9.3-8.5,13.6-10.6c4.3-2.1,14-4.9,18.2-6c4.2-1.1,33.2-8.7,36.9-9.2
				C237.7,782.1,261.5,775,261.5,775z"/>
			<path class="st3" d="M261.9,774.8c0,0-67.6,34.9-69.8,37.2c-2.2,2.3-5.9,0.8-26.1,35c-20.2,34.2,12.4,14.5,12.4,14.5
				s-12,4.7-15.5,2.7c-3.5-2,1.7-9.5,1.7-9.5s11.7-20.8,13.3-23c1.6-2.2,6.8-10.6,10.4-13.7c3.7-3.1,12.3-8.4,16.1-10.5
				c3.8-2.1,29.9-16.9,33.3-18.4S261.9,774.8,261.9,774.8z"/>
			<path class="st3" d="M350.8,763.7c0,0,38.1-0.2,46.4,0c8.4,0.2,30.7,1.3,32,1.7c1.3,0.4,1.5,2.7,1.5,2.7l-2.1-0.8
				c-0.4-0.1-0.8-0.2-1.2-0.3c-3.8-0.2-23.8-1.4-28.9-1.6c-5.6-0.2-37.4,0.1-39.7,0c-1.9-0.1-6.1-0.7-7.5-0.8
				c-0.2,0-0.4-0.2-0.4-0.5V763.7z"/>
			<path class="st3" d="M351.9,770.5c-0.2,0.1-0.2,0.2,0.1,0.1c1.8-0.5,3.2-0.9,7.2-1.2c4.3-0.3,7.1-0.3,8.1-0.3
				c0.8,0,54.6,0.9,54.6,0.9c0.4,0,0.7,0,1.1-0.1l5.2-0.7c0,0,0,0,0,0c-1.7,0-11.3-0.6-23-0.8c-9.4-0.2-20.2-0.4-29.3-0.5
				c-10.8-0.2-19,0.1-19.5,0.1C355.4,768.1,353,769.8,351.9,770.5z"/>
			<path class="st3" d="M338.4,780.1c0,0-5.6,4.9-7.3,6c-1.8,1.2-9.6,6.9-11,7.5c-1.3,0.6-6-0.1-8.7-1.9c-2.8-1.8-9.2-7-14.3-12.6
				c-1.8-2-3.5-5.4-4.5-7.9c-0.2-0.4,6,3.5,11.4,5.1c6.1,1.8,13.4,2.2,16.7,2.5C323.8,779.1,338.4,780.1,338.4,780.1z"/>
			<path class="st3" d="M187.2,940.5c0-0.2-0.3,2.4,0,4.8c0.3,2.3,1.2,4.9,1.9,6.2c1.4,2.8,4.7,7.5,8.1,9.3
				c3.4,1.8,8.4,1.9,10.1,1.1c2.9-1.3,3.7-3.8,4.1-5.3c0.3-1.3,0.5-2.9,0.5-3.2c0,0,0,0,0,0c-0.3,0.7-2.3,5.1-3.6,6.2
				c-1.9,1.6-5,1.6-7.9,0.9c-2.9-0.7-7.7-4.7-9.9-9.1c-2.4-4.9-1.5-3.1-2.2-4.9C187.9,945.2,187.2,940.5,187.2,940.5z"/>
			<path class="st3" d="M217.5,958.8C217.5,958.8,217.4,958.8,217.5,958.8c0.1,0.8,0.8,6.7,1.8,9.7c1,3,4.3,9,7.7,10.8
				c4.1,2.1,7.7,2.3,10.4,1.1c2.1-0.9,3.6-3.9,3.9-5.4c0.3-1.4,0.5-3,0.6-3.4c0,0,0,0,0,0c-0.3,0.7-2.3,5.5-3.6,6.5
				c-1.4,1.1-3.7,1.8-6.5,1.3c-3-0.5-7-2.7-9.3-7.2c-2.3-4.6-3.5-9.1-3.9-10.4C218.1,960.6,217.7,959.1,217.5,958.8z"/>
			<path class="st3" d="M248.6,974.4C248.6,974.4,248.5,974.4,248.6,974.4c0.1,1.4,0.6,8,1.7,10.5c1.3,2.9,6.8,7.8,10.3,9.5
				c3.5,1.7,7.4,0.6,8.5-0.1c1.3-0.9,2.8-2.8,3.3-4.1c0.4-1.2,1-3.1,1-3.6c0,0,0,0-0.1,0c-0.4,0.8-2.7,5.2-4,6.2
				c-1.4,1.1-2.5,1.6-5.4,0.9c-5.2-1.2-10.2-6.3-11.5-8.4c-1.1-1.9-2.5-6.4-2.8-7.5C249.1,976.8,248.9,975,248.6,974.4z"/>
			<path class="st3" d="M349.3,927.9c0-0.1,0.9,1.1,0.9,1.2c0.9,1.7,3.4,5,4.7,9.9c1.3,5,0.7,10.7-1.5,14.2
				c-2.1,3.3-4.9,4.5-6.3,4.6c-1.2,0.2-5.1-1-6.4-1.9c-1-0.6-1.4-1-1.9-1.5c-0.1-0.1,0-0.1,0.1-0.1c1.2,0.6,5,1.9,6.5,1.9
				c1.8-0.1,3.3-0.2,5.1-2.7c1.8-2.4,3-7.5,2.6-12.3C352.7,936.6,349.7,929.5,349.3,927.9z"/>
			<path class="st3" d="M334.2,961.2C334.2,961.1,334.3,961.1,334.2,961.2c0.5,0.5,1.6,6.8,1.5,9.8c-0.1,2.9-1.7,7.5-4.5,10.8
				c-2.5,2.9-7.2,5.2-9.1,5.2c-1.9-0.1-5.1-2.6-5.9-3.8c-0.7-1-0.9-1.7-1.1-2.3c0-0.1,0-0.1,0.1-0.1c0.8,0.9,4.3,3.2,5.7,3.7
				c1.7,0.5,2.9,0.6,5.4-1.1c2.5-1.6,6.3-5.5,7.2-10.3c0.9-4.9,0.6-7.7,0.6-9C334.2,962.8,334.2,961.6,334.2,961.2z"/>
			<path class="st3" d="M309.3,982.7C309.3,982.7,309.3,982.7,309.3,982.7c0,0.9-0.9,8.3-1.9,11c-1.1,2.9-4.8,8.1-8.4,9.6
				c-3.4,1.4-7.1,0.7-8.3,0.3c-1.2-0.3-4.4-2.6-5.5-4.4c-0.9-1.4-3.4-6.6-4.7-10.7c-0.1-0.2,5.9,9.7,7,10.6c1.3,1.1,4.9,3.1,8,3
				c3.1-0.2,6.1-1.8,8.8-5.9c2.6-4.1,3-6.2,3.8-8.3C308.7,985.4,309.1,983.1,309.3,982.7z"/>
		</g>
		<g>
			<g>
				<path class="st3" d="M387.5,806c0,0.2-0.2,0.7-0.5,1.5c-0.3,0.8-0.7,1.8-1.1,3c-0.4,1.2-0.9,2.5-1.4,3.8c-0.5,1.3-1,2.6-1.4,3.8
					c-0.8,2.3-1.6,4.5-2.3,6.7c-0.7,2.2-1.5,4.5-2.2,6.8c-0.8,2.3-1.5,4.7-2.3,7.2c-0.8,2.5-1.6,5.2-2.4,8c-0.7,2.3-1.3,4.5-1.9,6.8
					c-0.6,2.2-1.1,4.3-1.6,6.2c-0.5,1.9-0.9,3.5-1.3,4.9c-0.4,1.4-0.7,2.3-1,2.8c-1.5,2.6-3,4.6-4.5,6c-0.7,0.6-1.4,0.9-2.2,0.9
					c-0.7,0-1.3-0.3-1.7-1c-0.4-0.7-0.9-1.8-1.2-3.2c-0.2-0.6-0.4-1.7-0.7-3.3c-0.3-1.6-0.6-3.4-0.9-5.4c-0.3-2-0.6-4.2-1-6.5
					c-0.3-2.3-0.6-4.5-0.9-6.6c-0.4-3-0.7-5.9-1.1-8.6c-0.3-2.7-0.7-5.3-0.9-7.8c-0.3-2.5-0.6-4.9-0.9-7.4c-0.3-2.4-0.6-4.9-0.9-7.5
					c-0.2,0.6-0.6,1.8-1.3,3.7c-0.7,1.9-1.5,4.1-2.4,6.8c-0.9,2.7-1.9,5.7-2.9,9s-2,6.7-3,10.2c-0.9,3.4-1.7,6.3-2.4,8.9
					c-0.7,2.6-1.3,4.7-1.7,6.5c-0.6,2.1-1,3.9-1.3,5.3c-0.3,0.9-0.6,1.6-0.8,2.2c-0.2,0.6-0.8,1.2-1.8,2c-0.3,0.2-0.8,0.5-1.5,0.8
					c-0.7,0.3-1.4,0.5-2,0.5c-0.4,0-0.7-0.3-0.7-0.9c0-0.3,0.1-0.8,0.3-1.5c0.2-0.7,0.4-1.3,0.6-1.9c0.6-1.9,1.6-4.8,2.8-8.7
					c1.2-3.9,2.6-8.3,4.1-13.2c1.5-4.9,3.1-10.2,4.8-15.7c1.7-5.5,3.3-10.8,4.8-15.9c0.2-0.8,0.4-1.5,0.7-2.4
					c0.3-0.8,0.6-1.6,0.9-2.3c0.3-0.7,0.5-1.3,0.8-1.9c0.2-0.5,0.4-0.8,0.5-0.9c0.1-0.2,0.3-0.4,0.4-0.6c0.2-0.2,0.4-0.4,0.6-0.6
					c0.3-0.3,0.8-0.6,1.6-0.9c0.7-0.4,1.5-0.6,2.4-0.6c0.8,0,1.4,0,1.6,0.1c0.3,0.1,0.5,0.3,0.8,0.6c0.3,0.3,0.4,0.7,0.5,1.1
					c0.1,1,0.2,1.9,0.3,2.6c0.1,0.7,0.2,1.6,0.3,2.6c0.1,1.1,0.3,2.7,0.5,4.7c0.2,2,0.5,4.1,0.8,6.5c0.3,2.4,0.6,5,0.9,7.7
					c0.3,2.7,0.6,5.4,0.9,8.1c0.3,1.8,0.5,3.8,0.9,5.9c0.3,2.1,0.6,4.1,1,6.1c0.3,2,0.7,3.9,1,5.6c0.3,1.8,0.6,3.3,0.9,4.5
					c1.8-5.9,3.5-11.7,5.1-17.4c0.7-2.4,1.4-4.9,2.2-7.5c0.8-2.6,1.5-5.1,2.2-7.6c0.7-2.5,1.4-4.9,2.1-7.3c0.7-2.3,1.3-4.5,1.9-6.4
					c0.2-0.7,0.4-1.4,0.6-2.2c0.2-0.8,0.4-1.5,0.6-2.2c0.2-0.7,0.4-1.3,0.6-1.9c0.2-0.5,0.4-0.9,0.6-1.1c0.3-0.5,0.8-1,1.5-1.5
					c0.7-0.5,1.6-0.9,2.7-1c0.3-0.1,0.6-0.1,0.9-0.1c0.3,0,0.5,0,0.9,0C387.3,805.1,387.5,805.4,387.5,806z"/>
				<path class="st3" d="M422.9,862.2c-0.1,0.2-1,0.9-2.7,2.1c-1.7,1.2-3.8,2.5-6.4,3.8c-2.6,1.4-5.4,2.6-8.6,3.7
					c-3.2,1.1-6.4,1.7-9.5,1.7c-4,0-7-0.9-9-2.8c-2-1.9-3-4.9-3-9c0-2.7,0.7-5.9,2.2-9.8c1.5-3.9,3.9-7.7,7.2-11.7
					c1.9-2.3,3.8-4.2,5.8-5.9c2-1.6,3.9-3,5.7-4c1.8-1,3.6-1.8,5.2-2.2s3-0.7,4.1-0.7c1.8,0,3.1,0.2,3.8,0.7c0.7,0.5,1,1.3,1,2.5
					c0,1.5-1.1,3.5-3.2,5.9c-2.1,2.4-4.9,5.2-8.2,8.4c-1.3,1.3-2.9,2.7-4.6,4.3c-1.7,1.6-3.4,3.1-4.9,4.6c-1.8,1.6-3.7,3.3-5.5,5
					v1.4c0,3.4,0.8,5.8,2.3,7.1c1.5,1.3,3.7,1.9,6.4,1.9c2.5,0,5-0.5,7.5-1.4c2.5-0.9,4.8-1.9,6.8-3c2.4-1.3,4.7-2.8,6.9-4.5
					L422.9,862.2z M410.7,834.8c0-1-0.3-1.6-0.9-1.9s-1.2-0.4-1.9-0.4c-1.2,0-2.7,0.5-4.5,1.4c-1.8,0.9-3.5,2.4-5.1,4.5
					c-0.7,0.9-1.4,2-2.1,3.2c-0.7,1.3-1.3,2.7-1.9,4.2c-0.6,1.5-1.1,3.1-1.5,4.8c-0.4,1.7-0.6,3.3-0.7,5c1.3-1.1,2.6-2.2,3.9-3.3
					c1.1-1,2.4-2.1,3.7-3.3c1.3-1.2,2.6-2.4,3.8-3.7c2.1-2.2,3.8-4.1,5.2-5.8C410,837.8,410.7,836.2,410.7,834.8z"/>
				<path class="st3" d="M458.4,860.9c0,0.3-0.9,1-2.7,2.4c-1.8,1.3-4.1,2.8-6.8,4.3c-2.8,1.5-5.8,2.9-9.1,4.1
					c-3.3,1.2-6.4,1.8-9.4,1.8c-3.5,0-6.2-0.8-8-2.5c-1.9-1.6-2.8-4.2-2.8-7.8c0-1.9,0.3-3.9,0.8-6.1c0.5-2.2,1.3-4.4,2.3-6.5
					c1-2.2,2.2-4.3,3.7-6.5c1.5-2.1,3.1-4.2,4.9-6.1c1.6-1.7,3.4-3.2,5.2-4.5c1.8-1.3,3.6-2.3,5.4-3.1c1.8-0.8,3.4-1.4,4.9-1.9
					c1.5-0.4,2.7-0.6,3.7-0.6c1.1,0,2.1,0.2,2.9,0.5c0.9,0.3,1.3,1.4,1.3,3.1c0,0.9-0.2,2.1-0.7,3.6c-0.4,1.5-1.3,2.8-2.6,3.9
					c-1.1,0.9-2.1,1.5-3,1.8c-0.9,0.3-1.6,0.4-2,0.4c-0.3,0-0.6-0.2-0.8-0.6l0.9-2.1c0.4-0.9,0.7-1.7,0.8-2.3
					c0.1-0.7,0.1-1.2,0.1-1.5c0-0.7-0.1-1.2-0.4-1.5c-0.3-0.3-0.8-0.5-1.6-0.5c-2,0-4.1,0.7-6.1,2c-2.1,1.4-3.9,3.2-5.6,5.6
					c-1.7,2.3-3.1,5.1-4.1,8.2c-1.1,3.1-1.6,6.5-1.6,10c0,1.1,0.1,2.2,0.2,3.5c0.1,1.2,0.4,2.4,0.9,3.4c0.5,1,1.2,1.8,2.1,2.5
					c0.9,0.7,2.2,1,3.7,1c2.4,0,4.4-0.3,6-0.8c1.6-0.5,3-1,4.1-1.5c1.8-0.8,3.4-1.5,4.8-2.4c1.5-0.8,2.7-1.6,3.7-2.2
					c1-0.7,1.9-1.2,2.4-1.7c0.6-0.4,0.9-0.7,1-0.7c0.3,0,0.5,0.1,0.8,0.2C458.2,860.1,458.4,860.4,458.4,860.9z"/>
				<path class="st3" d="M482.5,866.4c-3.2,2.1-6,3.8-8.6,5c-2.6,1.3-4.9,2.1-6.9,2.6c-2,0.5-3.7,0.8-5.1,0.8
					c-1.1,0-1.9-0.2-2.6-0.5c-0.6-0.3-1.1-0.7-1.4-1.1c-0.3-0.4-0.5-0.9-0.6-1.5c-0.1-0.5-0.1-1-0.1-1.5c0-1,0.2-2.5,0.6-4.4
					c0.4-1.9,1.1-4.4,2-7.4c0.8-2.4,1.4-4.4,2-6.1c0.6-1.7,1.2-3.3,1.8-4.9s1.2-3.3,1.8-5.1c0.6-1.8,1.4-4,2.3-6.7
					c-0.7,0.1-1.4,0.1-2.1,0.2c-0.6,0.1-1.1,0.1-1.7,0.1s-1,0-1.3,0c-0.3,0-0.7,0-1.1-0.1c-0.4-0.1-0.6-0.4-0.6-0.9
					c0-1.1,0.5-1.9,1.6-2.5c1-0.6,2-0.9,2.8-0.9h3.9l3.5-9.4c0.6-1.5,1.3-2.9,2.2-4.1c0.9-1.2,2.1-2.1,3.6-2.6
					c0.8-0.3,1.8-0.5,2.8-0.5c0.6,0,0.9,0.3,0.9,0.9c-0.3,0.6-0.6,1.2-0.8,1.6c-0.2,0.4-0.4,0.9-0.7,1.3c-0.2,0.4-0.4,0.9-0.7,1.4
					c-0.2,0.5-0.5,1.1-0.7,1.9l-3.6,9.5h6.5c0.9,0,1.8,0,2.8,0c1,0,1.9-0.1,2.8-0.1c0.9-0.1,1.6-0.1,2.3-0.1c0.6,0,1,0,1.2,0
					c0.8,0,1.2,0.2,1.2,0.7c0,0.6-0.7,1.2-2,1.8c-0.6,0.3-1.3,0.6-2.3,0.9c-1,0.3-2.2,0.6-3.6,0.8c-0.9,0.1-2,0.2-3.1,0.2
					c-1.1,0-2.2,0.1-3.3,0.1c-1.2,0.1-2.4,0.1-3.6,0.1c-0.3,0.7-0.7,1.9-1.2,3.5c-0.6,1.6-1.2,3.4-1.9,5.5c-0.7,2-1.5,4.2-2.2,6.4
					c-0.8,2.3-1.5,4.4-2.1,6.4c-0.7,2-1.2,3.7-1.6,5.2c-0.4,1.5-0.6,2.5-0.6,3.1c0,0.4,0,0.8,0,1.3c0,0.5,0.1,0.9,0.3,1.3
					c0.2,0.4,0.5,0.7,0.9,1c0.4,0.3,0.9,0.4,1.6,0.4c2,0,4.2-0.4,6.5-1.3c2.3-0.9,4.6-2,6.8-3.2c2.2-1.3,4.3-2.6,6.2-4.1
					c1.9-1.5,3.5-2.8,4.8-3.9l1,1.1C489.1,861.6,485.6,864.3,482.5,866.4z"/>
				<path class="st3" d="M541,860.5c-2,2-4.3,3.9-6.8,5.7c-2.5,1.8-5,3.3-7.4,4.7c-2.4,1.3-4.7,2.4-6.7,3.1
					c-2.1,0.8-3.7,1.1-4.8,1.1c-0.9,0-1.6-0.3-2.2-0.9c-0.6-0.6-0.9-1.9-0.9-3.7c0-1.5,0.1-3,0.4-4.6c0.3-1.5,0.6-2.9,0.9-4.3h-0.4
					c-2.8,3.5-5.9,6.3-9.1,8.4c-3.2,2.1-6.1,3.1-8.7,3.1c-2.4,0-4-0.8-4.7-2.3c-0.8-1.5-1.1-3.6-1.1-6.2c0-1.7,0.3-3.6,0.8-5.7
					c0.5-2.1,1.2-4.3,2.2-6.4c0.9-2.1,2.1-4.2,3.4-6.3c1.3-2,2.8-3.9,4.6-5.5c4.1-3.9,8-6.6,11.7-8.1c3.7-1.5,7.2-2.2,10.7-2.2
					c0.6,0,1.4,0.1,2.4,0.2c0.9,0.2,1.9,0.4,2.8,0.9c0.9,0.4,1.7,1,2.4,1.7c0.7,0.7,1,1.6,1,2.7c0,0.7,0,1.3-0.1,1.8
					s-0.3,0.9-0.5,1.3c-0.3,0.4-0.6,0.8-1,1.2c-0.4,0.4-1,0.9-1.6,1.5c-0.5,1.4-1.1,2.7-1.7,3.8c-0.6,1.2-1.4,2.8-2.2,4.8
					c-1.6,4-2.8,7.4-3.6,10.1c-0.8,2.7-1.2,4.8-1.2,6.5c0,0.9,0.1,1.6,0.4,2.2s0.9,0.9,1.8,0.9c0.9,0,2.1-0.3,3.6-0.8
					c1.4-0.5,3-1.3,4.6-2.3c1.7-1,3.4-2.1,5.2-3.5c1.8-1.3,3.5-2.8,5.2-4.5L541,860.5z M525,836.7c-0.2-0.6-0.5-1-0.9-1.4
					c-0.4-0.4-0.9-0.7-1.4-0.9c-0.5-0.3-1-0.4-1.6-0.5c-0.5-0.1-1-0.1-1.5-0.1c-1.6,0-3.2,0.2-4.6,0.5c-1.4,0.3-2.8,0.9-4.1,1.7
					c-1.3,0.8-2.7,1.9-4,3.3c-1.4,1.4-2.8,3.3-4.3,5.6c-0.8,1.1-1.5,2.5-2.2,4.1c-0.7,1.6-1.3,3.2-1.8,4.8c-0.5,1.6-0.9,3.2-1.2,4.7
					c-0.3,1.5-0.4,2.7-0.4,3.7c0,2,0.4,3.4,1.2,4.1c0.8,0.7,1.6,1.1,2.5,1.1c2.1,0,4.6-1.1,7.3-3.2c2.7-2.1,5.2-5.6,7.4-10.3
					c0.9-2,1.7-3.9,2.2-5.6c0.5-1.7,1.1-3.3,1.8-4.8c0.2-0.5,0.5-1.1,0.9-1.9c0.4-0.8,0.9-1.5,1.4-2.1c0.5-0.7,1.1-1.2,1.6-1.7
					C523.9,837,524.5,836.7,525,836.7z"/>
				<path class="st3" d="M571.4,864.9c-2.1,1.6-4.4,3.1-7,4.6c-2,1.1-3.6,1.9-5,2.6s-2.6,1.1-3.6,1.4c-1,0.3-1.9,0.5-2.6,0.6
					c-0.7,0.1-1.3,0.1-1.7,0.1c-1.2,0-2-0.3-2.5-1c-0.4-0.7-0.7-1.5-0.7-2.4c0-0.3,0-0.7,0.1-1.3c0.1-0.6,0.3-1.5,0.6-2.6
					c0.3-1.1,0.7-2.5,1.2-4.1c0.5-1.6,1.2-3.5,2-5.7c0.4-1.1,1-2.5,1.7-4.2c0.7-1.7,1.4-3.4,2.1-5.1c0.7-1.7,1.4-3.3,2-4.7
					c0.6-1.5,1.1-2.5,1.4-3.1l-0.3-0.4c-1.5,0.9-3,1.6-4.7,2c-1.6,0.5-3.2,0.7-4.6,0.7c-1.5,0-2.8-0.3-4-0.8
					c-1.2-0.5-2.1-1.5-2.6-3.1l-1,1.5c-0.2,0.2-0.4,0.3-0.6,0.3c-0.2,0-0.4-0.1-0.6-0.2c-0.2-0.2-0.3-0.4-0.3-0.7
					c0-0.3,0.1-0.6,0.3-0.9l1.4-2.4c-0.1-0.3-0.1-0.7-0.1-1c0-0.4,0-0.8,0-1.3c0-1,0.1-2.1,0.3-3.4c0.2-1.2,0.6-2.4,1.1-3.5
					c0.5-1.1,1.2-2,2-2.7c0.9-0.7,1.9-1,3.3-1c0.7,0,1.4,0.2,2,0.7c0.7,0.4,1,1.3,1,2.7c0,0.5-0.1,1.1-0.3,1.9
					c-0.2,0.7-0.4,1.5-0.7,2.2c-0.3,0.7-0.6,1.4-0.9,2.1c-0.3,0.7-0.7,1.3-1.1,1.7c0.1,0.8,0.3,1.5,0.6,1.9c0.3,0.5,0.8,0.8,1.2,1.1
					s1,0.4,1.5,0.5c0.5,0.1,0.9,0.1,1.2,0.1c0.9,0,1.8-0.1,2.8-0.2c1-0.2,2.4-0.6,4.2-1.3c0.9-0.4,1.7-0.8,2.6-1.1
					c0.8-0.4,1.6-0.6,2.3-0.6c0.8,0,1.1,0.3,1.1,1c0,0.4-0.1,1-0.3,1.7c-0.2,0.7-0.4,1.4-0.7,2.2c-0.3,0.8-0.5,1.5-0.8,2.2
					c-0.3,0.7-0.5,1.3-0.7,1.8c-0.6,1.6-1.4,3.6-2.3,5.9c-0.9,2.4-1.7,4.7-2.5,7.1c-0.8,2.3-1.5,4.4-2,6.2c-0.6,1.8-0.9,2.8-0.9,3.2
					c0,1.1,0.2,1.7,0.6,1.9c0.4,0.2,1,0.2,1.9,0.2c2,0,4.4-0.7,7.3-2.1c2.8-1.4,5.8-3.3,9-5.7l0.9,1.1
					C575,862.1,573.5,863.3,571.4,864.9z"/>
				<path class="st3" d="M650,842.7c-0.3,1-0.9,1.8-1.6,2.5c-0.8,0.6-1.6,1.1-2.7,1.4c-1,0.3-2.1,0.5-3.3,0.7
					c-1.2,0.1-2.3,0.2-3.5,0.2h-1.7c-0.3,0-0.4,0-0.6-0.1c0,1.1-0.3,2.5-0.8,4.2c-0.5,1.7-1.3,3.6-2.3,5.6c-1,2-2.2,3.9-3.7,5.9
					c-1.5,2-3.1,3.8-5,5.4c-1.9,1.6-3.9,2.9-6.2,3.9c-2.3,1-4.7,1.5-7.3,1.5c-4.4,0-7.8-1.4-10.2-4.1c-2.3-2.7-3.5-6.9-3.5-12.4
					c0-3.6,0.6-7.4,1.8-11.4c1.2-4,2.8-7.9,4.9-11.8c2.1-3.9,4.5-7.5,7.4-11c2.8-3.5,5.8-6.5,8.9-9.2c3.1-2.7,6.4-4.8,9.7-6.3
					c3.3-1.5,6.6-2.3,9.7-2.3c0.6,0,1.3,0,2,0.1c0.7,0.1,1.4,0.3,2,0.7c0.6,0.4,1.1,0.9,1.5,1.6c0.4,0.7,0.6,1.6,0.6,2.7
					c0,1.3-0.3,2.5-0.8,3.6s-1.2,2.1-1.9,2.9c-0.7,0.8-1.5,1.5-2.2,1.9c-0.8,0.5-1.4,0.7-1.8,0.7c-0.4,0-0.6-0.2-0.6-0.7
					c0-0.3,0.1-0.6,0.4-1.2c0.3-0.5,0.4-1.6,0.4-3.3c0-1.5-0.5-2.5-1.4-3c-0.9-0.6-2-0.9-3.2-0.9c-3.6,0-7.2,1.3-10.8,3.8
					c-3.6,2.5-6.8,5.9-9.6,10c-2.8,4.1-5.1,8.9-6.9,14.2c-1.7,5.3-2.6,10.8-2.6,16.5c0,1.8,0.1,3.7,0.4,5.5c0.3,1.8,0.7,3.5,1.4,4.9
					c0.7,1.5,1.6,2.6,2.8,3.6c1.2,0.9,2.7,1.4,4.6,1.4c2.7,0,5.1-0.9,7.1-2.7c2-1.8,3.7-3.9,5-6.4c1.3-2.5,2.3-5,2.9-7.5
					c0.6-2.6,0.9-4.6,0.9-6.2v-0.5c-0.4,0-0.8,0-1.2,0c-0.4,0-0.9,0-1.3,0c-0.8,0-1.4-0.1-2-0.4c-0.6-0.3-0.9-0.8-0.9-1.7
					c0-1,0.4-1.8,1.1-2.3c0.8-0.5,1.6-0.8,2.5-0.8c1.6,0,2.8,0.1,3.8,0.2s2.2,0.2,3.6,0.3c1.6,0.1,3,0.1,3.9,0.1c1,0,2.1,0,3.5,0
					c1.5,0,2.7,0,3.8-0.1C648.4,842.8,649.3,842.8,650,842.7z"/>
				<path class="st3" d="M697.1,860.5c-2,2-4.3,3.9-6.8,5.7c-2.5,1.8-5,3.3-7.4,4.7c-2.4,1.3-4.7,2.4-6.7,3.1
					c-2.1,0.8-3.7,1.1-4.8,1.1c-0.9,0-1.6-0.3-2.2-0.9c-0.6-0.6-0.9-1.9-0.9-3.7c0-1.5,0.1-3,0.4-4.6c0.3-1.5,0.6-2.9,0.9-4.3h-0.4
					c-2.8,3.5-5.9,6.3-9.1,8.4c-3.2,2.1-6.1,3.1-8.7,3.1c-2.4,0-4-0.8-4.7-2.3c-0.8-1.5-1.1-3.6-1.1-6.2c0-1.7,0.3-3.6,0.8-5.7
					c0.5-2.1,1.2-4.3,2.2-6.4c0.9-2.1,2.1-4.2,3.4-6.3c1.3-2,2.8-3.9,4.6-5.5c4.1-3.9,8-6.6,11.7-8.1c3.7-1.5,7.2-2.2,10.7-2.2
					c0.6,0,1.4,0.1,2.4,0.2c0.9,0.2,1.9,0.4,2.8,0.9c0.9,0.4,1.7,1,2.4,1.7c0.7,0.7,1,1.6,1,2.7c0,0.7,0,1.3-0.1,1.8
					s-0.3,0.9-0.5,1.3c-0.3,0.4-0.6,0.8-1,1.2c-0.4,0.4-1,0.9-1.6,1.5c-0.5,1.4-1.1,2.7-1.7,3.8c-0.6,1.2-1.4,2.8-2.2,4.8
					c-1.6,4-2.8,7.4-3.6,10.1s-1.2,4.8-1.2,6.5c0,0.9,0.1,1.6,0.4,2.2c0.3,0.6,0.9,0.9,1.8,0.9c0.9,0,2.1-0.3,3.6-0.8
					c1.4-0.5,3-1.3,4.7-2.3c1.7-1,3.4-2.1,5.2-3.5c1.8-1.3,3.5-2.8,5.2-4.5L697.1,860.5z M681.1,836.7c-0.2-0.6-0.5-1-0.9-1.4
					c-0.4-0.4-0.9-0.7-1.4-0.9c-0.5-0.3-1-0.4-1.6-0.5c-0.5-0.1-1-0.1-1.5-0.1c-1.6,0-3.2,0.2-4.6,0.5c-1.4,0.3-2.8,0.9-4.1,1.7
					c-1.3,0.8-2.7,1.9-4,3.3c-1.4,1.4-2.8,3.3-4.3,5.6c-0.8,1.1-1.5,2.5-2.2,4.1c-0.7,1.6-1.3,3.2-1.8,4.8c-0.5,1.6-0.9,3.2-1.2,4.7
					c-0.3,1.5-0.4,2.7-0.4,3.7c0,2,0.4,3.4,1.2,4.1c0.8,0.7,1.6,1.1,2.5,1.1c2.2,0,4.6-1.1,7.3-3.2c2.7-2.1,5.2-5.6,7.4-10.3
					c0.9-2,1.7-3.9,2.2-5.6c0.5-1.7,1.1-3.3,1.8-4.8c0.2-0.5,0.5-1.1,0.9-1.9c0.4-0.8,0.9-1.5,1.4-2.1c0.5-0.7,1.1-1.2,1.6-1.7
					C680.1,837,680.6,836.7,681.1,836.7z"/>
				<path class="st3" d="M727.5,864.9c-2.1,1.6-4.4,3.1-7,4.6c-2,1.1-3.6,1.9-5,2.6c-1.4,0.6-2.6,1.1-3.6,1.4
					c-1,0.3-1.9,0.5-2.6,0.6c-0.7,0.1-1.3,0.1-1.7,0.1c-1.2,0-2-0.3-2.5-1c-0.4-0.7-0.7-1.5-0.7-2.4c0-0.3,0-0.7,0.1-1.3
					c0.1-0.6,0.3-1.5,0.6-2.6c0.3-1.1,0.7-2.5,1.2-4.1c0.5-1.6,1.2-3.5,2-5.7c0.4-1.1,1-2.5,1.7-4.2c0.7-1.7,1.4-3.4,2.1-5.1
					c0.7-1.7,1.4-3.3,2-4.7c0.6-1.5,1.1-2.5,1.4-3.1l-0.3-0.4c-1.5,0.9-3,1.6-4.7,2c-1.6,0.5-3.2,0.7-4.6,0.7c-1.5,0-2.8-0.3-4-0.8
					c-1.2-0.5-2.1-1.5-2.6-3.1l-1,1.5c-0.2,0.2-0.4,0.3-0.6,0.3c-0.2,0-0.4-0.1-0.6-0.2c-0.2-0.2-0.3-0.4-0.3-0.7
					c0-0.3,0.1-0.6,0.3-0.9l1.4-2.4c-0.1-0.3-0.1-0.7-0.1-1c0-0.4,0-0.8,0-1.3c0-1,0.1-2.1,0.3-3.4c0.2-1.2,0.6-2.4,1.1-3.5
					c0.5-1.1,1.2-2,2-2.7c0.9-0.7,1.9-1,3.3-1c0.7,0,1.4,0.2,2,0.7c0.7,0.4,1,1.3,1,2.7c0,0.5-0.1,1.1-0.3,1.9
					c-0.2,0.7-0.4,1.5-0.7,2.2c-0.3,0.7-0.6,1.4-0.9,2.1c-0.3,0.7-0.7,1.3-1.1,1.7c0.1,0.8,0.3,1.5,0.6,1.9c0.3,0.5,0.8,0.8,1.2,1.1
					s1,0.4,1.5,0.5c0.5,0.1,0.9,0.1,1.2,0.1c0.9,0,1.8-0.1,2.8-0.2c1-0.2,2.4-0.6,4.2-1.3c0.9-0.4,1.7-0.8,2.6-1.1
					c0.8-0.4,1.6-0.6,2.3-0.6c0.8,0,1.1,0.3,1.1,1c0,0.4-0.1,1-0.3,1.7c-0.2,0.7-0.4,1.4-0.7,2.2c-0.3,0.8-0.5,1.5-0.8,2.2
					c-0.3,0.7-0.5,1.3-0.7,1.8c-0.6,1.6-1.4,3.6-2.3,5.9c-0.9,2.4-1.7,4.7-2.5,7.1c-0.8,2.3-1.5,4.4-2,6.2c-0.6,1.8-0.9,2.8-0.9,3.2
					c0,1.1,0.2,1.7,0.6,1.9c0.4,0.2,1,0.2,1.9,0.2c2,0,4.4-0.7,7.3-2.1c2.8-1.4,5.8-3.3,9-5.7l0.9,1.1
					C731.2,862.1,729.6,863.3,727.5,864.9z"/>
				<path class="st3" d="M782.1,859.9c-2.1,1.7-4.3,3.4-6.7,4.9c-2.4,1.6-4.6,3-6.7,4.2c-2.1,1.2-4,2.2-5.8,2.9
					c-1.7,0.7-3,1.1-3.8,1.1c-1.5,0-2.5-0.4-3.1-1.2c-0.6-0.8-0.9-2.3-0.9-4.5c0-0.4,0.1-1.1,0.2-1.9c0.1-0.9,0.3-1.8,0.4-2.8
					c0.2-1,0.3-2,0.6-3c0.2-1,0.4-2,0.6-2.8l-0.3-0.1c-1.8,2-3.4,4-4.9,5.8s-3.4,3.8-5.6,5.7c-1.3,1.2-2.5,2.2-3.5,2.9
					c-1,0.7-1.9,1.3-2.8,1.7c-0.9,0.4-1.6,0.7-2.4,0.8c-0.7,0.1-1.5,0.2-2.3,0.2c-2,0-3.3-0.6-4.1-1.9c-0.8-1.2-1.2-2.9-1.2-5.1
					c0-4.2,0.9-8.4,2.8-12.5c1.9-4.2,4.3-8,7.4-11.4c3.1-3.4,6.6-6.3,10.5-8.5c4-2.3,8-3.7,12.2-4.2l3.3-0.4
					c1.2-3.3,2.3-6.3,3.3-9.1c0.4-1.2,0.9-2.4,1.3-3.6c0.4-1.2,0.8-2.3,1.2-3.3s0.7-2,0.9-2.8c0.3-0.8,0.4-1.4,0.6-1.8
					c0.2-0.7,0.5-1.3,0.9-1.8c0.4-0.5,1-1,1.8-1.5c0.7-0.5,1.4-0.9,2-1.1c0.6-0.2,1.2-0.4,1.7-0.5c0.6-0.1,1.2-0.2,1.7-0.3
					c0.6,0,0.9,0.3,0.9,0.9c-0.5,1.1-1,2.3-1.4,3.4c-0.4,1-0.8,2.1-1.2,3.2c-0.4,1.1-0.9,2.2-1.2,3.3l-7.6,20.8
					c-0.8,2.2-1.6,4.4-2.4,6.7c-0.8,2.3-1.6,4.5-2.3,6.5c-0.7,2-1.3,3.8-1.8,5.4c-0.5,1.6-0.9,2.7-1,3.4c-0.3,1.2-0.6,2.4-0.9,3.5
					s-0.4,2.2-0.4,3.1c0,0.5,0.2,1.2,0.5,2c0.3,0.8,1,1.2,1.9,1.2c1.1,0,2.5-0.4,4-1.1c1.5-0.7,3.1-1.6,4.7-2.6c1.6-1,3.2-2,4.7-3.1
					c1.5-1.1,2.7-2,3.7-2.7L782.1,859.9z M761,834.1c-3.5,0-6.7,0.9-9.5,2.7c-2.8,1.8-5.1,4.1-7.1,6.9c-1.9,2.8-3.4,5.9-4.4,9.2
					c-1,3.4-1.5,6.7-1.5,9.9c0,1,0.2,2,0.5,3c0.3,1.1,0.9,1.6,1.6,1.6c0.4,0,0.8,0,1.3-0.1c0.5-0.1,1-0.3,1.7-0.8
					c0.7-0.4,1.5-1,2.5-1.9c1-0.9,2.2-2,3.7-3.6c0.6-0.7,1.4-1.5,2.3-2.5c0.9-1,1.8-2,2.6-3.1c0.9-1.1,1.7-2.3,2.4-3.6
					c0.8-1.2,1.4-2.5,1.9-3.8l5.5-14H761z"/>
				<path class="st3" d="M816.4,862.2c-0.1,0.2-1,0.9-2.7,2.1c-1.7,1.2-3.8,2.5-6.4,3.8c-2.6,1.4-5.4,2.6-8.6,3.7
					c-3.2,1.1-6.4,1.7-9.5,1.7c-4,0-7-0.9-9-2.8c-2-1.9-3-4.9-3-9c0-2.7,0.7-5.9,2.2-9.8c1.5-3.9,3.9-7.7,7.2-11.7
					c1.9-2.3,3.8-4.2,5.8-5.9c2-1.6,3.9-3,5.7-4c1.8-1,3.6-1.8,5.2-2.2s3-0.7,4.1-0.7c1.8,0,3.1,0.2,3.8,0.7c0.7,0.5,1,1.3,1,2.5
					c0,1.5-1.1,3.5-3.2,5.9c-2.1,2.4-4.9,5.2-8.2,8.4c-1.3,1.3-2.9,2.7-4.6,4.3c-1.7,1.6-3.4,3.1-4.9,4.6c-1.8,1.6-3.7,3.3-5.5,5
					v1.4c0,3.4,0.8,5.8,2.3,7.1c1.5,1.3,3.7,1.9,6.4,1.9c2.5,0,5-0.5,7.5-1.4c2.5-0.9,4.8-1.9,6.8-3c2.4-1.3,4.7-2.8,6.9-4.5
					L816.4,862.2z M804.3,834.8c0-1-0.3-1.6-0.9-1.9s-1.2-0.4-1.9-0.4c-1.2,0-2.7,0.5-4.5,1.4c-1.8,0.9-3.5,2.4-5.1,4.5
					c-0.7,0.9-1.4,2-2.1,3.2c-0.7,1.3-1.3,2.7-1.9,4.2c-0.6,1.5-1.1,3.1-1.5,4.8c-0.4,1.7-0.6,3.3-0.7,5c1.3-1.1,2.6-2.2,3.9-3.3
					c1.1-1,2.4-2.1,3.7-3.3c1.3-1.2,2.6-2.4,3.8-3.7c2.1-2.2,3.8-4.1,5.2-5.8C803.6,837.8,804.3,836.2,804.3,834.8z"/>
				<path class="st3" d="M854.5,863.3c-2.4,1.9-4.9,3.6-7.5,5.3c-2.5,1.6-5,3-7.3,4.1c-2.3,1.1-4.2,1.6-5.7,1.6
					c-0.5,0-0.8-0.2-1-0.6c-0.2-0.4-0.2-0.9-0.2-1.4c0-0.5,0.1-1.3,0.4-2.5c0.3-1.1,0.6-2.4,1-3.9c0.4-1.5,0.9-3,1.3-4.6
					c0.5-1.6,0.9-3.2,1.4-4.7c0.6-1.9,1.1-3.7,1.7-5.6c0.5-1.8,1-3.4,1.4-4.9c0.4-1.5,0.7-2.7,1-3.7c0.3-1,0.4-1.6,0.4-1.9
					c0-0.6,0-1.1-0.1-1.4c-0.1-0.3-0.3-0.4-0.9-0.4c-0.4,0-1.1,0.4-2,1.1c-1,0.7-2.1,1.7-3.4,2.9c-1.3,1.2-2.6,2.6-4.1,4.2
					c-1.5,1.6-2.9,3.2-4.3,4.9c-1.8,2.2-3.2,4.2-4.4,6.3c-1.1,2-2.2,4-3,5.8c-0.9,1.9-1.7,3.4-2.3,4.5c-0.7,1.1-1.3,1.9-1.8,2.5
					c-0.5,0.6-1,0.9-1.5,1.1s-1,0.3-1.6,0.3c-0.6,0-1-0.2-1.1-0.7c-0.1-0.4-0.1-0.8-0.1-1.1c0-1.4,0.6-3.5,1.8-6.3
					c0.5-1.1,0.9-2,1.3-2.8s0.6-1.4,0.7-1.9l4.1-14c0.3-0.8,0.5-1.7,0.8-2.7c0.3-1,0.5-1.9,0.8-2.9c0.3-0.9,0.5-1.8,0.7-2.6
					c0.2-0.8,0.3-1.3,0.5-1.6c0.3-1,0.7-1.9,1.5-2.7c0.7-0.8,1.5-1.4,2.4-1.9c0.9-0.5,1.7-0.8,2.5-1.1c0.8-0.3,1.4-0.4,1.9-0.4
					c0.4,0,0.7,0.3,0.7,1c-0.1,0.5-0.3,1.5-0.8,2.9c-0.5,1.4-0.9,2.8-1.4,4.1c-0.6,1.8-1.1,3.3-1.5,4.6c-0.4,1.3-0.8,2.4-1.2,3.5
					c-0.4,1-0.7,2-1,2.8c-0.3,0.9-0.6,1.7-0.8,2.6h0.4c5.9-6.5,11.1-11.5,15.6-15c4.5-3.5,7.8-5.2,9.8-5.2c0.4,0,0.7,0.1,0.9,0.4
					c0.2,0.3,0.2,0.7,0.2,1.4c0,1.5-0.5,3.8-1.6,7.1s-2.2,7-3.5,11.2c-0.2,0.8-0.5,1.9-1,3.4c-0.5,1.5-1,3-1.5,4.6
					c-0.5,1.6-0.9,3-1.3,4.3s-0.6,2.1-0.6,2.4c0,0.4,0,0.8,0.1,1c0.1,0.3,0.3,0.4,0.8,0.4c0.8,0,1.9-0.3,3.3-0.9
					c1.4-0.6,2.9-1.4,4.6-2.4c1.7-1,3.4-2.1,5.1-3.4c1.7-1.3,3.4-2.5,4.9-3.8l0.9,1.1C859,859.6,856.9,861.4,854.5,863.3z"/>
				<path class="st3" d="M891,831.9c-0.6,1.5-1.3,2.6-2.2,3.3c-0.9,0.7-2.1,1.3-3.7,1.8c-0.2-0.7-0.6-1.3-1.1-1.8
					c-0.5-0.5-1.2-0.9-1.9-1.1c-0.8-0.3-1.6-0.5-2.4-0.6c-0.8-0.1-1.6-0.2-2.2-0.2c-0.9,0-1.9,0.1-2.9,0.4c-1,0.3-1.9,0.7-2.7,1.2
					c-0.8,0.6-1.4,1.3-1.9,2.2c-0.5,0.9-0.8,1.9-0.8,3.1c0,1.3,0.5,2.5,1.5,3.4c1,0.9,2.2,1.8,3.7,2.7c1.5,0.9,3,1.7,4.7,2.6
					c1.7,0.9,3.3,1.9,4.7,3.1c0.9,0.9,1.6,1.8,1.9,2.6c0.3,0.9,0.5,1.8,0.5,2.9c0,1.3-0.3,2.7-1,4.1c-0.7,1.4-1.6,2.7-2.7,4
					c-1.1,1.3-2.4,2.5-3.8,3.6c-1.4,1.1-2.9,2-4.3,2.6c-1.6,0.8-3.3,1.3-4.9,1.7c-1.6,0.3-3.1,0.5-4.3,0.5c-1.6,0-3.1-0.2-4.5-0.5
					c-1.4-0.3-2.7-0.9-3.8-1.6c-1.1-0.7-2-1.6-2.6-2.7c-0.6-1-0.9-2.3-0.9-3.7c0-1.5,0.6-3,1.9-4.5c1.3-1.5,3.2-2.4,5.9-2.9
					c-0.4,0.5-0.7,1.1-0.8,1.7c-0.1,0.6-0.1,1.2-0.1,1.7c0,1.1,0.2,2.1,0.5,3.1c0.3,1,0.9,1.9,1.6,2.7c0.7,0.8,1.7,1.4,2.8,1.9
					c1.2,0.5,2.6,0.7,4.2,0.7c2.8,0,5.3-0.8,7.2-2.4c2-1.6,2.9-3.7,2.9-6.3c0-2.5-0.9-4.3-2.8-5.5c-2-1.2-3.9-2.3-5.6-3.3
					c-1.7-1-3.2-1.9-4.5-2.9c-1.3-0.9-2.2-1.9-2.9-2.9c-0.7-1-1-2.2-1-3.5c0-2.3,0.7-4.3,2.1-6c1.4-1.7,3.1-3.1,5.2-4.2
					c2.1-1.1,4.3-1.9,6.7-2.5c2.4-0.5,4.6-0.8,6.6-0.8c1.2,0,2.3,0.1,3.2,0.3s1.8,0.5,2.5,0.8C889.8,831.2,890.4,831.5,891,831.9z"
					/>
			</g>
		</g>
	</g>
</g>
</svg>
