<?xml version="1.0" encoding="utf-8"?>
<!-- Generator: Adobe Illustrator 23.0.3, SVG Export Plug-In . SVG Version: 6.00 Build 0)  -->
<svg version="1.1" id="Layer_1" xmlns="http://www.w3.org/2000/svg" xmlns:xlink="http://www.w3.org/1999/xlink" x="0px" y="0px"
	 viewBox="0 0 300 300" style="enable-background:new 0 0 300 300;" xml:space="preserve">
<style type="text/css">
	.st0{fill:#C3C3C3;stroke:#C3C3C3;stroke-miterlimit:10;}
	.st1{opacity:0.65;stroke:#C3C3C3;stroke-miterlimit:10;}
</style>
<g>
	<path class="st0" d="M180.2,34.6c-0.6-4.1-5.1-6.7-11-9.9c-7.2-3.9-16.1-6.9-29.7-8c-8.3-0.7-20.4-0.8-35,1.9
		c-8.7-1.8-25.8-4-44.4,3c-3,1.1-11.2,4.4-20.1,11.3c-11,8.5-17.6,18-21.1,24.1c5-2.8,14-6.9,25.4-6.7c3.6,0.1,6.8,0.5,9.6,1.1
		C49.2,57.4,43.5,65.8,39,76.9c-6.4,15.7-7.5,29.7-7.5,38.7c-2.7,5.4-5.9,13.4-7.7,23.4c-2,11.2-1.3,20.1-0.9,24.3
		c0.6,6.3,2.4,15.7,7.2,26c6.1,12.8,14,20.6,19.2,25.6c10.4,10,21.2,16.2,29.8,20c-1.4-1.7-8.8-10.7-7.2-23c0.8-6,3.4-10.4,5.1-12.8
		c6.1-2.8,13.2-5.7,21.3-8.1c12-3.6,22.9-5.2,32-6c-3.1-1.3-36.2-15.4-57.5-26.4c-2.7-1.4-9.3-4.9-16.4-11
		c-4.8-4.2-8.5-8.4-11.5-13.2c-1.4-2.2-2.9-4.5-4-7.9C39,121,39,116.1,39.3,113c6.1-6.9,12-11.7,16.8-15C59.6,95.6,67,92,81.8,84.7
		c8.4-4.1,13.5-6.4,20.6-8.8c4.2-1.4,7.7-2.3,10.1-2.9c0,3.7-0.4,10.9-4.4,18.6c-3.1,6.1-7.1,10.1-9.8,12.4
		c4.6-1.9,11.9-5.6,18.7-12.8c10.5-11.1,13.4-23.6,14.3-28.9c2.2-0.9,4.4-1.7,6.7-2.6c6.1-2.3,12.1-4.2,17.9-5.9
		C171,48.4,181.1,40.8,180.2,34.6z"/>
	<path class="st0" d="M175.4,9.8c2.7,1.7,7.1,5.2,10.1,11c6.6,13.2-0.3,26.7-1.1,28.3c-4.4,4.6-8.6,8.1-12.1,10.7
		c-1.9,1.4-6.7,4.7-13.4,8c-5.4,2.6-10.4,4.4-14.5,5.5c7.8,1,15.6,2,23.4,3c12.1,2,24.1,4,36.2,6c7.3,1.3,16.6,3.9,26.4,8.9
		c14.6,7.5,23.5,17,27.3,21.3c6.8,7.8,11,15.4,13.6,20.9c-0.7,8.6-2.9,22-10.7,36.2c-6.4,11.7-13.9,19.1-16.4,21.4
		c-4.7,4.4-9.1,7.6-12.6,9.7c-3.1-0.9-5.4-3.4-6-6.4c-0.6-3.4,1.4-6,1.7-6.4c-3.2-0.1-8.5,0.3-14.5,2.6c-6.5,2.5-10.8,6.2-13.2,8.5
		c-0.6-3.8-1.1-9.9,0.4-17c1.3-6.2,3.7-11,5.5-14.1c-7.5,3.2-13.2,6.5-17,8.9c-3.3,2.1-6.6,4.5-20.9,16.2
		c-5.1,4.2-9.3,7.7-12.4,10.2l-24.7,2.1c0.1-0.5,0.4-4.3-2.6-7.2c-2.4-2.4-5.4-2.6-6.4-2.6c-3.8,0-6.2,2.3-6.8,3
		c-2.7,2.7-2.9,6-3,6.8c-3.1,0.6-7.4,1.5-12.4,3c-11.3,3.3-12.4,5.1-12.8,6c-2,4.3,2.1,10.2,4.3,13.4c2.3,3.4,5,5.7,6.8,7.1
		c-0.5,1.2-2.1,5.1-0.9,9.8c0.3,1.2,1.6,5.9,6,8.1c4.1,2.1,8.3,0.7,10.7,0c2.3-0.7,4-1.8,5.1-2.6c3.4,2.5,7.8,5.4,13.2,7.9
		c6.8,3.2,13.1,4.8,17.9,5.7c9.8,8.1,18.9,13.7,26,17.5c11.8,6.4,21.1,9.5,23.4,10.2c3.6,1.2,6.7,2,8.9,2.6c-1.8-2-5.4-6.6-6.8-13.6
		c-1.6-8.1,0.6-14.6,1.7-17c2.8,2.3,8.8,6.6,17.5,8.1c6.4,1.1,11.7,0.3,14.9-0.4c-0.9-1.7-3.1-6.4-2.1-12.4c0.5-3,1.7-5.3,2.6-6.8
		c3.5-2.1,8.2-5.3,13.2-9.8c8-7.3,12.4-14.4,15.3-19.2c7.6-12.3,10.7-23,11.5-25.8c2.9-10.3,3.1-18.2,3.5-28.3
		c0.3-8.6,0-20.4-2.1-34.5c1.1-6.4,2.1-16.6-0.4-28.5c-2.2-10.8-6.2-18-10.7-26c-8.7-15.8-18.7-26.5-24.7-32.4
		c-2.2-2.1-11.8-11.3-26.8-20.5C205.6,21.4,192.4,14.7,175.4,9.8z"/>
</g>
<ellipse class="st1" cx="153.1" cy="130.9" rx="123.6" ry="84.4"/>
</svg>
